{
copyright = "Copyright (c) 2015 Christopher Simpkins / Copyright (c) 2003 by Bitstream, Inc. All Rights Reserved.";
customParameters = (
{
name = license;

glyphs = (
{
glyphname = A;
layers = (
{
layerId = "74927890-37A3-4F23-AAA5-AC99B6EBF53D";
name = "Regular Italic";
paths = (
{
closed = 1;
nodes = (
"735 1325 LINE",
"801 551 LINE",
"371 551 LINE"
);
},
{
closed = 1;
nodes = (
"639 1493 LINE",
"-106 0 LINE",
"111 0 LINE",
"295 389 LINE",
"815 389 LINE",
"850 0 LINE",
"1051 0 LINE",
"885 1493 LINE"
);
}
);
width = 1233;
}
);
note = "\012\011A\012  ";
unicode = 0041;
},
{
glyphname = Aacute;
layers = (
{
layerId = "74927890-37A3-4F23-AAA5-AC99B6EBF53D";
name = "Regular Italic";
paths = (
{
closed = 1;
nodes = (
"735 1325 LINE",
"801 551 LINE",
"371 551 LINE"
);
},
{
closed = 1;
nodes = (
"639 1493 LINE",
"-106 0 LINE",
"111 0 LINE",
"295 389 LINE",
"815 389 LINE",
"850 0 LINE",
"1051 0 LINE",
"885 1493 LINE"
);
},
{
closed = 1;
nodes = (
"885 1899 LINE",
"626 1635 LINE",
"786 1635 LINE",
"1093 1899 LINE"
);
}
);
width = 1233;
}
);
note = "\012\011Aacute\012  ";
unicode = 00C1;
},
{
glyphname = Abreve;
lastChange = "2015-07-22 00:30:32 +0000";
layers = (
{
layerId = "74927890-37A3-4F23-AAA5-AC99B6EBF53D";
name = "Regular Italic";
paths = (
{
closed = 1;
nodes = (
"735 1325 LINE",
"371 551 LINE",
"801 551 LINE"
);
},
{
closed = 1;
nodes = (
"639 1493 LINE",
"885 1493 LINE",
"1051 0 LINE",
"850 0 LINE",
"815 389 LINE",
"295 389 LINE",
"111 0 LINE",
"-106 0 LINE"
);
},
{
closed = 1;
nodes = (
"648 1901 LINE",
"649 1829 OFFCURVE",
"711 1790 OFFCURVE",
"820 1790 CURVE SMOOTH",
"931 1790 OFFCURVE",
"1002 1826 OFFCURVE",
"1037 1901 CURVE",
"1156 1901 LINE",
"1109 1742 OFFCURVE",
"986 1659 OFFCURVE",
"794 1659 CURVE SMOOTH",
"602 1659 OFFCURVE",
"512 1741 OFFCURVE",
"529 1901 CURVE"
);
}
);
width = 1233;
}
);
note = Abreve;
unicode = 0102;
},
{
glyphname = Acircumflex;
layers = (
{
layerId = "74927890-37A3-4F23-AAA5-AC99B6EBF53D";
name = "Regular Italic";
paths = (
{
closed = 1;
nodes = (
"735 1325 LINE",
"801 551 LINE",
"371 551 LINE"
);
},
{
closed = 1;
nodes = (
"639 1493 LINE",
"-106 0 LINE",
"111 0 LINE",
"295 389 LINE",
"815 389 LINE",
"850 0 LINE",
"1051 0 LINE",
"885 1493 LINE"
);
},
{
closed = 1;
nodes = (
"704 1901 LINE",
"442 1635 LINE",
"594 1635 LINE",
"803 1813 LINE",
"942 1635 LINE",
"1075 1635 LINE",
"917 1901 LINE"
);
}
);
width = 1233;
}
);
note = "\012\011Acircumflex\012  ";
unicode = 00C2;
},
{
glyphname = Adieresis;
layers = (
{
layerId = "74927890-37A3-4F23-AAA5-AC99B6EBF53D";
name = "Regular Italic";
paths = (
{
closed = 1;
nodes = (
"735 1325 LINE",
"801 551 LINE",
"371 551 LINE"
);
},
{
closed = 1;
nodes = (
"639 1493 LINE",
"-106 0 LINE",
"111 0 LINE",
"295 389 LINE",
"815 389 LINE",
"850 0 LINE",
"1051 0 LINE",
"885 1493 LINE"
);
},
{
closed = 1;
nodes = (
"924 1870 LINE SMOOTH",
"906 1870 OFFCURVE",
"895 1861 OFFCURVE",
"892 1843 CURVE SMOOTH",
"864 1700 LINE SMOOTH",
"860 1680 OFFCURVE",
"871 1667 OFFCURVE",
"891 1667 CURVE SMOOTH",
"1034 1667 LINE SMOOTH",
"1052 1667 OFFCURVE",
"1063 1676 OFFCURVE",
"1066 1694 CURVE SMOOTH",
"1094 1837 LINE SMOOTH",
"1098 1857 OFFCURVE",
"1087 1870 OFFCURVE",
"1067 1870 CURVE SMOOTH"
);
},
{
closed = 1;
nodes = (
"533 1870 LINE SMOOTH",
"515 1870 OFFCURVE",
"504 1861 OFFCURVE",
"501 1843 CURVE SMOOTH",
"473 1700 LINE SMOOTH",
"469 1680 OFFCURVE",
"480 1667 OFFCURVE",
"500 1667 CURVE SMOOTH",
"642 1667 LINE SMOOTH",
"660 1667 OFFCURVE",
"670 1676 OFFCURVE",
"674 1694 CURVE SMOOTH",
"703 1837 LINE SMOOTH",
"707 1857 OFFCURVE",
"698 1870 OFFCURVE",
"677 1870 CURVE SMOOTH"
);
}
);
width = 1233;
}
);
note = "\012\011Adieresis\012  ";
unicode = 00C4;
},
{
glyphname = Agrave;
layers = (
{
layerId = "74927890-37A3-4F23-AAA5-AC99B6EBF53D";
name = "Regular Italic";
paths = (
{
closed = 1;
nodes = (
"735 1325 LINE",
"801 551 LINE",
"371 551 LINE"
);
},
{
closed = 1;
nodes = (
"639 1493 LINE",
"-106 0 LINE",
"111 0 LINE",
"295 389 LINE",
"815 389 LINE",
"850 0 LINE",
"1051 0 LINE",
"885 1493 LINE"
);
},
{
closed = 1;
nodes = (
"733 1899 LINE",
"551 1899 LINE",
"741 1635 LINE",
"880 1635 LINE"
);
}
);
width = 1233;
}
);
note = "\012\011Agrave\012  ";
unicode = 00C0;
},
{
glyphname = Amacron;
lastChange = "2015-07-22 00:30:32 +0000";
layers = (
{
layerId = "74927890-37A3-4F23-AAA5-AC99B6EBF53D";
name = "Regular Italic";
paths = (
{
closed = 1;
nodes = (
"735 1325 LINE",
"371 551 LINE",
"801 551 LINE"
);
},
{
closed = 1;
nodes = (
"639 1493 LINE",
"885 1493 LINE",
"1051 0 LINE",
"850 0 LINE",
"815 389 LINE",
"295 389 LINE",
"111 0 LINE",
"-106 0 LINE"
);
},
{
closed = 1;
nodes = (
"531 1840 LINE",
"1129 1840 LINE",
"1100 1692 LINE",
"502 1692 LINE"
);
}
);
width = 1233;
}
);
note = Amacron;
unicode = 0100;
},
{
glyphname = Aogonek;
lastChange = "2015-07-22 00:30:32 +0000";
layers = (
{
layerId = "74927890-37A3-4F23-AAA5-AC99B6EBF53D";
name = "Regular Italic";
paths = (
{
closed = 1;
nodes = (
"972 0 LINE",
"891 -77 OFFCURVE",
"847 -146 OFFCURVE",
"847 -197 CURVE SMOOTH",
"847 -246 OFFCURVE",
"879 -272 OFFCURVE",
"939 -272 CURVE SMOOTH",
"983 -272 OFFCURVE",
"1027 -262 OFFCURVE",
"1070 -242 CURVE",
"1045 -375 LINE",
"1000 -388 OFFCURVE",
"951 -395 OFFCURVE",
"906 -395 CURVE SMOOTH",
"777 -395 OFFCURVE",
"701 -339 OFFCURVE",
"701 -244 CURVE SMOOTH",
"701 -171 OFFCURVE",
"750 -92 OFFCURVE",
"853 0 CURVE"
);
},
{
closed = 1;
nodes = (
"735 1325 LINE",
"371 551 LINE",
"801 551 LINE"
);
},
{
closed = 1;
nodes = (
"639 1493 LINE",
"885 1493 LINE",
"1051 0 LINE",
"850 0 LINE",
"815 389 LINE",
"295 389 LINE",
"111 0 LINE",
"-106 0 LINE"
);
}
);
width = 1233;
}
);
note = Aogonek;
unicode = 0104;
},
{
glyphname = Aring;
layers = (
{
layerId = "74927890-37A3-4F23-AAA5-AC99B6EBF53D";
name = "Regular Italic";
paths = (
{
closed = 1;
nodes = (
"924 1584 OFFCURVE",
"909 1548 OFFCURVE",
"880 1519 CURVE SMOOTH",
"854 1493 OFFCURVE",
"816 1475 OFFCURVE",
"772 1475 CURVE SMOOTH",
"728 1475 OFFCURVE",
"690 1493 OFFCURVE",
"665 1518 CURVE SMOOTH",
"637 1546 OFFCURVE",
"621 1585 OFFCURVE",
"621 1627 CURVE SMOOTH",
"621 1668 OFFCURVE",
"636 1706 OFFCURVE",
"665 1735 CURVE SMOOTH",
"694 1764 OFFCURVE",
"730 1778 OFFCURVE",
"771 1778 CURVE SMOOTH",
"810 1778 OFFCURVE",
"849 1765 OFFCURVE",
"880 1734 CURVE SMOOTH",
"906 1708 OFFCURVE",
"924 1671 OFFCURVE",
"924 1626 CURVE SMOOTH"
);
},
{
closed = 1;
nodes = (
"735 1325 LINE",
"801 551 LINE",
"371 551 LINE"
);
},
{
closed = 1;
nodes = (
"-106 0 LINE",
"111 0 LINE",
"295 389 LINE",
"815 389 LINE",
"850 0 LINE",
"1051 0 LINE",
"897 1386 LINE",
"944 1407 OFFCURVE",
"980 1439 OFFCURVE",
"1007 1482 CURVE SMOOTH",
"1032 1522 OFFCURVE",
"1047 1567 OFFCURVE",
"1047 1624 CURVE SMOOTH",
"1047 1707 OFFCURVE",
"1016 1772 OFFCURVE",
"967 1821 CURVE SMOOTH",
"917 1871 OFFCURVE",
"850 1901 OFFCURVE",
"773 1901 CURVE SMOOTH",
"695 1901 OFFCURVE",
"626 1871 OFFCURVE",
"577 1821 CURVE SMOOTH",
"527 1770 OFFCURVE",
"498 1702 OFFCURVE",
"498 1625 CURVE SMOOTH",
"498 1582 OFFCURVE",
"507 1539 OFFCURVE",
"524 1504 CURVE SMOOTH",
"541 1468 OFFCURVE",
"566 1438 OFFCURVE",
"600 1415 CURVE"
);
}
);
width = 1233;
}
);
note = "\012\011Aring\012  ";
unicode = 00C5;
},
{
glyphname = Atilde;
layers = (
{
layerId = "74927890-37A3-4F23-AAA5-AC99B6EBF53D";
name = "Regular Italic";
paths = (
{
closed = 1;
nodes = (
"735 1325 LINE",
"801 551 LINE",
"371 551 LINE"
);
},
{
closed = 1;
nodes = (
"639 1493 LINE",
"-106 0 LINE",
"111 0 LINE",
"295 389 LINE",
"815 389 LINE",
"850 0 LINE",
"1051 0 LINE",
"885 1493 LINE"
);
},
{
closed = 1;
nodes = (
"790 1710 LINE SMOOTH",
"811 1695 OFFCURVE",
"830 1685 OFFCURVE",
"849 1678 CURVE SMOOTH",
"867 1671 OFFCURVE",
"886 1667 OFFCURVE",
"907 1667 CURVE SMOOTH",
"968 1667 OFFCURVE",
"1020 1685 OFFCURVE",
"1062 1722 CURVE SMOOTH",
"1104 1759 OFFCURVE",
"1136 1813 OFFCURVE",
"1157 1886 CURVE",
"1032 1886 LINE",
"1025 1855 OFFCURVE",
"1012 1831 OFFCURVE",
"993 1813 CURVE SMOOTH",
"974 1795 OFFCURVE",
"952 1786 OFFCURVE",
"925 1786 CURVE SMOOTH",
"912 1786 OFFCURVE",
"900 1788 OFFCURVE",
"888 1793 CURVE SMOOTH",
"876 1797 OFFCURVE",
"864 1804 OFFCURVE",
"852 1813 CURVE SMOOTH",
"817 1839 LINE SMOOTH",
"794 1856 OFFCURVE",
"772 1868 OFFCURVE",
"751 1875 CURVE SMOOTH",
"730 1882 OFFCURVE",
"709 1886 OFFCURVE",
"686 1886 CURVE SMOOTH",
"629 1886 OFFCURVE",
"580 1868 OFFCURVE",
"539 1831 CURVE SMOOTH",
"498 1794 OFFCURVE",
"465 1740 OFFCURVE",
"442 1667 CURVE",
"567 1667 LINE",
"580 1700 OFFCURVE",
"595 1726 OFFCURVE",
"613 1743 CURVE SMOOTH",
"631 1760 OFFCURVE",
"651 1768 OFFCURVE",
"674 1768 CURVE SMOOTH",
"699 1768 OFFCURVE",
"726 1757 OFFCURVE",
"754 1736 CURVE",
"756 1735 LINE"
);
}
);
width = 1233;
}
);
note = "\012\011Atilde\012  ";
unicode = 00C3;
},
{
glyphname = AE;
layers = (
{
layerId = "74927890-37A3-4F23-AAA5-AC99B6EBF53D";
name = "Regular Italic";
paths = (
{
closed = 1;
nodes = (
"1307 1493 LINE",
"555 1493 LINE",
"-145 0 LINE",
"39 0 LINE",
"215 383 LINE",
"567 383 LINE",
"492 0 LINE",
"1034 0 LINE",
"1067 170 LINE",
"711 170 LINE",
"817 711 LINE",
"1124 711 LINE",
"1157 881 LINE",
"850 881 LINE",
"936 1323 LINE",
"1274 1323 LINE"
);
},
{
closed = 1;
nodes = (
"647 1323 LINE",
"750 1323 LINE",
"600 551 LINE",
"291 551 LINE"
);
}
);
width = 1233;
}
);
note = "\012\011AE\012  ";
unicode = 00C6;
},
{
glyphname = B;
layers = (
{
layerId = "74927890-37A3-4F23-AAA5-AC99B6EBF53D";
name = "Regular Italic";
paths = (
{
closed = 1;
nodes = (
"365 713 LINE",
"606 713 LINE SMOOTH",
"701 713 OFFCURVE",
"772 696 OFFCURVE",
"817 662 CURVE SMOOTH",
"862 628 OFFCURVE",
"885 579 OFFCURVE",
"885 496 CURVE SMOOTH",
"885 399 OFFCURVE",
"853 311 OFFCURVE",
"788 253 CURVE SMOOTH",
"723 195 OFFCURVE",
"629 166 OFFCURVE",
"506 166 CURVE SMOOTH",
"258 166 LINE"
);
},
{
closed = 1;
nodes = (
"483 1327 LINE",
"727 1327 LINE SMOOTH",
"810 1327 OFFCURVE",
"871 1313 OFFCURVE",
"908 1285 CURVE SMOOTH",
"945 1257 OFFCURVE",
"963 1213 OFFCURVE",
"963 1148 CURVE SMOOTH",
"963 1065 OFFCURVE",
"934 998 OFFCURVE",
"877 950 CURVE SMOOTH",
"819 901 OFFCURVE",
"740 877 OFFCURVE",
"639 877 CURVE SMOOTH",
"395 877 LINE"
);
},
{
closed = 1;
nodes = (
"313 1493 LINE",
"23 0 LINE",
"475 0 LINE SMOOTH",
"670 0 OFFCURVE",
"821 44 OFFCURVE",
"926 130 CURVE SMOOTH",
"1032 217 OFFCURVE",
"1085 342 OFFCURVE",
"1085 486 CURVE SMOOTH",
"1085 577 OFFCURVE",
"1064 644 OFFCURVE",
"1019 697 CURVE SMOOTH",
"974 750 OFFCURVE",
"910 784 OFFCURVE",
"827 799 CURVE",
"931 812 OFFCURVE",
"1014 854 OFFCURVE",
"1075 923 CURVE SMOOTH",
"1136 992 OFFCURVE",
"1167 1078 OFFCURVE",
"1167 1178 CURVE SMOOTH",
"1167 1284 OFFCURVE",
"1132 1361 OFFCURVE",
"1063 1414 CURVE SMOOTH",
"994 1467 OFFCURVE",
"891 1493 OFFCURVE",
"756 1493 CURVE SMOOTH"
);
}
);
width = 1233;
}
);
note = "\012\011B\012  ";
unicode = 0042;
},
{
glyphname = C;
layers = (
{
layerId = "74927890-37A3-4F23-AAA5-AC99B6EBF53D";
name = "Regular Italic";
paths = (
{
closed = 1;
nodes = (
"983 260 LINE",
"924 219 OFFCURVE",
"865 188 OFFCURVE",
"805 167 CURVE SMOOTH",
"745 146 OFFCURVE",
"685 135 OFFCURVE",
"628 135 CURVE SMOOTH",
"522 135 OFFCURVE",
"449 174 OFFCURVE",
"404 226 CURVE SMOOTH",
"352 286 OFFCURVE",
"326 377 OFFCURVE",
"326 503 CURVE SMOOTH",
"326 614 OFFCURVE",
"346 744 OFFCURVE",
"390 878 CURVE SMOOTH",
"432 1004 OFFCURVE",
"489 1112 OFFCURVE",
"557 1192 CURVE SMOOTH",
"604 1247 OFFCURVE",
"655 1289 OFFCURVE",
"709 1316 CURVE SMOOTH",
"763 1343 OFFCURVE",
"822 1356 OFFCURVE",
"884 1356 CURVE SMOOTH",
"938 1356 OFFCURVE",
"989 1346 OFFCURVE",
"1036 1325 CURVE SMOOTH",
"1083 1304 OFFCURVE",
"1128 1273 OFFCURVE",
"1171 1231 CURVE",
"1212 1438 LINE",
"1162 1465 OFFCURVE",
"1111 1485 OFFCURVE",
"1058 1499 CURVE SMOOTH",
"1005 1513 OFFCURVE",
"954 1520 OFFCURVE",
"893 1520 CURVE SMOOTH",
"788 1520 OFFCURVE",
"692 1499 OFFCURVE",
"606 1458 CURVE SMOOTH",
"520 1417 OFFCURVE",
"443 1357 OFFCURVE",
"369 1266 CURVE SMOOTH",
"293 1172 OFFCURVE",
"233 1062 OFFCURVE",
"185 913 CURVE SMOOTH",
"139 770 OFFCURVE",
"115 623 OFFCURVE",
"115 492 CURVE SMOOTH",
"115 315 OFFCURVE",
"159 188 OFFCURVE",
"241 103 CURVE SMOOTH",
"320 21 OFFCURVE",
"440 -29 OFFCURVE",
"597 -29 CURVE SMOOTH",
"660 -29 OFFCURVE",
"725 -21 OFFCURVE",
"775 -9 CURVE SMOOTH",
"832 5 OFFCURVE",
"888 26 OFFCURVE",
"944 53 CURVE"
);
}
);
width = 1233;
}
);
note = "\012\011C\012  ";
unicode = 0043;
},
{
glyphname = Cacute;
layers = (
{
layerId = "74927890-37A3-4F23-AAA5-AC99B6EBF53D";
name = "Regular Italic";
paths = (
{
closed = 1;
nodes = (
"983 260 LINE",
"924 219 OFFCURVE",
"865 188 OFFCURVE",
"805 167 CURVE SMOOTH",
"745 146 OFFCURVE",
"685 135 OFFCURVE",
"628 135 CURVE SMOOTH",
"522 135 OFFCURVE",
"449 174 OFFCURVE",
"404 226 CURVE SMOOTH",
"352 286 OFFCURVE",
"326 377 OFFCURVE",
"326 503 CURVE SMOOTH",
"326 614 OFFCURVE",
"346 744 OFFCURVE",
"390 878 CURVE SMOOTH",
"432 1004 OFFCURVE",
"489 1112 OFFCURVE",
"557 1192 CURVE SMOOTH",
"604 1247 OFFCURVE",
"655 1289 OFFCURVE",
"709 1316 CURVE SMOOTH",
"763 1343 OFFCURVE",
"822 1356 OFFCURVE",
"884 1356 CURVE SMOOTH",
"938 1356 OFFCURVE",
"989 1346 OFFCURVE",
"1036 1325 CURVE SMOOTH",
"1083 1304 OFFCURVE",
"1128 1273 OFFCURVE",
"1171 1231 CURVE",
"1212 1438 LINE",
"1162 1465 OFFCURVE",
"1111 1485 OFFCURVE",
"1058 1499 CURVE SMOOTH",
"1005 1513 OFFCURVE",
"954 1520 OFFCURVE",
"893 1520 CURVE SMOOTH",
"788 1520 OFFCURVE",
"692 1499 OFFCURVE",
"606 1458 CURVE SMOOTH",
"520 1417 OFFCURVE",
"443 1357 OFFCURVE",
"369 1266 CURVE SMOOTH",
"293 1172 OFFCURVE",
"233 1062 OFFCURVE",
"185 913 CURVE SMOOTH",
"139 770 OFFCURVE",
"115 623 OFFCURVE",
"115 492 CURVE SMOOTH",
"115 315 OFFCURVE",
"159 188 OFFCURVE",
"241 103 CURVE SMOOTH",
"320 21 OFFCURVE",
"440 -29 OFFCURVE",
"597 -29 CURVE SMOOTH",
"660 -29 OFFCURVE",
"725 -21 OFFCURVE",
"775 -9 CURVE SMOOTH",
"832 5 OFFCURVE",
"888 26 OFFCURVE",
"944 53 CURVE"
);
},
{
closed = 1;
nodes = (
"1008 1899 LINE",
"749 1635 LINE",
"909 1635 LINE",
"1216 1899 LINE"
);
}
);
width = 1233;
}
);
note = "\012\011Cacute\012  ";
unicode = 0106;
},
{
glyphname = Ccaron;
layers = (
{
layerId = "74927890-37A3-4F23-AAA5-AC99B6EBF53D";
name = "Regular Italic";
paths = (
{
closed = 1;
nodes = (
"983 260 LINE",
"924 219 OFFCURVE",
"865 188 OFFCURVE",
"805 167 CURVE SMOOTH",
"745 146 OFFCURVE",
"685 135 OFFCURVE",
"628 135 CURVE SMOOTH",
"522 135 OFFCURVE",
"449 174 OFFCURVE",
"404 226 CURVE SMOOTH",
"352 286 OFFCURVE",
"326 377 OFFCURVE",
"326 503 CURVE SMOOTH",
"326 614 OFFCURVE",
"346 744 OFFCURVE",
"390 878 CURVE SMOOTH",
"432 1004 OFFCURVE",
"489 1112 OFFCURVE",
"557 1192 CURVE SMOOTH",
"604 1247 OFFCURVE",
"655 1289 OFFCURVE",
"709 1316 CURVE SMOOTH",
"763 1343 OFFCURVE",
"822 1356 OFFCURVE",
"884 1356 CURVE SMOOTH",
"938 1356 OFFCURVE",
"989 1346 OFFCURVE",
"1036 1325 CURVE SMOOTH",
"1083 1304 OFFCURVE",
"1128 1273 OFFCURVE",
"1171 1231 CURVE",
"1212 1438 LINE",
"1162 1465 OFFCURVE",
"1111 1485 OFFCURVE",
"1058 1499 CURVE SMOOTH",
"1005 1513 OFFCURVE",
"954 1520 OFFCURVE",
"893 1520 CURVE SMOOTH",
"788 1520 OFFCURVE",
"692 1499 OFFCURVE",
"606 1458 CURVE SMOOTH",
"520 1417 OFFCURVE",
"443 1357 OFFCURVE",
"369 1266 CURVE SMOOTH",
"293 1172 OFFCURVE",
"233 1062 OFFCURVE",
"185 913 CURVE SMOOTH",
"139 770 OFFCURVE",
"115 623 OFFCURVE",
"115 492 CURVE SMOOTH",
"115 315 OFFCURVE",
"159 188 OFFCURVE",
"241 103 CURVE SMOOTH",
"320 21 OFFCURVE",
"440 -29 OFFCURVE",
"597 -29 CURVE SMOOTH",
"660 -29 OFFCURVE",
"725 -21 OFFCURVE",
"775 -9 CURVE SMOOTH",
"832 5 OFFCURVE",
"888 26 OFFCURVE",
"944 53 CURVE"
);
},
{
closed = 1;
nodes = (
"987 1635 LINE",
"1251 1901 LINE",
"1100 1901 LINE",
"891 1723 LINE",
"752 1901 LINE",
"616 1901 LINE",
"774 1635 LINE"
);
}
);
width = 1233;
}
);
note = "\012\011Ccaron\012  ";
unicode = 010C;
},
{
glyphname = Ccedilla;
layers = (
{
layerId = "74927890-37A3-4F23-AAA5-AC99B6EBF53D";
name = "Regular Italic";
paths = (
{
closed = 1;
nodes = (
"983 260 LINE",
"924 219 OFFCURVE",
"865 188 OFFCURVE",
"805 167 CURVE SMOOTH",
"745 146 OFFCURVE",
"685 135 OFFCURVE",
"628 135 CURVE SMOOTH",
"522 135 OFFCURVE",
"449 174 OFFCURVE",
"404 226 CURVE SMOOTH",
"352 286 OFFCURVE",
"326 377 OFFCURVE",
"326 503 CURVE SMOOTH",
"326 614 OFFCURVE",
"346 744 OFFCURVE",
"390 878 CURVE SMOOTH",
"432 1004 OFFCURVE",
"489 1112 OFFCURVE",
"557 1192 CURVE SMOOTH",
"604 1247 OFFCURVE",
"655 1289 OFFCURVE",
"709 1316 CURVE SMOOTH",
"763 1343 OFFCURVE",
"822 1356 OFFCURVE",
"884 1356 CURVE SMOOTH",
"938 1356 OFFCURVE",
"989 1346 OFFCURVE",
"1036 1325 CURVE SMOOTH",
"1083 1304 OFFCURVE",
"1128 1273 OFFCURVE",
"1171 1231 CURVE",
"1212 1438 LINE",
"1162 1465 OFFCURVE",
"1111 1485 OFFCURVE",
"1058 1499 CURVE SMOOTH",
"1005 1513 OFFCURVE",
"954 1520 OFFCURVE",
"893 1520 CURVE SMOOTH",
"788 1520 OFFCURVE",
"692 1499 OFFCURVE",
"606 1458 CURVE SMOOTH",
"520 1417 OFFCURVE",
"443 1357 OFFCURVE",
"369 1266 CURVE SMOOTH",
"293 1172 OFFCURVE",
"233 1062 OFFCURVE",
"185 913 CURVE SMOOTH",
"139 770 OFFCURVE",
"115 623 OFFCURVE",
"115 492 CURVE SMOOTH",
"115 315 OFFCURVE",
"159 188 OFFCURVE",
"241 103 CURVE SMOOTH",
"320 21 OFFCURVE",
"440 -29 OFFCURVE",
"597 -29 CURVE SMOOTH",
"660 -29 OFFCURVE",
"725 -21 OFFCURVE",
"775 -9 CURVE SMOOTH",
"832 5 OFFCURVE",
"888 26 OFFCURVE",
"944 53 CURVE"
);
},
{
closed = 1;
nodes = (
"540 0 LINE",
"560 -37 OFFCURVE",
"578 -77 OFFCURVE",
"584 -93 CURVE SMOOTH",
"592 -114 OFFCURVE",
"598 -141 OFFCURVE",
"598 -163 CURVE SMOOTH",
"598 -195 OFFCURVE",
"586 -224 OFFCURVE",
"561 -244 CURVE SMOOTH",
"536 -264 OFFCURVE",
"499 -274 OFFCURVE",
"456 -274 CURVE SMOOTH",
"433 -274 OFFCURVE",
"412 -271 OFFCURVE",
"388 -265 CURVE SMOOTH",
"363 -258 OFFCURVE",
"338 -249 OFFCURVE",
"311 -236 CURVE",
"286 -365 LINE",
"317 -375 OFFCURVE",
"349 -383 OFFCURVE",
"380 -388 CURVE SMOOTH",
"411 -393 OFFCURVE",
"443 -395 OFFCURVE",
"470 -395 CURVE SMOOTH",
"552 -395 OFFCURVE",
"616 -376 OFFCURVE",
"661 -341 CURVE SMOOTH",
"708 -304 OFFCURVE",
"731 -253 OFFCURVE",
"731 -198 CURVE SMOOTH",
"731 -170 OFFCURVE",
"725 -140 OFFCURVE",
"714 -111 CURVE SMOOTH",
"702 -80 OFFCURVE",
"684 -43 OFFCURVE",
"659 0 CURVE"
);
}
);
width = 1233;
}
);
note = "\012\011Ccedilla\012  ";
unicode = 00C7;
},
{
glyphname = Cdotaccent;
lastChange = "2015-07-22 00:34:56 +0000";
layers = (
{
layerId = "74927890-37A3-4F23-AAA5-AC99B6EBF53D";
name = "Regular Italic";
paths = (
{
closed = 1;
nodes = (
"944 53 LINE",
"832 -2 OFFCURVE",
"719 -29 OFFCURVE",
"598 -29 CURVE SMOOTH",
"291 -29 OFFCURVE",
"115 157 OFFCURVE",
"115 477 CURVE SMOOTH",
"115 770 OFFCURVE",
"217 1083 OFFCURVE",
"369 1266 CURVE SMOOTH",
"512 1439 OFFCURVE",
"679 1520 OFFCURVE",
"899 1520 CURVE SMOOTH",
"1006 1520 OFFCURVE",
"1112 1491 OFFCURVE",
"1212 1438 CURVE",
"1171 1231 LINE",
"1086 1315 OFFCURVE",
"992 1356 OFFCURVE",
"885 1356 CURVE SMOOTH",
"758 1356 OFFCURVE",
"652 1303 OFFCURVE",
"557 1192 CURVE SMOOTH",
"418 1028 OFFCURVE",
"326 749 OFFCURVE",
"326 492 CURVE SMOOTH",
"326 261 OFFCURVE",
"433 135 OFFCURVE",
"629 135 CURVE SMOOTH",
"742 135 OFFCURVE",
"866 179 OFFCURVE",
"983 260 CURVE"
);
},
{
closed = 1;
nodes = (
"808 1872 LINE",
"1013 1872 LINE",
"973 1667 LINE",
"768 1667 LINE"
);
}
);
width = 1233;
}
);
note = Cdotaccent;
unicode = 010A;
},
{
glyphname = D;
layers = (
{
layerId = "74927890-37A3-4F23-AAA5-AC99B6EBF53D";
name = "Regular Italic";
paths = (
{
closed = 1;
nodes = (
"227 166 LINE",
"453 1327 LINE",
"567 1327 LINE SMOOTH",
"696 1327 OFFCURVE",
"787 1302 OFFCURVE",
"842 1251 CURVE SMOOTH",
"897 1200 OFFCURVE",
"924 1119 OFFCURVE",
"924 993 CURVE SMOOTH",
"924 913 OFFCURVE",
"913 813 OFFCURVE",
"890 707 CURVE SMOOTH",
"866 597 OFFCURVE",
"834 501 OFFCURVE",
"801 432 CURVE SMOOTH",
"756 338 OFFCURVE",
"697 271 OFFCURVE",
"621 229 CURVE SMOOTH",
"546 187 OFFCURVE",
"447 166 OFFCURVE",
"324 166 CURVE SMOOTH"
);
},
{
closed = 1;
nodes = (
"283 1493 LINE",
"-8 0 LINE",
"295 0 LINE SMOOTH",
"472 0 OFFCURVE",
"612 27 OFFCURVE",
"716 82 CURVE SMOOTH",
"816 135 OFFCURVE",
"905 224 OFFCURVE",
"975 354 CURVE SMOOTH",
"1018 434 OFFCURVE",
"1059 540 OFFCURVE",
"1088 659 CURVE SMOOTH",
"1116 774 OFFCURVE",
"1130 888 OFFCURVE",
"1130 986 CURVE SMOOTH",
"1130 1159 OFFCURVE",
"1087 1285 OFFCURVE",
"995 1369 CURVE SMOOTH",
"904 1452 OFFCURVE",
"768 1493 OFFCURVE",
"586 1493 CURVE SMOOTH"
);
}
);
width = 1233;
}
);
note = "\012\011D\012  ";
unicode = 0044;
},
{
glyphname = Eth;
layers = (
{
layerId = "74927890-37A3-4F23-AAA5-AC99B6EBF53D";
name = "Regular Italic";
paths = (
{
closed = 1;
nodes = (
"227 166 LINE",
"334 709 LINE",
"600 709 LINE",
"629 858 LINE",
"362 858 LINE",
"453 1327 LINE",
"567 1327 LINE SMOOTH",
"696 1327 OFFCURVE",
"787 1302 OFFCURVE",
"842 1251 CURVE SMOOTH",
"897 1200 OFFCURVE",
"924 1119 OFFCURVE",
"924 993 CURVE SMOOTH",
"924 913 OFFCURVE",
"913 813 OFFCURVE",
"890 707 CURVE SMOOTH",
"866 597 OFFCURVE",
"834 501 OFFCURVE",
"801 432 CURVE SMOOTH",
"756 338 OFFCURVE",
"697 271 OFFCURVE",
"621 229 CURVE SMOOTH",
"546 187 OFFCURVE",
"447 166 OFFCURVE",
"324 166 CURVE SMOOTH"
);
},
{
closed = 1;
nodes = (
"283 1493 LINE",
"160 858 LINE",
"31 858 LINE",
"2 709 LINE",
"129 709 LINE",
"-8 0 LINE",
"295 0 LINE SMOOTH",
"472 0 OFFCURVE",
"612 27 OFFCURVE",
"716 82 CURVE SMOOTH",
"816 135 OFFCURVE",
"905 224 OFFCURVE",
"975 354 CURVE SMOOTH",
"1018 434 OFFCURVE",
"1059 540 OFFCURVE",
"1088 659 CURVE SMOOTH",
"1116 774 OFFCURVE",
"1130 888 OFFCURVE",
"1130 986 CURVE SMOOTH",
"1130 1159 OFFCURVE",
"1087 1285 OFFCURVE",
"995 1369 CURVE SMOOTH",
"904 1452 OFFCURVE",
"768 1493 OFFCURVE",
"586 1493 CURVE SMOOTH"
);
}
);
width = 1233;
}
);
note = "\012\011Eth\012  ";
unicode = 00D0;
},
{
glyphname = Dcaron;
lastChange = "2015-07-22 00:30:32 +0000";
layers = (
{
layerId = "74927890-37A3-4F23-AAA5-AC99B6EBF53D";
name = "Regular Italic";
paths = (
{
closed = 1;
nodes = (
"324 166 LINE SMOOTH",
"571 166 OFFCURVE",
"710 244 OFFCURVE",
"801 432 CURVE SMOOTH",
"873 585 OFFCURVE",
"924 822 OFFCURVE",
"924 999 CURVE SMOOTH",
"924 1234 OFFCURVE",
"824 1327 OFFCURVE",
"567 1327 CURVE SMOOTH",
"453 1327 LINE",
"227 166 LINE"
);
},
{
closed = 1;
nodes = (
"586 1493 LINE SMOOTH",
"950 1493 OFFCURVE",
"1130 1329 OFFCURVE",
"1130 993 CURVE SMOOTH",
"1130 777 OFFCURVE",
"1070 531 OFFCURVE",
"975 354 CURVE SMOOTH",
"836 99 OFFCURVE",
"648 0 OFFCURVE",
"295 0 CURVE SMOOTH",
"-8 0 LINE",
"283 1493 LINE"
);
},
{
closed = 1;
nodes = (
"855 1635 LINE",
"642 1635 LINE",
"484 1901 LINE",
"620 1901 LINE",
"759 1723 LINE",
"968 1901 LINE",
"1119 1901 LINE"
);
}
);
width = 1233;
}
);
note = Dcaron;
unicode = 010E;
},
{
glyphname = Dcroat;
lastChange = "2015-07-22 00:30:32 +0000";
layers = (
{
layerId = "74927890-37A3-4F23-AAA5-AC99B6EBF53D";
name = "Regular Italic";
paths = (
{
closed = 1;
nodes = (
"324 166 LINE SMOOTH",
"571 166 OFFCURVE",
"710 244 OFFCURVE",
"801 432 CURVE SMOOTH",
"873 585 OFFCURVE",
"924 822 OFFCURVE",
"924 999 CURVE SMOOTH",
"924 1234 OFFCURVE",
"824 1327 OFFCURVE",
"567 1327 CURVE SMOOTH",
"453 1327 LINE",
"362 858 LINE",
"629 858 LINE",
"600 709 LINE",
"334 709 LINE",
"227 166 LINE"
);
},
{
closed = 1;
nodes = (
"586 1493 LINE SMOOTH",
"950 1493 OFFCURVE",
"1130 1329 OFFCURVE",
"1130 993 CURVE SMOOTH",
"1130 777 OFFCURVE",
"1070 531 OFFCURVE",
"975 354 CURVE SMOOTH",
"836 99 OFFCURVE",
"648 0 OFFCURVE",
"295 0 CURVE SMOOTH",
"-8 0 LINE",
"129 709 LINE",
"2 709 LINE",
"31 858 LINE",
"160 858 LINE",
"283 1493 LINE"
);
}
);
width = 1233;
}
);
note = Dcroat;
unicode = 0110;
},
{
glyphname = E;
layers = (
{
layerId = "74927890-37A3-4F23-AAA5-AC99B6EBF53D";
name = "Regular Italic";
paths = (
{
closed = 1;
nodes = (
"344 1493 LINE",
"53 0 LINE",
"958 0 LINE",
"991 170 LINE",
"289 170 LINE",
"393 711 LINE",
"1047 711 LINE",
"1079 881 LINE",
"426 881 LINE",
"512 1323 LINE",
"1196 1323 LINE",
"1229 1493 LINE"
);
}
);
width = 1233;
}
);
note = "\012\011E\012  ";
unicode = 0045;
},
{
glyphname = Eacute;
layers = (
{
layerId = "74927890-37A3-4F23-AAA5-AC99B6EBF53D";
name = "Regular Italic";
paths = (
{
closed = 1;
nodes = (
"344 1493 LINE",
"53 0 LINE",
"958 0 LINE",
"991 170 LINE",
"289 170 LINE",
"393 711 LINE",
"1047 711 LINE",
"1079 881 LINE",
"426 881 LINE",
"512 1323 LINE",
"1196 1323 LINE",
"1229 1493 LINE"
);
},
{
closed = 1;
nodes = (
"930 1899 LINE",
"671 1635 LINE",
"831 1635 LINE",
"1138 1899 LINE"
);
}
);
width = 1233;
}
);
note = "\012\011Eacute\012  ";
unicode = 00C9;
},
{
glyphname = Ecaron;
lastChange = "2015-07-22 00:31:53 +0000";
layers = (
{
layerId = "74927890-37A3-4F23-AAA5-AC99B6EBF53D";
name = "Regular Italic";
paths = (
{
closed = 1;
nodes = (
"344 1493 LINE",
"1229 1493 LINE",
"1196 1323 LINE",
"512 1323 LINE",
"426 881 LINE",
"1079 881 LINE",
"1047 711 LINE",
"393 711 LINE",
"289 170 LINE",
"991 170 LINE",
"958 0 LINE",
"53 0 LINE"
);
},
{
closed = 1;
nodes = (
"957 1635 LINE",
"744 1635 LINE",
"586 1901 LINE",
"722 1901 LINE",
"861 1723 LINE",
"1070 1901 LINE",
"1221 1901 LINE"
);
}
);
width = 1233;
}
);
note = Ecaron;
unicode = 011A;
},
{
glyphname = Ecircumflex;
layers = (
{
layerId = "74927890-37A3-4F23-AAA5-AC99B6EBF53D";
name = "Regular Italic";
paths = (
{
closed = 1;
nodes = (
"344 1493 LINE",
"53 0 LINE",
"958 0 LINE",
"991 170 LINE",
"289 170 LINE",
"393 711 LINE",
"1047 711 LINE",
"1079 881 LINE",
"426 881 LINE",
"512 1323 LINE",
"1196 1323 LINE",
"1229 1493 LINE"
);
},
{
closed = 1;
nodes = (
"749 1901 LINE",
"487 1635 LINE",
"639 1635 LINE",
"848 1813 LINE",
"987 1635 LINE",
"1120 1635 LINE",
"962 1901 LINE"
);
}
);
width = 1233;
}
);
note = "\012\011Ecircumflex\012  ";
unicode = 00CA;
},
{
glyphname = Edieresis;
layers = (
{
layerId = "74927890-37A3-4F23-AAA5-AC99B6EBF53D";
name = "Regular Italic";
paths = (
{
closed = 1;
nodes = (
"344 1493 LINE",
"53 0 LINE",
"958 0 LINE",
"991 170 LINE",
"289 170 LINE",
"393 711 LINE",
"1047 711 LINE",
"1079 881 LINE",
"426 881 LINE",
"512 1323 LINE",
"1196 1323 LINE",
"1229 1493 LINE"
);
},
{
closed = 1;
nodes = (
"969 1870 LINE SMOOTH",
"951 1870 OFFCURVE",
"940 1861 OFFCURVE",
"937 1843 CURVE SMOOTH",
"909 1700 LINE SMOOTH",
"905 1680 OFFCURVE",
"916 1667 OFFCURVE",
"936 1667 CURVE SMOOTH",
"1079 1667 LINE SMOOTH",
"1097 1667 OFFCURVE",
"1108 1676 OFFCURVE",
"1111 1694 CURVE SMOOTH",
"1139 1837 LINE SMOOTH",
"1143 1857 OFFCURVE",
"1132 1870 OFFCURVE",
"1112 1870 CURVE SMOOTH"
);
},
{
closed = 1;
nodes = (
"578 1870 LINE SMOOTH",
"560 1870 OFFCURVE",
"549 1861 OFFCURVE",
"546 1843 CURVE SMOOTH",
"518 1700 LINE SMOOTH",
"514 1680 OFFCURVE",
"525 1667 OFFCURVE",
"545 1667 CURVE SMOOTH",
"687 1667 LINE SMOOTH",
"705 1667 OFFCURVE",
"715 1676 OFFCURVE",
"719 1694 CURVE SMOOTH",
"748 1837 LINE SMOOTH",
"752 1857 OFFCURVE",
"743 1870 OFFCURVE",
"722 1870 CURVE SMOOTH"
);
}
);
width = 1233;
}
);
note = "\012\011Edieresis\012  ";
unicode = 00CB;
},
{
glyphname = Edotaccent;
lastChange = "2015-07-22 00:31:53 +0000";
layers = (
{
layerId = "74927890-37A3-4F23-AAA5-AC99B6EBF53D";
name = "Regular Italic";
paths = (
{
closed = 1;
nodes = (
"344 1493 LINE",
"1229 1493 LINE",
"1196 1323 LINE",
"512 1323 LINE",
"426 881 LINE",
"1079 881 LINE",
"1047 711 LINE",
"393 711 LINE",
"289 170 LINE",
"991 170 LINE",
"958 0 LINE",
"53 0 LINE"
);
},
{
closed = 1;
nodes = (
"751 1872 LINE",
"956 1872 LINE",
"916 1667 LINE",
"711 1667 LINE"
);
}
);
width = 1233;
}
);
note = Edotaccent;
unicode = 0116;
},
{
glyphname = Egrave;
layers = (
{
layerId = "74927890-37A3-4F23-AAA5-AC99B6EBF53D";
name = "Regular Italic";
paths = (
{
closed = 1;
nodes = (
"344 1493 LINE",
"53 0 LINE",
"958 0 LINE",
"991 170 LINE",
"289 170 LINE",
"393 711 LINE",
"1047 711 LINE",
"1079 881 LINE",
"426 881 LINE",
"512 1323 LINE",
"1196 1323 LINE",
"1229 1493 LINE"
);
},
{
closed = 1;
nodes = (
"778 1899 LINE",
"596 1899 LINE",
"786 1635 LINE",
"925 1635 LINE"
);
}
);
width = 1233;
}
);
note = "\012\011Egrave\012  ";
unicode = 00C8;
},
{
glyphname = Emacron;
lastChange = "2015-07-22 00:31:53 +0000";
layers = (
{
layerId = "74927890-37A3-4F23-AAA5-AC99B6EBF53D";
name = "Regular Italic";
paths = (
{
closed = 1;
nodes = (
"344 1493 LINE",
"1229 1493 LINE",
"1196 1323 LINE",
"512 1323 LINE",
"426 881 LINE",
"1079 881 LINE",
"1047 711 LINE",
"393 711 LINE",
"289 170 LINE",
"991 170 LINE",
"958 0 LINE",
"53 0 LINE"
);
},
{
closed = 1;
nodes = (
"549 1840 LINE",
"1147 1840 LINE",
"1118 1692 LINE",
"520 1692 LINE"
);
}
);
width = 1233;
}
);
note = Emacron;
unicode = 0112;
},
{
glyphname = Eogonek;
lastChange = "2015-07-22 00:31:53 +0000";
layers = (
{
layerId = "74927890-37A3-4F23-AAA5-AC99B6EBF53D";
name = "Regular Italic";
paths = (
{
closed = 1;
nodes = (
"862 0 LINE",
"781 -77 OFFCURVE",
"737 -146 OFFCURVE",
"737 -197 CURVE SMOOTH",
"737 -246 OFFCURVE",
"769 -272 OFFCURVE",
"829 -272 CURVE SMOOTH",
"873 -272 OFFCURVE",
"917 -262 OFFCURVE",
"960 -242 CURVE",
"935 -375 LINE",
"890 -388 OFFCURVE",
"841 -395 OFFCURVE",
"796 -395 CURVE SMOOTH",
"667 -395 OFFCURVE",
"591 -339 OFFCURVE",
"591 -244 CURVE SMOOTH",
"591 -171 OFFCURVE",
"640 -92 OFFCURVE",
"743 0 CURVE"
);
},
{
closed = 1;
nodes = (
"344 1493 LINE",
"1229 1493 LINE",
"1196 1323 LINE",
"512 1323 LINE",
"426 881 LINE",
"1079 881 LINE",
"1047 711 LINE",
"393 711 LINE",
"289 170 LINE",
"991 170 LINE",
"958 0 LINE",
"53 0 LINE"
);
}
);
width = 1233;
}
);
note = Eogonek;
unicode = 0118;
},
{
glyphname = F;
layers = (
{
layerId = "74927890-37A3-4F23-AAA5-AC99B6EBF53D";
name = "Regular Italic";
paths = (
{
closed = 1;
nodes = (
"383 1493 LINE",
"92 0 LINE",
"295 0 LINE",
"434 703 LINE",
"1047 703 LINE",
"1079 873 LINE",
"467 873 LINE",
"553 1323 LINE",
"1229 1323 LINE",
"1262 1493 LINE"
);
}
);
width = 1233;
}
);
note = "\012\011F\012  ";
unicode = 0046;
},
{
glyphname = G;
layers = (
{
layerId = "74927890-37A3-4F23-AAA5-AC99B6EBF53D";
name = "Regular Italic";
paths = (
{
closed = 1;
nodes = (
"1102 766 LINE",
"692 766 LINE",
"662 600 LINE",
"879 600 LINE",
"803 207 LINE",
"778 184 OFFCURVE",
"750 167 OFFCURVE",
"712 154 CURVE SMOOTH",
"677 142 OFFCURVE",
"640 135 OFFCURVE",
"592 135 CURVE SMOOTH",
"492 135 OFFCURVE",
"419 166 OFFCURVE",
"366 228 CURVE SMOOTH",
"313 290 OFFCURVE",
"287 378 OFFCURVE",
"287 494 CURVE SMOOTH",
"287 549 OFFCURVE",
"293 604 OFFCURVE",
"305 673 CURVE SMOOTH",
"316 738 OFFCURVE",
"333 813 OFFCURVE",
"356 887 CURVE SMOOTH",
"375 948 OFFCURVE",
"397 1006 OFFCURVE",
"425 1062 CURVE SMOOTH",
"450 1112 OFFCURVE",
"478 1156 OFFCURVE",
"508 1192 CURVE SMOOTH",
"551 1244 OFFCURVE",
"606 1288 OFFCURVE",
"662 1315 CURVE SMOOTH",
"716 1341 OFFCURVE",
"780 1356 OFFCURVE",
"846 1356 CURVE SMOOTH",
"900 1356 OFFCURVE",
"951 1346 OFFCURVE",
"999 1325 CURVE SMOOTH",
"1040 1307 OFFCURVE",
"1089 1276 OFFCURVE",
"1135 1231 CURVE",
"1176 1438 LINE",
"1125 1465 OFFCURVE",
"1073 1485 OFFCURVE",
"1020 1499 CURVE SMOOTH",
"967 1513 OFFCURVE",
"915 1520 OFFCURVE",
"854 1520 CURVE SMOOTH",
"748 1520 OFFCURVE",
"652 1499 OFFCURVE",
"566 1458 CURVE SMOOTH",
"476 1415 OFFCURVE",
"394 1349 OFFCURVE",
"328 1267 CURVE SMOOTH",
"293 1223 OFFCURVE",
"258 1171 OFFCURVE",
"225 1105 CURVE SMOOTH",
"194 1042 OFFCURVE",
"165 968 OFFCURVE",
"143 893 CURVE SMOOTH",
"123 825 OFFCURVE",
"105 742 OFFCURVE",
"95 681 CURVE SMOOTH",
"84 613 OFFCURVE",
"78 550 OFFCURVE",
"78 488 CURVE SMOOTH",
"78 328 OFFCURVE",
"119 197 OFFCURVE",
"202 106 CURVE SMOOTH",
"283 18 OFFCURVE",
"402 -29 OFFCURVE",
"564 -29 CURVE SMOOTH",
"642 -29 OFFCURVE",
"711 -18 OFFCURVE",
"779 3 CURVE SMOOTH",
"850 25 OFFCURVE",
"911 55 OFFCURVE",
"969 96 CURVE"
);
}
);
width = 1233;
}
);
note = "\012\011G\012  ";
unicode = 0047;
},
{
glyphname = Gbreve;
layers = (
{
layerId = "74927890-37A3-4F23-AAA5-AC99B6EBF53D";
name = "Regular Italic";
paths = (
{
closed = 1;
nodes = (
"1102 766 LINE",
"692 766 LINE",
"662 600 LINE",
"879 600 LINE",
"803 207 LINE",
"778 184 OFFCURVE",
"750 167 OFFCURVE",
"712 154 CURVE SMOOTH",
"677 142 OFFCURVE",
"640 135 OFFCURVE",
"592 135 CURVE SMOOTH",
"492 135 OFFCURVE",
"419 166 OFFCURVE",
"366 228 CURVE SMOOTH",
"313 290 OFFCURVE",
"287 378 OFFCURVE",
"287 494 CURVE SMOOTH",
"287 549 OFFCURVE",
"293 604 OFFCURVE",
"305 673 CURVE SMOOTH",
"316 738 OFFCURVE",
"333 813 OFFCURVE",
"356 887 CURVE SMOOTH",
"375 948 OFFCURVE",
"397 1006 OFFCURVE",
"425 1062 CURVE SMOOTH",
"450 1112 OFFCURVE",
"478 1156 OFFCURVE",
"508 1192 CURVE SMOOTH",
"551 1244 OFFCURVE",
"606 1288 OFFCURVE",
"662 1315 CURVE SMOOTH",
"716 1341 OFFCURVE",
"780 1356 OFFCURVE",
"846 1356 CURVE SMOOTH",
"900 1356 OFFCURVE",
"951 1346 OFFCURVE",
"999 1325 CURVE SMOOTH",
"1040 1307 OFFCURVE",
"1089 1276 OFFCURVE",
"1135 1231 CURVE",
"1176 1438 LINE",
"1125 1465 OFFCURVE",
"1073 1485 OFFCURVE",
"1020 1499 CURVE SMOOTH",
"967 1513 OFFCURVE",
"915 1520 OFFCURVE",
"854 1520 CURVE SMOOTH",
"748 1520 OFFCURVE",
"652 1499 OFFCURVE",
"566 1458 CURVE SMOOTH",
"476 1415 OFFCURVE",
"394 1349 OFFCURVE",
"328 1267 CURVE SMOOTH",
"293 1223 OFFCURVE",
"258 1171 OFFCURVE",
"225 1105 CURVE SMOOTH",
"194 1042 OFFCURVE",
"165 968 OFFCURVE",
"143 893 CURVE SMOOTH",
"123 825 OFFCURVE",
"105 742 OFFCURVE",
"95 681 CURVE SMOOTH",
"84 613 OFFCURVE",
"78 550 OFFCURVE",
"78 488 CURVE SMOOTH",
"78 328 OFFCURVE",
"119 197 OFFCURVE",
"202 106 CURVE SMOOTH",
"283 18 OFFCURVE",
"402 -29 OFFCURVE",
"564 -29 CURVE SMOOTH",
"642 -29 OFFCURVE",
"711 -18 OFFCURVE",
"779 3 CURVE SMOOTH",
"850 25 OFFCURVE",
"911 55 OFFCURVE",
"969 96 CURVE"
);
},
{
closed = 1;
nodes = (
"508 1901 LINE",
"522 1814 OFFCURVE",
"554 1758 OFFCURVE",
"598 1720 CURVE SMOOTH",
"645 1679 OFFCURVE",
"708 1659 OFFCURVE",
"788 1659 CURVE SMOOTH",
"873 1659 OFFCURVE",
"947 1681 OFFCURVE",
"1009 1724 CURVE SMOOTH",
"1070 1767 OFFCURVE",
"1112 1826 OFFCURVE",
"1134 1901 CURVE",
"1013 1901 LINE",
"995 1862 OFFCURVE",
"967 1832 OFFCURVE",
"933 1814 CURVE SMOOTH",
"897 1795 OFFCURVE",
"849 1786 OFFCURVE",
"795 1786 CURVE SMOOTH",
"741 1786 OFFCURVE",
"704 1795 OFFCURVE",
"678 1813 CURVE SMOOTH",
"651 1831 OFFCURVE",
"633 1860 OFFCURVE",
"622 1901 CURVE"
);
}
);
width = 1233;
}
);
note = "\012\011Gbreve\012  ";
unicode = 011E;
},
{
glyphname = Gcaron;
lastChange = "2015-07-22 00:41:26 +0000";
layers = (
{
layerId = "74927890-37A3-4F23-AAA5-AC99B6EBF53D";
name = "Regular Italic";
paths = (
{
closed = 1;
nodes = (
"870 1635 LINE",
"657 1635 LINE",
"499 1901 LINE",
"635 1901 LINE",
"774 1723 LINE",
"983 1901 LINE",
"1134 1901 LINE"
);
},
{
closed = 1;
nodes = (
"969 96 LINE",
"853 13 OFFCURVE",
"715 -29 OFFCURVE",
"559 -29 CURVE SMOOTH",
"250 -29 OFFCURVE",
"78 157 OFFCURVE",
"78 489 CURVE SMOOTH",
"78 609 OFFCURVE",
"100 745 OFFCURVE",
"143 893 CURVE SMOOTH",
"190 1049 OFFCURVE",
"253 1177 OFFCURVE",
"328 1266 CURVE SMOOTH",
"471 1439 OFFCURVE",
"639 1520 OFFCURVE",
"860 1520 CURVE SMOOTH",
"967 1520 OFFCURVE",
"1073 1491 OFFCURVE",
"1176 1438 CURVE",
"1135 1231 LINE",
"1048 1315 OFFCURVE",
"954 1356 OFFCURVE",
"846 1356 CURVE SMOOTH",
"715 1356 OFFCURVE",
"599 1300 OFFCURVE",
"508 1192 CURVE SMOOTH",
"449 1123 OFFCURVE",
"396 1016 OFFCURVE",
"356 887 CURVE SMOOTH",
"311 735 OFFCURVE",
"287 600 OFFCURVE",
"287 492 CURVE SMOOTH",
"287 264 OFFCURVE",
"397 135 OFFCURVE",
"590 135 CURVE SMOOTH",
"681 135 OFFCURVE",
"754 160 OFFCURVE",
"803 207 CURVE",
"879 600 LINE",
"662 600 LINE",
"692 766 LINE",
"1102 766 LINE"
);
}
);
width = 1233;
}
);
note = Gcaron;
unicode = 01E6;
},
{
glyphname = Gcommaaccent;
lastChange = "2015-07-22 00:31:53 +0000";
layers = (
{
layerId = "74927890-37A3-4F23-AAA5-AC99B6EBF53D";
name = "Regular Italic";
paths = (
{
closed = 1;
nodes = (
"463 -228 LINE",
"702 -228 LINE",
"448 -573 LINE",
"302 -573 LINE"
);
},
{
closed = 1;
nodes = (
"969 96 LINE",
"853 13 OFFCURVE",
"715 -29 OFFCURVE",
"559 -29 CURVE SMOOTH",
"250 -29 OFFCURVE",
"78 157 OFFCURVE",
"78 489 CURVE SMOOTH",
"78 609 OFFCURVE",
"100 745 OFFCURVE",
"143 893 CURVE SMOOTH",
"190 1049 OFFCURVE",
"253 1177 OFFCURVE",
"328 1266 CURVE SMOOTH",
"471 1439 OFFCURVE",
"639 1520 OFFCURVE",
"860 1520 CURVE SMOOTH",
"967 1520 OFFCURVE",
"1073 1491 OFFCURVE",
"1176 1438 CURVE",
"1135 1231 LINE",
"1048 1315 OFFCURVE",
"954 1356 OFFCURVE",
"846 1356 CURVE SMOOTH",
"715 1356 OFFCURVE",
"599 1300 OFFCURVE",
"508 1192 CURVE SMOOTH",
"449 1123 OFFCURVE",
"396 1016 OFFCURVE",
"356 887 CURVE SMOOTH",
"311 735 OFFCURVE",
"287 600 OFFCURVE",
"287 492 CURVE SMOOTH",
"287 264 OFFCURVE",
"397 135 OFFCURVE",
"590 135 CURVE SMOOTH",
"681 135 OFFCURVE",
"754 160 OFFCURVE",
"803 207 CURVE",
"879 600 LINE",
"662 600 LINE",
"692 766 LINE",
"1102 766 LINE"
);
}
);
width = 1233;
}
);
note = Gcommaaccent;
unicode = 0122;
},
{
glyphname = Gdotaccent;
lastChange = "2015-07-22 00:34:56 +0000";
layers = (
{
layerId = "74927890-37A3-4F23-AAA5-AC99B6EBF53D";
name = "Regular Italic";
paths = (
{
closed = 1;
nodes = (
"969 96 LINE",
"853 13 OFFCURVE",
"715 -29 OFFCURVE",
"559 -29 CURVE SMOOTH",
"250 -29 OFFCURVE",
"78 157 OFFCURVE",
"78 489 CURVE SMOOTH",
"78 609 OFFCURVE",
"100 745 OFFCURVE",
"143 893 CURVE SMOOTH",
"190 1049 OFFCURVE",
"253 1177 OFFCURVE",
"328 1266 CURVE SMOOTH",
"471 1439 OFFCURVE",
"639 1520 OFFCURVE",
"860 1520 CURVE SMOOTH",
"967 1520 OFFCURVE",
"1073 1491 OFFCURVE",
"1176 1438 CURVE",
"1135 1231 LINE",
"1048 1315 OFFCURVE",
"954 1356 OFFCURVE",
"846 1356 CURVE SMOOTH",
"715 1356 OFFCURVE",
"599 1300 OFFCURVE",
"508 1192 CURVE SMOOTH",
"449 1123 OFFCURVE",
"396 1016 OFFCURVE",
"356 887 CURVE SMOOTH",
"311 735 OFFCURVE",
"287 600 OFFCURVE",
"287 492 CURVE SMOOTH",
"287 264 OFFCURVE",
"397 135 OFFCURVE",
"590 135 CURVE SMOOTH",
"681 135 OFFCURVE",
"754 160 OFFCURVE",
"803 207 CURVE",
"879 600 LINE",
"662 600 LINE",
"692 766 LINE",
"1102 766 LINE"
);
},
{
closed = 1;
nodes = (
"783 1872 LINE",
"988 1872 LINE",
"948 1667 LINE",
"743 1667 LINE"
);
}
);
width = 1233;
}
);
note = Gdotaccent;
unicode = 0120;
},
{
glyphname = H;
layers = (
{
layerId = "74927890-37A3-4F23-AAA5-AC99B6EBF53D";
name = "Regular Italic";
paths = (
{
closed = 1;
nodes = (
"283 1493 LINE",
"-8 0 LINE",
"195 0 LINE",
"332 711 LINE",
"887 711 LINE",
"748 0 LINE",
"950 0 LINE",
"1241 1493 LINE",
"1038 1493 LINE",
"920 881 LINE",
"367 881 LINE",
"485 1493 LINE"
);
}
);
width = 1233;
}
);
note = "\012\011H\012  ";
unicode = 0048;
},
{
glyphname = Hbar;
lastChange = "2015-07-22 00:34:56 +0000";
layers = (
{
layerId = "74927890-37A3-4F23-AAA5-AC99B6EBF53D";
name = "Regular Italic";
paths = (
{
closed = 1;
nodes = (
"282 1493 LINE",
"484 1493 LINE",
"441 1269 LINE",
"995 1269 LINE",
"1038 1493 LINE",
"1240 1493 LINE",
"1197 1269 LINE",
"1332 1269 LINE",
"1300 1105 LINE",
"1165 1105 LINE",
"950 0 LINE",
"748 0 LINE",
"886 711 LINE",
"332 711 LINE",
"194 0 LINE",
"-8 0 LINE",
"207 1105 LINE",
"73 1105 LINE",
"105 1269 LINE",
"239 1269 LINE"
);
},
{
closed = 1;
nodes = (
"409 1105 LINE",
"365 881 LINE",
"919 881 LINE",
"963 1105 LINE"
);
}
);
width = 1233;
}
);
note = Hbar;
unicode = 0126;
},
{
glyphname = I;
layers = (
{
layerId = "74927890-37A3-4F23-AAA5-AC99B6EBF53D";
name = "Regular Italic";
paths = (
{
closed = 1;
nodes = (
"346 1493 LINE",
"313 1323 LINE",
"627 1323 LINE",
"403 170 LINE",
"90 170 LINE",
"57 0 LINE",
"887 0 LINE",
"920 170 LINE",
"606 170 LINE",
"829 1323 LINE",
"1143 1323 LINE",
"1176 1493 LINE"
);
}
);
width = 1233;
}
);
note = "\012\011I\012  ";
unicode = 0049;
},
{
glyphname = Iacute;
layers = (
{
layerId = "74927890-37A3-4F23-AAA5-AC99B6EBF53D";
name = "Regular Italic";
paths = (
{
closed = 1;
nodes = (
"346 1493 LINE",
"313 1323 LINE",
"627 1323 LINE",
"403 170 LINE",
"90 170 LINE",
"57 0 LINE",
"887 0 LINE",
"920 170 LINE",
"606 170 LINE",
"829 1323 LINE",
"1143 1323 LINE",
"1176 1493 LINE"
);
},
{
closed = 1;
nodes = (
"891 1899 LINE",
"632 1635 LINE",
"792 1635 LINE",
"1099 1899 LINE"
);
}
);
width = 1233;
}
);
note = "\012\011Iacute\012  ";
unicode = 00CD;
},
{
glyphname = Icircumflex;
layers = (
{
layerId = "74927890-37A3-4F23-AAA5-AC99B6EBF53D";
name = "Regular Italic";
paths = (
{
closed = 1;
nodes = (
"346 1493 LINE",
"313 1323 LINE",
"627 1323 LINE",
"403 170 LINE",
"90 170 LINE",
"57 0 LINE",
"887 0 LINE",
"920 170 LINE",
"606 170 LINE",
"829 1323 LINE",
"1143 1323 LINE",
"1176 1493 LINE"
);
},
{
closed = 1;
nodes = (
"710 1901 LINE",
"448 1635 LINE",
"600 1635 LINE",
"809 1813 LINE",
"948 1635 LINE",
"1081 1635 LINE",
"923 1901 LINE"
);
}
);
width = 1233;
}
);
note = "\012\011Icircumflex\012  ";
unicode = 00CE;
},
{
glyphname = Idieresis;
layers = (
{
layerId = "74927890-37A3-4F23-AAA5-AC99B6EBF53D";
name = "Regular Italic";
paths = (
{
closed = 1;
nodes = (
"346 1493 LINE",
"313 1323 LINE",
"627 1323 LINE",
"403 170 LINE",
"90 170 LINE",
"57 0 LINE",
"887 0 LINE",
"920 170 LINE",
"606 170 LINE",
"829 1323 LINE",
"1143 1323 LINE",
"1176 1493 LINE"
);
},
{
closed = 1;
nodes = (
"930 1870 LINE SMOOTH",
"912 1870 OFFCURVE",
"901 1861 OFFCURVE",
"898 1843 CURVE SMOOTH",
"870 1700 LINE SMOOTH",
"866 1680 OFFCURVE",
"877 1667 OFFCURVE",
"897 1667 CURVE SMOOTH",
"1040 1667 LINE SMOOTH",
"1058 1667 OFFCURVE",
"1069 1676 OFFCURVE",
"1072 1694 CURVE SMOOTH",
"1100 1837 LINE SMOOTH",
"1104 1857 OFFCURVE",
"1093 1870 OFFCURVE",
"1073 1870 CURVE SMOOTH"
);
},
{
closed = 1;
nodes = (
"539 1870 LINE SMOOTH",
"521 1870 OFFCURVE",
"510 1861 OFFCURVE",
"507 1843 CURVE SMOOTH",
"479 1700 LINE SMOOTH",
"475 1680 OFFCURVE",
"486 1667 OFFCURVE",
"506 1667 CURVE SMOOTH",
"648 1667 LINE SMOOTH",
"666 1667 OFFCURVE",
"676 1676 OFFCURVE",
"680 1694 CURVE SMOOTH",
"709 1837 LINE SMOOTH",
"713 1857 OFFCURVE",
"704 1870 OFFCURVE",
"683 1870 CURVE SMOOTH"
);
}
);
width = 1233;
}
);
note = "\012\011Idieresis\012  ";
unicode = 00CF;
},
{
glyphname = Idotaccent;
layers = (
{
layerId = "74927890-37A3-4F23-AAA5-AC99B6EBF53D";
name = "Regular Italic";
paths = (
{
closed = 1;
nodes = (
"346 1493 LINE",
"313 1323 LINE",
"627 1323 LINE",
"403 170 LINE",
"90 170 LINE",
"57 0 LINE",
"887 0 LINE",
"920 170 LINE",
"606 170 LINE",
"829 1323 LINE",
"1143 1323 LINE",
"1176 1493 LINE"
);
},
{
closed = 1;
nodes = (
"746 1872 LINE SMOOTH",
"728 1872 OFFCURVE",
"717 1863 OFFCURVE",
"714 1845 CURVE SMOOTH",
"685 1700 LINE SMOOTH",
"681 1680 OFFCURVE",
"690 1667 OFFCURVE",
"711 1667 CURVE SMOOTH",
"855 1667 LINE SMOOTH",
"873 1667 OFFCURVE",
"884 1676 OFFCURVE",
"887 1694 CURVE SMOOTH",
"915 1839 LINE SMOOTH",
"919 1859 OFFCURVE",
"908 1872 OFFCURVE",
"888 1872 CURVE SMOOTH"
);
}
);
width = 1233;
}
);
note = "\012\011Idotaccent\012  ";
unicode = 0130;
},
{
glyphname = Igrave;
layers = (
{
layerId = "74927890-37A3-4F23-AAA5-AC99B6EBF53D";
name = "Regular Italic";
paths = (
{
closed = 1;
nodes = (
"346 1493 LINE",
"313 1323 LINE",
"627 1323 LINE",
"403 170 LINE",
"90 170 LINE",
"57 0 LINE",
"887 0 LINE",
"920 170 LINE",
"606 170 LINE",
"829 1323 LINE",
"1143 1323 LINE",
"1176 1493 LINE"
);
},
{
closed = 1;
nodes = (
"739 1899 LINE",
"557 1899 LINE",
"747 1635 LINE",
"886 1635 LINE"
);
}
);
width = 1233;
}
);
note = "\012\011Igrave\012  ";
unicode = 00CC;
},
{
glyphname = Imacron;
lastChange = "2015-07-22 00:31:53 +0000";
layers = (
{
layerId = "74927890-37A3-4F23-AAA5-AC99B6EBF53D";
name = "Regular Italic";
paths = (
{
closed = 1;
nodes = (
"346 1493 LINE",
"1176 1493 LINE",
"1143 1323 LINE",
"829 1323 LINE",
"606 170 LINE",
"920 170 LINE",
"887 0 LINE",
"57 0 LINE",
"90 170 LINE",
"403 170 LINE",
"627 1323 LINE",
"313 1323 LINE"
);
},
{
closed = 1;
nodes = (
"531 1840 LINE",
"1129 1840 LINE",
"1100 1692 LINE",
"502 1692 LINE"
);
}
);
width = 1233;
}
);
note = Imacron;
unicode = 012A;
},
{
glyphname = Iogonek;
lastChange = "2015-07-22 00:31:53 +0000";
layers = (
{
layerId = "74927890-37A3-4F23-AAA5-AC99B6EBF53D";
name = "Regular Italic";
paths = (
{
closed = 1;
nodes = (
"382 1493 LINE",
"1212 1493 LINE",
"1179 1323 LINE",
"865 1323 LINE",
"642 170 LINE",
"956 170 LINE",
"923 0 LINE",
"93 0 LINE",
"126 170 LINE",
"439 170 LINE",
"663 1323 LINE",
"349 1323 LINE"
);
},
{
closed = 1;
nodes = (
"610 0 LINE",
"529 -77 OFFCURVE",
"485 -146 OFFCURVE",
"485 -197 CURVE SMOOTH",
"485 -246 OFFCURVE",
"517 -272 OFFCURVE",
"577 -272 CURVE SMOOTH",
"621 -272 OFFCURVE",
"665 -262 OFFCURVE",
"708 -242 CURVE",
"683 -375 LINE",
"638 -388 OFFCURVE",
"589 -395 OFFCURVE",
"544 -395 CURVE SMOOTH",
"415 -395 OFFCURVE",
"339 -339 OFFCURVE",
"339 -244 CURVE SMOOTH",
"339 -171 OFFCURVE",
"388 -92 OFFCURVE",
"491 0 CURVE"
);
}
);
width = 1233;
}
);
note = Iogonek;
unicode = 012E;
},
{
glyphname = Itilde;
lastChange = "2015-07-22 00:38:00 +0000";
layers = (
{
layerId = "74927890-37A3-4F23-AAA5-AC99B6EBF53D";
name = "Regular Italic";
paths = (
{
closed = 1;
nodes = (
"762 1735 LINE",
"760 1736 LINE",
"732 1757 OFFCURVE",
"705 1768 OFFCURVE",
"680 1768 CURVE SMOOTH",
"635 1768 OFFCURVE",
"598 1734 OFFCURVE",
"573 1667 CURVE",
"448 1667 LINE",
"495 1812 OFFCURVE",
"579 1886 OFFCURVE",
"692 1886 CURVE SMOOTH",
"737 1886 OFFCURVE",
"776 1872 OFFCURVE",
"823 1839 CURVE SMOOTH",
"858 1813 LINE SMOOTH",
"882 1794 OFFCURVE",
"906 1786 OFFCURVE",
"931 1786 CURVE SMOOTH",
"984 1786 OFFCURVE",
"1023 1825 OFFCURVE",
"1038 1886 CURVE",
"1163 1886 LINE",
"1120 1741 OFFCURVE",
"1036 1667 OFFCURVE",
"913 1667 CURVE SMOOTH",
"872 1667 OFFCURVE",
"837 1681 OFFCURVE",
"796 1710 CURVE SMOOTH"
);
},
{
closed = 1;
nodes = (
"346 1493 LINE",
"1176 1493 LINE",
"1143 1323 LINE",
"829 1323 LINE",
"606 170 LINE",
"920 170 LINE",
"887 0 LINE",
"57 0 LINE",
"90 170 LINE",
"403 170 LINE",
"627 1323 LINE",
"313 1323 LINE"
);
}
);
width = 1233;
}
);
note = Itilde;
unicode = 0128;
},
{
glyphname = J;
layers = (
{
layerId = "74927890-37A3-4F23-AAA5-AC99B6EBF53D";
name = "Regular Italic";
paths = (
{
closed = 1;
nodes = (
"-25 61 LINE",
"41 32 OFFCURVE",
"104 10 OFFCURVE",
"174 -6 CURVE SMOOTH",
"241 -21 OFFCURVE",
"303 -29 OFFCURVE",
"375 -29 CURVE SMOOTH",
"531 -29 OFFCURVE",
"646 8 OFFCURVE",
"729 86 CURVE SMOOTH",
"810 162 OFFCURVE",
"866 287 OFFCURVE",
"905 487 CURVE SMOOTH",
"1102 1493 LINE",
"518 1493 LINE",
"485 1323 LINE",
"866 1323 LINE",
"702 487 LINE SMOOTH",
"673 337 OFFCURVE",
"634 252 OFFCURVE",
"592 208 CURVE SMOOTH",
"545 159 OFFCURVE",
"474 135 OFFCURVE",
"380 135 CURVE SMOOTH",
"303 135 OFFCURVE",
"242 151 OFFCURVE",
"184 177 CURVE SMOOTH",
"124 204 OFFCURVE",
"71 241 OFFCURVE",
"20 297 CURVE"
);
}
);
width = 1233;
}
);
note = "\012\011J\012  ";
unicode = 004A;
},
{
glyphname = K;
layers = (
{
layerId = "74927890-37A3-4F23-AAA5-AC99B6EBF53D";
name = "Regular Italic";
paths = (
{
closed = 1;
nodes = (
"283 1493 LINE",
"-8 0 LINE",
"195 0 LINE",
"307 573 LINE",
"500 741 LINE",
"860 0 LINE",
"1079 0 LINE",
"651 874 LINE",
"1354 1493 LINE",
"1100 1493 LINE",
"358 846 LINE",
"485 1493 LINE"
);
}
);
width = 1233;
}
);
note = "\012\011K\012  ";
unicode = 004B;
},
{
glyphname = Kcommaaccent;
lastChange = "2015-07-22 00:31:53 +0000";
layers = (
{
layerId = "74927890-37A3-4F23-AAA5-AC99B6EBF53D";
name = "Regular Italic";
paths = (
{
closed = 1;
nodes = (
"439 -199 LINE",
"678 -199 LINE",
"424 -544 LINE",
"278 -544 LINE"
);
},
{
closed = 1;
nodes = (
"283 1493 LINE",
"485 1493 LINE",
"358 846 LINE",
"1100 1493 LINE",
"1354 1493 LINE",
"651 874 LINE",
"1079 0 LINE",
"860 0 LINE",
"500 741 LINE",
"307 573 LINE",
"195 0 LINE",
"-8 0 LINE"
);
}
);
width = 1233;
}
);
note = Kcommaaccent;
unicode = 0136;
},
{
glyphname = L;
layers = (
{
layerId = "74927890-37A3-4F23-AAA5-AC99B6EBF53D";
name = "Regular Italic";
paths = (
{
closed = 1;
nodes = (
"369 1493 LINE",
"78 0 LINE",
"1001 0 LINE",
"1034 170 LINE",
"313 170 LINE",
"571 1493 LINE"
);
}
);
width = 1233;
}
);
note = "\012\011L\012  ";
unicode = 004C;
},
{
glyphname = Lacute;
lastChange = "2015-07-22 00:31:53 +0000";
layers = (
{
layerId = "74927890-37A3-4F23-AAA5-AC99B6EBF53D";
name = "Regular Italic";
paths = (
{
closed = 1;
nodes = (
"889 1900 LINE",
"1097 1900 LINE",
"790 1636 LINE",
"630 1636 LINE"
);
},
{
closed = 1;
nodes = (
"369 1493 LINE",
"571 1493 LINE",
"313 170 LINE",
"1034 170 LINE",
"1001 0 LINE",
"78 0 LINE"
);
}
);
width = 1233;
}
);
note = Lacute;
unicode = 0139;
},
{
glyphname = Lcaron;
lastChange = "2015-07-22 00:31:53 +0000";
layers = (
{
layerId = "74927890-37A3-4F23-AAA5-AC99B6EBF53D";
name = "Regular Italic";
paths = (
{
closed = 1;
nodes = (
"887 1492 LINE",
"1106 1492 LINE",
"898 1116 LINE",
"742 1116 LINE"
);
},
{
closed = 1;
nodes = (
"369 1493 LINE",
"571 1493 LINE",
"313 170 LINE",
"1034 170 LINE",
"1001 0 LINE",
"78 0 LINE"
);
}
);
width = 1233;
}
);
note = Lcaron;
unicode = 013D;
},
{
glyphname = Lcommaaccent;
lastChange = "2015-07-22 00:31:53 +0000";
layers = (
{
layerId = "74927890-37A3-4F23-AAA5-AC99B6EBF53D";
name = "Regular Italic";
paths = (
{
closed = 1;
nodes = (
"443 -199 LINE",
"682 -199 LINE",
"428 -544 LINE",
"282 -544 LINE"
);
},
{
closed = 1;
nodes = (
"369 1493 LINE",
"571 1493 LINE",
"313 170 LINE",
"1034 170 LINE",
"1001 0 LINE",
"78 0 LINE"
);
}
);
width = 1233;
}
);
note = Lcommaaccent;
unicode = 013B;
},
{
glyphname = Lslash;
layers = (
{
layerId = "74927890-37A3-4F23-AAA5-AC99B6EBF53D";
name = "Regular Italic";
paths = (
{
closed = 1;
nodes = (
"371 1491 LINE",
"231 739 LINE",
"-29 559 LINE",
"45 459 LINE",
"195 563 LINE",
"82 0 LINE",
"1006 0 LINE",
"1038 168 LINE",
"317 168 LINE",
"430 729 LINE",
"829 1008 LINE",
"756 1108 LINE",
"459 899 LINE",
"573 1491 LINE"
);
}
);
width = 1233;
}
);
note = "\012\011Lslash\012  ";
unicode = 0141;
},
{
glyphname = M;
layers = (
{
layerId = "74927890-37A3-4F23-AAA5-AC99B6EBF53D";
name = "Regular Italic";
paths = (
{
closed = 1;
nodes = (
"229 1493 LINE",
"-59 0 LINE",
"127 0 LINE",
"383 1327 LINE",
"498 532 LINE",
"639 532 LINE",
"1073 1327 LINE",
"815 0 LINE",
"1001 0 LINE",
"1292 1493 LINE",
"1022 1493 LINE",
"608 737 LINE",
"498 1493 LINE"
);
}
);
width = 1233;
}
);
note = "\012\011M\012  ";
unicode = 004D;
},
{
glyphname = N;
layers = (
{
layerId = "74927890-37A3-4F23-AAA5-AC99B6EBF53D";
name = "Regular Italic";
paths = (
{
closed = 1;
nodes = (
"285 1493 LINE",
"-6 0 LINE",
"188 0 LINE",
"428 1229 LINE",
"692 0 LINE",
"948 0 LINE",
"1239 1493 LINE",
"1044 1493 LINE",
"805 264 LINE",
"541 1493 LINE"
);
}
);
width = 1233;
}
);
note = "\012\011N\012  ";
unicode = 004E;
},
{
glyphname = Nacute;
lastChange = "2015-07-22 00:31:53 +0000";
layers = (
{
layerId = "74927890-37A3-4F23-AAA5-AC99B6EBF53D";
name = "Regular Italic";
paths = (
{
closed = 1;
nodes = (
"907 1906 LINE",
"1115 1906 LINE",
"808 1642 LINE",
"648 1642 LINE"
);
},
{
closed = 1;
nodes = (
"285 1493 LINE",
"541 1493 LINE",
"805 264 LINE",
"1044 1493 LINE",
"1239 1493 LINE",
"948 0 LINE",
"692 0 LINE",
"428 1229 LINE",
"188 0 LINE",
"-6 0 LINE"
);
}
);
width = 1233;
}
);
note = Nacute;
unicode = 0143;
},
{
glyphname = Ncaron;
lastChange = "2015-07-22 00:31:53 +0000";
layers = (
{
layerId = "74927890-37A3-4F23-AAA5-AC99B6EBF53D";
name = "Regular Italic";
paths = (
{
closed = 1;
nodes = (
"285 1493 LINE",
"541 1493 LINE",
"805 264 LINE",
"1044 1493 LINE",
"1239 1493 LINE",
"948 0 LINE",
"692 0 LINE",
"428 1229 LINE",
"188 0 LINE",
"-6 0 LINE"
);
},
{
closed = 1;
nodes = (
"945 1635 LINE",
"732 1635 LINE",
"574 1901 LINE",
"710 1901 LINE",
"849 1723 LINE",
"1058 1901 LINE",
"1209 1901 LINE"
);
}
);
width = 1233;
}
);
note = Ncaron;
unicode = 0147;
},
{
glyphname = Ncommaaccent;
lastChange = "2015-07-22 00:31:53 +0000";
layers = (
{
layerId = "74927890-37A3-4F23-AAA5-AC99B6EBF53D";
name = "Regular Italic";
paths = (
{
closed = 1;
nodes = (
"375 -199 LINE",
"614 -199 LINE",
"360 -544 LINE",
"214 -544 LINE"
);
},
{
closed = 1;
nodes = (
"285 1493 LINE",
"541 1493 LINE",
"805 264 LINE",
"1044 1493 LINE",
"1239 1493 LINE",
"948 0 LINE",
"692 0 LINE",
"428 1229 LINE",
"188 0 LINE",
"-6 0 LINE"
);
}
);
width = 1233;
}
);
note = Ncommaaccent;
unicode = 0145;
},
{
glyphname = Eng;
lastChange = "2015-07-22 00:31:53 +0000";
layers = (
{
layerId = "74927890-37A3-4F23-AAA5-AC99B6EBF53D";
name = "Regular Italic";
paths = (
{
closed = 1;
nodes = (
"975 -20 LINE SMOOTH",
"924 -280 OFFCURVE",
"772 -426 OFFCURVE",
"552 -426 CURVE SMOOTH",
"347 -426 LINE",
"377 -270 LINE",
"544 -270 LINE SMOOTH",
"664 -270 OFFCURVE",
"738 -195 OFFCURVE",
"775 0 CURVE SMOOTH",
"972 1009 LINE SMOOTH",
"1019 1249 OFFCURVE",
"964 1358 OFFCURVE",
"799 1358 CURVE SMOOTH",
"611 1358 OFFCURVE",
"477 1208 OFFCURVE",
"425 937 CURVE SMOOTH",
"242 0 LINE",
"40 0 LINE",
"331 1493 LINE",
"533 1493 LINE",
"494 1295 LINE",
"595 1443 OFFCURVE",
"734 1522 OFFCURVE",
"902 1522 CURVE SMOOTH",
"1151 1522 OFFCURVE",
"1241 1348 OFFCURVE",
"1173 999 CURVE SMOOTH"
);
}
);
width = 1233;
}
);
note = Eng;
unicode = 014A;
},
{
glyphname = Ntilde;
layers = (
{
layerId = "74927890-37A3-4F23-AAA5-AC99B6EBF53D";
name = "Regular Italic";
paths = (
{
closed = 1;
nodes = (
"285 1493 LINE",
"-6 0 LINE",
"188 0 LINE",
"428 1229 LINE",
"692 0 LINE",
"948 0 LINE",
"1239 1493 LINE",
"1044 1493 LINE",
"805 264 LINE",
"541 1493 LINE"
);
},
{
closed = 1;
nodes = (
"786 1710 LINE SMOOTH",
"807 1695 OFFCURVE",
"824 1686 OFFCURVE",
"845 1678 CURVE SMOOTH",
"863 1671 OFFCURVE",
"880 1667 OFFCURVE",
"907 1667 CURVE SMOOTH",
"968 1667 OFFCURVE",
"1019 1688 OFFCURVE",
"1058 1722 CURVE SMOOTH",
"1100 1759 OFFCURVE",
"1132 1813 OFFCURVE",
"1153 1886 CURVE",
"1028 1886 LINE",
"1021 1855 OFFCURVE",
"1008 1831 OFFCURVE",
"989 1813 CURVE SMOOTH",
"971 1796 OFFCURVE",
"950 1786 OFFCURVE",
"920 1786 CURVE SMOOTH",
"904 1786 OFFCURVE",
"895 1789 OFFCURVE",
"884 1793 CURVE SMOOTH",
"872 1797 OFFCURVE",
"860 1804 OFFCURVE",
"848 1813 CURVE SMOOTH",
"813 1839 LINE SMOOTH",
"790 1856 OFFCURVE",
"770 1867 OFFCURVE",
"747 1875 CURVE SMOOTH",
"726 1882 OFFCURVE",
"706 1886 OFFCURVE",
"680 1886 CURVE SMOOTH",
"626 1886 OFFCURVE",
"576 1868 OFFCURVE",
"535 1831 CURVE SMOOTH",
"494 1794 OFFCURVE",
"461 1740 OFFCURVE",
"438 1667 CURVE",
"563 1667 LINE",
"576 1700 OFFCURVE",
"591 1726 OFFCURVE",
"609 1743 CURVE SMOOTH",
"627 1760 OFFCURVE",
"647 1768 OFFCURVE",
"669 1768 CURVE SMOOTH",
"695 1768 OFFCURVE",
"722 1757 OFFCURVE",
"750 1736 CURVE",
"752 1735 LINE"
);
}
);
width = 1233;
}
);
note = "\012\011Ntilde\012  ";
unicode = 00D1;
},
{
glyphname = O;
layers = (
{
layerId = "74927890-37A3-4F23-AAA5-AC99B6EBF53D";
name = "Regular Italic";
paths = (
{
closed = 1;
nodes = (
"435 135 OFFCURVE",
"378 155 OFFCURVE",
"340 203 CURVE SMOOTH",
"305 248 OFFCURVE",
"287 311 OFFCURVE",
"287 429 CURVE SMOOTH",
"287 540 OFFCURVE",
"303 675 OFFCURVE",
"333 808 CURVE SMOOTH",
"364 944 OFFCURVE",
"409 1073 OFFCURVE",
"455 1160 CURVE SMOOTH",
"486 1219 OFFCURVE",
"525 1271 OFFCURVE",
"572 1305 CURVE SMOOTH",
"620 1340 OFFCURVE",
"676 1356 OFFCURVE",
"734 1356 CURVE SMOOTH",
"804 1356 OFFCURVE",
"858 1332 OFFCURVE",
"892 1289 CURVE SMOOTH",
"927 1245 OFFCURVE",
"944 1180 OFFCURVE",
"944 1067 CURVE SMOOTH",
"944 960 OFFCURVE",
"929 820 OFFCURVE",
"898 683 CURVE SMOOTH",
"871 563 OFFCURVE",
"829 430 OFFCURVE",
"778 332 CURVE SMOOTH",
"751 280 OFFCURVE",
"715 225 OFFCURVE",
"660 186 CURVE SMOOTH",
"611 151 OFFCURVE",
"555 135 OFFCURVE",
"498 135 CURVE SMOOTH"
);
},
{
closed = 1;
nodes = (
"1151 1192 OFFCURVE",
"1119 1315 OFFCURVE",
"1054 1397 CURVE SMOOTH",
"986 1483 OFFCURVE",
"885 1520 OFFCURVE",
"753 1520 CURVE SMOOTH",
"657 1520 OFFCURVE",
"572 1500 OFFCURVE",
"501 1460 CURVE SMOOTH",
"423 1417 OFFCURVE",
"352 1346 OFFCURVE",
"303 1272 CURVE SMOOTH",
"283 1242 OFFCURVE",
"256 1195 OFFCURVE",
"231 1141 CURVE SMOOTH",
"208 1091 OFFCURVE",
"189 1041 OFFCURVE",
"168 975 CURVE SMOOTH",
"136 875 OFFCURVE",
"118 794 OFFCURVE",
"104 712 CURVE SMOOTH",
"90 629 OFFCURVE",
"82 558 OFFCURVE",
"82 473 CURVE SMOOTH",
"82 302 OFFCURVE",
"114 176 OFFCURVE",
"179 94 CURVE SMOOTH",
"244 12 OFFCURVE",
"342 -29 OFFCURVE",
"478 -29 CURVE SMOOTH",
"573 -29 OFFCURVE",
"658 -9 OFFCURVE",
"731 32 CURVE SMOOTH",
"806 74 OFFCURVE",
"876 141 OFFCURVE",
"928 219 CURVE SMOOTH",
"956 261 OFFCURVE",
"983 312 OFFCURVE",
"1001 351 CURVE SMOOTH",
"1024 402 OFFCURVE",
"1042 450 OFFCURVE",
"1063 516 CURVE SMOOTH",
"1092 607 OFFCURVE",
"1114 695 OFFCURVE",
"1129 781 CURVE SMOOTH",
"1144 867 OFFCURVE",
"1151 945 OFFCURVE",
"1151 1024 CURVE SMOOTH"
);
}
);
width = 1233;
}
);
note = "\012\011O\012  ";
unicode = 004F;
},
{
glyphname = Oacute;
layers = (
{
layerId = "74927890-37A3-4F23-AAA5-AC99B6EBF53D";
name = "Regular Italic";
paths = (
{
closed = 1;
nodes = (
"435 135 OFFCURVE",
"378 155 OFFCURVE",
"340 203 CURVE SMOOTH",
"305 248 OFFCURVE",
"287 311 OFFCURVE",
"287 429 CURVE SMOOTH",
"287 540 OFFCURVE",
"303 675 OFFCURVE",
"333 808 CURVE SMOOTH",
"364 944 OFFCURVE",
"409 1073 OFFCURVE",
"455 1160 CURVE SMOOTH",
"486 1219 OFFCURVE",
"525 1271 OFFCURVE",
"572 1305 CURVE SMOOTH",
"620 1340 OFFCURVE",
"676 1356 OFFCURVE",
"734 1356 CURVE SMOOTH",
"804 1356 OFFCURVE",
"858 1332 OFFCURVE",
"892 1289 CURVE SMOOTH",
"927 1245 OFFCURVE",
"944 1180 OFFCURVE",
"944 1067 CURVE SMOOTH",
"944 960 OFFCURVE",
"929 820 OFFCURVE",
"898 683 CURVE SMOOTH",
"871 563 OFFCURVE",
"829 430 OFFCURVE",
"778 332 CURVE SMOOTH",
"751 280 OFFCURVE",
"715 225 OFFCURVE",
"660 186 CURVE SMOOTH",
"611 151 OFFCURVE",
"555 135 OFFCURVE",
"498 135 CURVE SMOOTH"
);
},
{
closed = 1;
nodes = (
"1151 1192 OFFCURVE",
"1119 1315 OFFCURVE",
"1054 1397 CURVE SMOOTH",
"986 1483 OFFCURVE",
"885 1520 OFFCURVE",
"753 1520 CURVE SMOOTH",
"657 1520 OFFCURVE",
"572 1500 OFFCURVE",
"501 1460 CURVE SMOOTH",
"423 1417 OFFCURVE",
"352 1346 OFFCURVE",
"303 1272 CURVE SMOOTH",
"283 1242 OFFCURVE",
"256 1195 OFFCURVE",
"231 1141 CURVE SMOOTH",
"208 1091 OFFCURVE",
"189 1041 OFFCURVE",
"168 975 CURVE SMOOTH",
"136 875 OFFCURVE",
"118 794 OFFCURVE",
"104 712 CURVE SMOOTH",
"90 629 OFFCURVE",
"82 558 OFFCURVE",
"82 473 CURVE SMOOTH",
"82 302 OFFCURVE",
"114 176 OFFCURVE",
"179 94 CURVE SMOOTH",
"244 12 OFFCURVE",
"342 -29 OFFCURVE",
"478 -29 CURVE SMOOTH",
"573 -29 OFFCURVE",
"658 -9 OFFCURVE",
"731 32 CURVE SMOOTH",
"806 74 OFFCURVE",
"876 141 OFFCURVE",
"928 219 CURVE SMOOTH",
"956 261 OFFCURVE",
"983 312 OFFCURVE",
"1001 351 CURVE SMOOTH",
"1024 402 OFFCURVE",
"1042 450 OFFCURVE",
"1063 516 CURVE SMOOTH",
"1092 607 OFFCURVE",
"1114 695 OFFCURVE",
"1129 781 CURVE SMOOTH",
"1144 867 OFFCURVE",
"1151 945 OFFCURVE",
"1151 1024 CURVE SMOOTH"
);
},
{
closed = 1;
nodes = (
"877 1899 LINE",
"618 1635 LINE",
"778 1635 LINE",
"1085 1899 LINE"
);
}
);
width = 1233;
}
);
note = "\012\011Oacute\012  ";
unicode = 00D3;
},
{
glyphname = Ocircumflex;
layers = (
{
layerId = "74927890-37A3-4F23-AAA5-AC99B6EBF53D";
name = "Regular Italic";
paths = (
{
closed = 1;
nodes = (
"435 135 OFFCURVE",
"378 155 OFFCURVE",
"340 203 CURVE SMOOTH",
"305 248 OFFCURVE",
"287 311 OFFCURVE",
"287 429 CURVE SMOOTH",
"287 540 OFFCURVE",
"303 675 OFFCURVE",
"333 808 CURVE SMOOTH",
"364 944 OFFCURVE",
"409 1073 OFFCURVE",
"455 1160 CURVE SMOOTH",
"486 1219 OFFCURVE",
"525 1271 OFFCURVE",
"572 1305 CURVE SMOOTH",
"620 1340 OFFCURVE",
"676 1356 OFFCURVE",
"734 1356 CURVE SMOOTH",
"804 1356 OFFCURVE",
"858 1332 OFFCURVE",
"892 1289 CURVE SMOOTH",
"927 1245 OFFCURVE",
"944 1180 OFFCURVE",
"944 1067 CURVE SMOOTH",
"944 960 OFFCURVE",
"929 820 OFFCURVE",
"898 683 CURVE SMOOTH",
"871 563 OFFCURVE",
"829 430 OFFCURVE",
"778 332 CURVE SMOOTH",
"751 280 OFFCURVE",
"715 225 OFFCURVE",
"660 186 CURVE SMOOTH",
"611 151 OFFCURVE",
"555 135 OFFCURVE",
"498 135 CURVE SMOOTH"
);
},
{
closed = 1;
nodes = (
"1151 1192 OFFCURVE",
"1119 1315 OFFCURVE",
"1054 1397 CURVE SMOOTH",
"986 1483 OFFCURVE",
"885 1520 OFFCURVE",
"753 1520 CURVE SMOOTH",
"657 1520 OFFCURVE",
"572 1500 OFFCURVE",
"501 1460 CURVE SMOOTH",
"423 1417 OFFCURVE",
"352 1346 OFFCURVE",
"303 1272 CURVE SMOOTH",
"283 1242 OFFCURVE",
"256 1195 OFFCURVE",
"231 1141 CURVE SMOOTH",
"208 1091 OFFCURVE",
"189 1041 OFFCURVE",
"168 975 CURVE SMOOTH",
"136 875 OFFCURVE",
"118 794 OFFCURVE",
"104 712 CURVE SMOOTH",
"90 629 OFFCURVE",
"82 558 OFFCURVE",
"82 473 CURVE SMOOTH",
"82 302 OFFCURVE",
"114 176 OFFCURVE",
"179 94 CURVE SMOOTH",
"244 12 OFFCURVE",
"342 -29 OFFCURVE",
"478 -29 CURVE SMOOTH",
"573 -29 OFFCURVE",
"658 -9 OFFCURVE",
"731 32 CURVE SMOOTH",
"806 74 OFFCURVE",
"876 141 OFFCURVE",
"928 219 CURVE SMOOTH",
"956 261 OFFCURVE",
"983 312 OFFCURVE",
"1001 351 CURVE SMOOTH",
"1024 402 OFFCURVE",
"1042 450 OFFCURVE",
"1063 516 CURVE SMOOTH",
"1092 607 OFFCURVE",
"1114 695 OFFCURVE",
"1129 781 CURVE SMOOTH",
"1144 867 OFFCURVE",
"1151 945 OFFCURVE",
"1151 1024 CURVE SMOOTH"
);
},
{
closed = 1;
nodes = (
"696 1901 LINE",
"434 1635 LINE",
"586 1635 LINE",
"795 1813 LINE",
"934 1635 LINE",
"1067 1635 LINE",
"909 1901 LINE"
);
}
);
width = 1233;
}
);
note = "\012\011Ocircumflex\012  ";
unicode = 00D4;
},
{
glyphname = Odieresis;
layers = (
{
layerId = "74927890-37A3-4F23-AAA5-AC99B6EBF53D";
name = "Regular Italic";
paths = (
{
closed = 1;
nodes = (
"435 135 OFFCURVE",
"378 155 OFFCURVE",
"340 203 CURVE SMOOTH",
"305 248 OFFCURVE",
"287 311 OFFCURVE",
"287 429 CURVE SMOOTH",
"287 540 OFFCURVE",
"303 675 OFFCURVE",
"333 808 CURVE SMOOTH",
"364 944 OFFCURVE",
"409 1073 OFFCURVE",
"455 1160 CURVE SMOOTH",
"486 1219 OFFCURVE",
"525 1271 OFFCURVE",
"572 1305 CURVE SMOOTH",
"620 1340 OFFCURVE",
"676 1356 OFFCURVE",
"734 1356 CURVE SMOOTH",
"804 1356 OFFCURVE",
"858 1332 OFFCURVE",
"892 1289 CURVE SMOOTH",
"927 1245 OFFCURVE",
"944 1180 OFFCURVE",
"944 1067 CURVE SMOOTH",
"944 960 OFFCURVE",
"929 820 OFFCURVE",
"898 683 CURVE SMOOTH",
"871 563 OFFCURVE",
"829 430 OFFCURVE",
"778 332 CURVE SMOOTH",
"751 280 OFFCURVE",
"715 225 OFFCURVE",
"660 186 CURVE SMOOTH",
"611 151 OFFCURVE",
"555 135 OFFCURVE",
"498 135 CURVE SMOOTH"
);
},
{
closed = 1;
nodes = (
"1151 1192 OFFCURVE",
"1119 1315 OFFCURVE",
"1054 1397 CURVE SMOOTH",
"986 1483 OFFCURVE",
"885 1520 OFFCURVE",
"753 1520 CURVE SMOOTH",
"657 1520 OFFCURVE",
"572 1500 OFFCURVE",
"501 1460 CURVE SMOOTH",
"423 1417 OFFCURVE",
"352 1346 OFFCURVE",
"303 1272 CURVE SMOOTH",
"283 1242 OFFCURVE",
"256 1195 OFFCURVE",
"231 1141 CURVE SMOOTH",
"208 1091 OFFCURVE",
"189 1041 OFFCURVE",
"168 975 CURVE SMOOTH",
"136 875 OFFCURVE",
"118 794 OFFCURVE",
"104 712 CURVE SMOOTH",
"90 629 OFFCURVE",
"82 558 OFFCURVE",
"82 473 CURVE SMOOTH",
"82 302 OFFCURVE",
"114 176 OFFCURVE",
"179 94 CURVE SMOOTH",
"244 12 OFFCURVE",
"342 -29 OFFCURVE",
"478 -29 CURVE SMOOTH",
"573 -29 OFFCURVE",
"658 -9 OFFCURVE",
"731 32 CURVE SMOOTH",
"806 74 OFFCURVE",
"876 141 OFFCURVE",
"928 219 CURVE SMOOTH",
"956 261 OFFCURVE",
"983 312 OFFCURVE",
"1001 351 CURVE SMOOTH",
"1024 402 OFFCURVE",
"1042 450 OFFCURVE",
"1063 516 CURVE SMOOTH",
"1092 607 OFFCURVE",
"1114 695 OFFCURVE",
"1129 781 CURVE SMOOTH",
"1144 867 OFFCURVE",
"1151 945 OFFCURVE",
"1151 1024 CURVE SMOOTH"
);
},
{
closed = 1;
nodes = (
"916 1870 LINE SMOOTH",
"898 1870 OFFCURVE",
"887 1861 OFFCURVE",
"884 1843 CURVE SMOOTH",
"856 1700 LINE SMOOTH",
"852 1680 OFFCURVE",
"863 1667 OFFCURVE",
"883 1667 CURVE SMOOTH",
"1026 1667 LINE SMOOTH",
"1044 1667 OFFCURVE",
"1055 1676 OFFCURVE",
"1058 1694 CURVE SMOOTH",
"1086 1837 LINE SMOOTH",
"1090 1857 OFFCURVE",
"1079 1870 OFFCURVE",
"1059 1870 CURVE SMOOTH"
);
},
{
closed = 1;
nodes = (
"525 1870 LINE SMOOTH",
"507 1870 OFFCURVE",
"496 1861 OFFCURVE",
"493 1843 CURVE SMOOTH",
"465 1700 LINE SMOOTH",
"461 1680 OFFCURVE",
"472 1667 OFFCURVE",
"492 1667 CURVE SMOOTH",
"634 1667 LINE SMOOTH",
"652 1667 OFFCURVE",
"662 1676 OFFCURVE",
"666 1694 CURVE SMOOTH",
"695 1837 LINE SMOOTH",
"699 1857 OFFCURVE",
"690 1870 OFFCURVE",
"669 1870 CURVE SMOOTH"
);
}
);
width = 1233;
}
);
note = "\012\011Odieresis\012  ";
unicode = 00D6;
},
{
glyphname = Ograve;
layers = (
{
layerId = "74927890-37A3-4F23-AAA5-AC99B6EBF53D";
name = "Regular Italic";
paths = (
{
closed = 1;
nodes = (
"435 135 OFFCURVE",
"378 155 OFFCURVE",
"340 203 CURVE SMOOTH",
"305 248 OFFCURVE",
"287 311 OFFCURVE",
"287 429 CURVE SMOOTH",
"287 540 OFFCURVE",
"303 675 OFFCURVE",
"333 808 CURVE SMOOTH",
"364 944 OFFCURVE",
"409 1073 OFFCURVE",
"455 1160 CURVE SMOOTH",
"486 1219 OFFCURVE",
"525 1271 OFFCURVE",
"572 1305 CURVE SMOOTH",
"620 1340 OFFCURVE",
"676 1356 OFFCURVE",
"734 1356 CURVE SMOOTH",
"804 1356 OFFCURVE",
"858 1332 OFFCURVE",
"892 1289 CURVE SMOOTH",
"927 1245 OFFCURVE",
"944 1180 OFFCURVE",
"944 1067 CURVE SMOOTH",
"944 960 OFFCURVE",
"929 820 OFFCURVE",
"898 683 CURVE SMOOTH",
"871 563 OFFCURVE",
"829 430 OFFCURVE",
"778 332 CURVE SMOOTH",
"751 280 OFFCURVE",
"715 225 OFFCURVE",
"660 186 CURVE SMOOTH",
"611 151 OFFCURVE",
"555 135 OFFCURVE",
"498 135 CURVE SMOOTH"
);
},
{
closed = 1;
nodes = (
"1151 1192 OFFCURVE",
"1119 1315 OFFCURVE",
"1054 1397 CURVE SMOOTH",
"986 1483 OFFCURVE",
"885 1520 OFFCURVE",
"753 1520 CURVE SMOOTH",
"657 1520 OFFCURVE",
"572 1500 OFFCURVE",
"501 1460 CURVE SMOOTH",
"423 1417 OFFCURVE",
"352 1346 OFFCURVE",
"303 1272 CURVE SMOOTH",
"283 1242 OFFCURVE",
"256 1195 OFFCURVE",
"231 1141 CURVE SMOOTH",
"208 1091 OFFCURVE",
"189 1041 OFFCURVE",
"168 975 CURVE SMOOTH",
"136 875 OFFCURVE",
"118 794 OFFCURVE",
"104 712 CURVE SMOOTH",
"90 629 OFFCURVE",
"82 558 OFFCURVE",
"82 473 CURVE SMOOTH",
"82 302 OFFCURVE",
"114 176 OFFCURVE",
"179 94 CURVE SMOOTH",
"244 12 OFFCURVE",
"342 -29 OFFCURVE",
"478 -29 CURVE SMOOTH",
"573 -29 OFFCURVE",
"658 -9 OFFCURVE",
"731 32 CURVE SMOOTH",
"806 74 OFFCURVE",
"876 141 OFFCURVE",
"928 219 CURVE SMOOTH",
"956 261 OFFCURVE",
"983 312 OFFCURVE",
"1001 351 CURVE SMOOTH",
"1024 402 OFFCURVE",
"1042 450 OFFCURVE",
"1063 516 CURVE SMOOTH",
"1092 607 OFFCURVE",
"1114 695 OFFCURVE",
"1129 781 CURVE SMOOTH",
"1144 867 OFFCURVE",
"1151 945 OFFCURVE",
"1151 1024 CURVE SMOOTH"
);
},
{
closed = 1;
nodes = (
"725 1899 LINE",
"543 1899 LINE",
"733 1635 LINE",
"872 1635 LINE"
);
}
);
width = 1233;
}
);
note = "\012\011Ograve\012  ";
unicode = 00D2;
},
{
glyphname = Ohorn;
lastChange = "2015-07-22 00:38:00 +0000";
layers = (
{
layerId = "74927890-37A3-4F23-AAA5-AC99B6EBF53D";
name = "Regular Italic";
paths = (
{
closed = 1;
nodes = (
"492 135 OFFCURVE",
"592 205 OFFCURVE",
"655 332 CURVE SMOOTH",
"754 525 OFFCURVE",
"821 826 OFFCURVE",
"821 1079 CURVE SMOOTH",
"821 1268 OFFCURVE",
"753 1356 OFFCURVE",
"606 1356 CURVE SMOOTH",
"493 1356 OFFCURVE",
"395 1286 OFFCURVE",
"332 1159 CURVE SMOOTH",
"231 963 OFFCURVE",
"164 667 OFFCURVE",
"164 414 CURVE SMOOTH",
"164 223 OFFCURVE",
"232 135 OFFCURVE",
"379 135 CURVE SMOOTH"
);
},
{
closed = 1;
nodes = (
"1028 873 OFFCURVE",
"997 697 OFFCURVE",
"940 516 CURVE SMOOTH",
"901 393 OFFCURVE",
"857 298 OFFCURVE",
"805 219 CURVE SMOOTH",
"688 50 OFFCURVE",
"547 -29 OFFCURVE",
"354 -29 CURVE SMOOTH",
"86 -29 OFFCURVE",
"-41 132 OFFCURVE",
"-41 473 CURVE SMOOTH",
"-41 621 OFFCURVE",
"-12 794 OFFCURVE",
"45 975 CURVE SMOOTH",
"84 1098 OFFCURVE",
"128 1193 OFFCURVE",
"180 1272 CURVE SMOOTH",
"297 1441 OFFCURVE",
"438 1520 OFFCURVE",
"631 1520 CURVE SMOOTH",
"900 1520 OFFCURVE",
"1028 1360 OFFCURVE",
"1028 1020 CURVE SMOOTH"
);
},
{
closed = 1;
nodes = (
"894 1411 LINE",
"963 1351 OFFCURVE",
"1016 1323 OFFCURVE",
"1057 1323 CURVE SMOOTH",
"1118 1323 OFFCURVE",
"1155 1360 OFFCURVE",
"1170 1432 CURVE SMOOTH",
"1178 1475 OFFCURVE",
"1176 1516 OFFCURVE",
"1164 1557 CURVE",
"1297 1557 LINE",
"1301 1506 OFFCURVE",
"1299 1461 OFFCURVE",
"1291 1421 CURVE SMOOTH",
"1259 1258 OFFCURVE",
"1189 1184 OFFCURVE",
"1065 1184 CURVE SMOOTH",
"1001 1184 OFFCURVE",
"939 1219 OFFCURVE",
"871 1292 CURVE"
);
}
);
width = 1233;
}
);
note = Ohorn;
unicode = 01A0;
},
{
glyphname = Ohungarumlaut;
lastChange = "2015-07-22 00:31:53 +0000";
layers = (
{
layerId = "74927890-37A3-4F23-AAA5-AC99B6EBF53D";
name = "Regular Italic";
paths = (
{
closed = 1;
nodes = (
"615 135 OFFCURVE",
"715 205 OFFCURVE",
"778 332 CURVE SMOOTH",
"877 525 OFFCURVE",
"944 826 OFFCURVE",
"944 1079 CURVE SMOOTH",
"944 1268 OFFCURVE",
"876 1356 OFFCURVE",
"729 1356 CURVE SMOOTH",
"616 1356 OFFCURVE",
"518 1286 OFFCURVE",
"455 1159 CURVE SMOOTH",
"354 963 OFFCURVE",
"287 667 OFFCURVE",
"287 414 CURVE SMOOTH",
"287 223 OFFCURVE",
"355 135 OFFCURVE",
"502 135 CURVE SMOOTH"
);
},
{
closed = 1;
nodes = (
"1151 873 OFFCURVE",
"1120 697 OFFCURVE",
"1063 516 CURVE SMOOTH",
"1024 393 OFFCURVE",
"980 298 OFFCURVE",
"928 219 CURVE SMOOTH",
"811 50 OFFCURVE",
"670 -29 OFFCURVE",
"477 -29 CURVE SMOOTH",
"209 -29 OFFCURVE",
"82 132 OFFCURVE",
"82 473 CURVE SMOOTH",
"82 621 OFFCURVE",
"111 794 OFFCURVE",
"168 975 CURVE SMOOTH",
"207 1098 OFFCURVE",
"251 1193 OFFCURVE",
"303 1272 CURVE SMOOTH",
"420 1441 OFFCURVE",
"561 1520 OFFCURVE",
"754 1520 CURVE SMOOTH",
"1023 1520 OFFCURVE",
"1151 1360 OFFCURVE",
"1151 1020 CURVE SMOOTH"
);
},
{
closed = 1;
nodes = (
"1085 1899 LINE",
"1271 1899 LINE",
"991 1635 LINE",
"837 1635 LINE"
);
},
{
closed = 1;
nodes = (
"766 1899 LINE",
"952 1899 LINE",
"672 1635 LINE",
"518 1635 LINE"
);
}
);
width = 1233;
}
);
note = Ohungarumlaut;
unicode = 0150;
},
{
glyphname = Omacron;
lastChange = "2015-07-22 00:31:53 +0000";
layers = (
{
layerId = "74927890-37A3-4F23-AAA5-AC99B6EBF53D";
name = "Regular Italic";
paths = (
{
closed = 1;
nodes = (
"615 135 OFFCURVE",
"715 205 OFFCURVE",
"778 332 CURVE SMOOTH",
"877 525 OFFCURVE",
"944 826 OFFCURVE",
"944 1079 CURVE SMOOTH",
"944 1268 OFFCURVE",
"876 1356 OFFCURVE",
"729 1356 CURVE SMOOTH",
"616 1356 OFFCURVE",
"518 1286 OFFCURVE",
"455 1159 CURVE SMOOTH",
"354 963 OFFCURVE",
"287 667 OFFCURVE",
"287 414 CURVE SMOOTH",
"287 223 OFFCURVE",
"355 135 OFFCURVE",
"502 135 CURVE SMOOTH"
);
},
{
closed = 1;
nodes = (
"1151 873 OFFCURVE",
"1120 697 OFFCURVE",
"1063 516 CURVE SMOOTH",
"1024 393 OFFCURVE",
"980 298 OFFCURVE",
"928 219 CURVE SMOOTH",
"811 50 OFFCURVE",
"670 -29 OFFCURVE",
"477 -29 CURVE SMOOTH",
"209 -29 OFFCURVE",
"82 132 OFFCURVE",
"82 473 CURVE SMOOTH",
"82 621 OFFCURVE",
"111 794 OFFCURVE",
"168 975 CURVE SMOOTH",
"207 1098 OFFCURVE",
"251 1193 OFFCURVE",
"303 1272 CURVE SMOOTH",
"420 1441 OFFCURVE",
"561 1520 OFFCURVE",
"754 1520 CURVE SMOOTH",
"1023 1520 OFFCURVE",
"1151 1360 OFFCURVE",
"1151 1020 CURVE SMOOTH"
);
},
{
closed = 1;
nodes = (
"531 1840 LINE",
"1129 1840 LINE",
"1100 1692 LINE",
"502 1692 LINE"
);
}
);
width = 1233;
}
);
note = Omacron;
unicode = 014C;
},
{
glyphname = Oslash;
layers = (
{
layerId = "74927890-37A3-4F23-AAA5-AC99B6EBF53D";
name = "Regular Italic";
paths = (
{
closed = 1;
nodes = (
"938 1116 LINE",
"939 1105 OFFCURVE",
"940 1086 OFFCURVE",
"940 1082 CURVE SMOOTH",
"940 1070 OFFCURVE",
"940 1055 OFFCURVE",
"940 1036 CURVE SMOOTH",
"940 954 OFFCURVE",
"931 864 OFFCURVE",
"913 766 CURVE SMOOTH",
"895 669 OFFCURVE",
"867 561 OFFCURVE",
"836 473 CURVE SMOOTH",
"793 350 OFFCURVE",
"743 266 OFFCURVE",
"695 217 CURVE SMOOTH",
"641 162 OFFCURVE",
"578 135 OFFCURVE",
"501 135 CURVE SMOOTH",
"459 135 OFFCURVE",
"420 143 OFFCURVE",
"389 160 CURVE SMOOTH",
"358 177 OFFCURVE",
"335 200 OFFCURVE",
"322 229 CURVE"
);
},
{
closed = 1;
nodes = (
"291 389 LINE",
"290 397 OFFCURVE",
"291 392 OFFCURVE",
"289 419 CURVE SMOOTH",
"288 435 OFFCURVE",
"287 454 OFFCURVE",
"287 457 CURVE SMOOTH",
"287 529 OFFCURVE",
"298 624 OFFCURVE",
"316 718 CURVE SMOOTH",
"335 817 OFFCURVE",
"365 931 OFFCURVE",
"395 1018 CURVE SMOOTH",
"435 1134 OFFCURVE",
"482 1219 OFFCURVE",
"536 1274 CURVE SMOOTH",
"592 1331 OFFCURVE",
"656 1356 OFFCURVE",
"727 1356 CURVE SMOOTH",
"767 1356 OFFCURVE",
"804 1348 OFFCURVE",
"831 1335 CURVE SMOOTH",
"860 1321 OFFCURVE",
"888 1298 OFFCURVE",
"905 1274 CURVE"
);
},
{
closed = 1;
nodes = (
"1200 1495 LINE",
"1100 1559 LINE",
"1016 1434 LINE",
"980 1463 OFFCURVE",
"936 1486 OFFCURVE",
"897 1499 CURVE SMOOTH",
"855 1513 OFFCURVE",
"804 1520 OFFCURVE",
"750 1520 CURVE SMOOTH",
"650 1520 OFFCURVE",
"558 1496 OFFCURVE",
"476 1445 CURVE SMOOTH",
"387 1390 OFFCURVE",
"322 1310 OFFCURVE",
"269 1217 CURVE SMOOTH",
"208 1110 OFFCURVE",
"164 989 OFFCURVE",
"132 859 CURVE SMOOTH",
"97 717 OFFCURVE",
"80 578 OFFCURVE",
"80 452 CURVE SMOOTH",
"80 391 OFFCURVE",
"84 340 OFFCURVE",
"93 293 CURVE SMOOTH",
"102 247 OFFCURVE",
"114 205 OFFCURVE",
"133 164 CURVE",
"14 -6 LINE",
"113 -70 LINE",
"207 63 LINE",
"246 29 OFFCURVE",
"290 7 OFFCURVE",
"329 -6 CURVE SMOOTH",
"374 -21 OFFCURVE",
"422 -29 OFFCURVE",
"480 -29 CURVE SMOOTH",
"579 -29 OFFCURVE",
"670 -6 OFFCURVE",
"755 47 CURVE SMOOTH",
"834 96 OFFCURVE",
"900 167 OFFCURVE",
"962 276 CURVE SMOOTH",
"1016 371 OFFCURVE",
"1062 485 OFFCURVE",
"1099 635 CURVE SMOOTH",
"1134 776 OFFCURVE",
"1151 913 OFFCURVE",
"1151 1038 CURVE SMOOTH",
"1151 1106 OFFCURVE",
"1146 1157 OFFCURVE",
"1137 1205 CURVE SMOOTH",
"1128 1252 OFFCURVE",
"1115 1292 OFFCURVE",
"1094 1337 CURVE"
);
}
);
width = 1233;
}
);
note = "\012\011Oslash\012  ";
unicode = 00D8;
},
{
glyphname = Oslashacute;
lastChange = "2015-07-22 00:41:26 +0000";
layers = (
{
layerId = "74927890-37A3-4F23-AAA5-AC99B6EBF53D";
name = "Regular Italic";
paths = (
{
closed = 1;
nodes = (
"877 1899 LINE",
"1085 1899 LINE",
"778 1635 LINE",
"618 1635 LINE"
);
},
{
closed = 1;
nodes = (
"322 229 LINE",
"349 170 OFFCURVE",
"414 135 OFFCURVE",
"502 135 CURVE SMOOTH",
"651 135 OFFCURVE",
"755 241 OFFCURVE",
"836 473 CURVE SMOOTH",
"903 666 OFFCURVE",
"940 872 OFFCURVE",
"940 1036 CURVE SMOOTH",
"940 1073 OFFCURVE",
"939 1093 OFFCURVE",
"938 1116 CURVE"
);
},
{
closed = 1;
nodes = (
"905 1274 LINE",
"866 1326 OFFCURVE",
"804 1356 OFFCURVE",
"729 1356 CURVE SMOOTH",
"578 1356 OFFCURVE",
"475 1250 OFFCURVE",
"395 1018 CURVE SMOOTH",
"328 821 OFFCURVE",
"287 601 OFFCURVE",
"287 457 CURVE SMOOTH",
"287 444 OFFCURVE",
"290 405 OFFCURVE",
"291 389 CURVE"
);
},
{
closed = 1;
nodes = (
"1094 1337 LINE",
"1133 1257 OFFCURVE",
"1151 1163 OFFCURVE",
"1151 1042 CURVE SMOOTH",
"1151 781 OFFCURVE",
"1074 473 OFFCURVE",
"963 276 CURVE SMOOTH",
"846 71 OFFCURVE",
"688 -29 OFFCURVE",
"477 -29 CURVE SMOOTH",
"369 -29 OFFCURVE",
"279 2 OFFCURVE",
"207 63 CURVE",
"113 -70 LINE",
"14 -6 LINE",
"133 164 LINE",
"97 241 OFFCURVE",
"80 334 OFFCURVE",
"80 449 CURVE SMOOTH",
"80 713 OFFCURVE",
"156 1018 OFFCURVE",
"268 1217 CURVE SMOOTH",
"385 1421 OFFCURVE",
"542 1520 OFFCURVE",
"754 1520 CURVE SMOOTH",
"857 1520 OFFCURVE",
"944 1491 OFFCURVE",
"1016 1434 CURVE",
"1100 1559 LINE",
"1200 1495 LINE"
);
}
);
width = 1233;
}
);
note = Oslashacute;
unicode = 01FE;
},
{
glyphname = Otilde;
layers = (
{
layerId = "74927890-37A3-4F23-AAA5-AC99B6EBF53D";
name = "Regular Italic";
paths = (
{
closed = 1;
nodes = (
"435 135 OFFCURVE",
"378 155 OFFCURVE",
"340 203 CURVE SMOOTH",
"305 248 OFFCURVE",
"287 311 OFFCURVE",
"287 429 CURVE SMOOTH",
"287 540 OFFCURVE",
"303 675 OFFCURVE",
"333 808 CURVE SMOOTH",
"364 944 OFFCURVE",
"409 1073 OFFCURVE",
"455 1160 CURVE SMOOTH",
"486 1219 OFFCURVE",
"525 1271 OFFCURVE",
"572 1305 CURVE SMOOTH",
"620 1340 OFFCURVE",
"676 1356 OFFCURVE",
"734 1356 CURVE SMOOTH",
"804 1356 OFFCURVE",
"858 1332 OFFCURVE",
"892 1289 CURVE SMOOTH",
"927 1245 OFFCURVE",
"944 1180 OFFCURVE",
"944 1067 CURVE SMOOTH",
"944 960 OFFCURVE",
"929 820 OFFCURVE",
"898 683 CURVE SMOOTH",
"871 563 OFFCURVE",
"829 430 OFFCURVE",
"778 332 CURVE SMOOTH",
"751 280 OFFCURVE",
"715 225 OFFCURVE",
"660 186 CURVE SMOOTH",
"611 151 OFFCURVE",
"555 135 OFFCURVE",
"498 135 CURVE SMOOTH"
);
},
{
closed = 1;
nodes = (
"1151 1192 OFFCURVE",
"1119 1315 OFFCURVE",
"1054 1397 CURVE SMOOTH",
"986 1483 OFFCURVE",
"885 1520 OFFCURVE",
"753 1520 CURVE SMOOTH",
"657 1520 OFFCURVE",
"572 1500 OFFCURVE",
"501 1460 CURVE SMOOTH",
"423 1417 OFFCURVE",
"352 1346 OFFCURVE",
"303 1272 CURVE SMOOTH",
"283 1242 OFFCURVE",
"256 1195 OFFCURVE",
"231 1141 CURVE SMOOTH",
"208 1091 OFFCURVE",
"189 1041 OFFCURVE",
"168 975 CURVE SMOOTH",
"136 875 OFFCURVE",
"118 794 OFFCURVE",
"104 712 CURVE SMOOTH",
"90 629 OFFCURVE",
"82 558 OFFCURVE",
"82 473 CURVE SMOOTH",
"82 302 OFFCURVE",
"114 176 OFFCURVE",
"179 94 CURVE SMOOTH",
"244 12 OFFCURVE",
"342 -29 OFFCURVE",
"478 -29 CURVE SMOOTH",
"573 -29 OFFCURVE",
"658 -9 OFFCURVE",
"731 32 CURVE SMOOTH",
"806 74 OFFCURVE",
"876 141 OFFCURVE",
"928 219 CURVE SMOOTH",
"956 261 OFFCURVE",
"983 312 OFFCURVE",
"1001 351 CURVE SMOOTH",
"1024 402 OFFCURVE",
"1042 450 OFFCURVE",
"1063 516 CURVE SMOOTH",
"1092 607 OFFCURVE",
"1114 695 OFFCURVE",
"1129 781 CURVE SMOOTH",
"1144 867 OFFCURVE",
"1151 945 OFFCURVE",
"1151 1024 CURVE SMOOTH"
);
},
{
closed = 1;
nodes = (
"782 1710 LINE SMOOTH",
"803 1695 OFFCURVE",
"820 1686 OFFCURVE",
"841 1678 CURVE SMOOTH",
"859 1671 OFFCURVE",
"876 1667 OFFCURVE",
"903 1667 CURVE SMOOTH",
"964 1667 OFFCURVE",
"1015 1688 OFFCURVE",
"1054 1722 CURVE SMOOTH",
"1096 1759 OFFCURVE",
"1128 1813 OFFCURVE",
"1149 1886 CURVE",
"1024 1886 LINE",
"1017 1855 OFFCURVE",
"1004 1831 OFFCURVE",
"985 1813 CURVE SMOOTH",
"967 1796 OFFCURVE",
"946 1786 OFFCURVE",
"916 1786 CURVE SMOOTH",
"900 1786 OFFCURVE",
"891 1789 OFFCURVE",
"880 1793 CURVE SMOOTH",
"868 1797 OFFCURVE",
"856 1804 OFFCURVE",
"844 1813 CURVE SMOOTH",
"809 1839 LINE SMOOTH",
"786 1856 OFFCURVE",
"766 1867 OFFCURVE",
"743 1875 CURVE SMOOTH",
"722 1882 OFFCURVE",
"702 1886 OFFCURVE",
"676 1886 CURVE SMOOTH",
"622 1886 OFFCURVE",
"572 1868 OFFCURVE",
"531 1831 CURVE SMOOTH",
"490 1794 OFFCURVE",
"457 1740 OFFCURVE",
"434 1667 CURVE",
"559 1667 LINE",
"572 1700 OFFCURVE",
"587 1726 OFFCURVE",
"605 1743 CURVE SMOOTH",
"623 1760 OFFCURVE",
"643 1768 OFFCURVE",
"665 1768 CURVE SMOOTH",
"691 1768 OFFCURVE",
"718 1757 OFFCURVE",
"746 1736 CURVE",
"748 1735 LINE"
);
}
);
width = 1233;
}
);
note = "\012\011Otilde\012  ";
unicode = 00D5;
},
{
glyphname = OE;
layers = (
{
layerId = "74927890-37A3-4F23-AAA5-AC99B6EBF53D";
name = "Regular Italic";
paths = (
{
closed = 1;
nodes = (
"1104 170 LINE",
"735 170 LINE",
"842 711 LINE",
"1169 711 LINE",
"1202 881 LINE",
"874 881 LINE",
"961 1323 LINE",
"1319 1323 LINE",
"1352 1493 LINE",
"758 1493 LINE SMOOTH",
"597 1493 OFFCURVE",
"471 1461 OFFCURVE",
"379 1396 CURVE SMOOTH",
"288 1332 OFFCURVE",
"213 1226 OFFCURVE",
"154 1067 CURVE SMOOTH",
"119 973 OFFCURVE",
"89 858 OFFCURVE",
"68 742 CURVE SMOOTH",
"46 621 OFFCURVE",
"35 506 OFFCURVE",
"35 424 CURVE SMOOTH",
"35 283 OFFCURVE",
"67 174 OFFCURVE",
"141 103 CURVE SMOOTH",
"213 34 OFFCURVE",
"324 0 OFFCURVE",
"467 0 CURVE SMOOTH",
"1071 0 LINE"
);
},
{
closed = 1;
nodes = (
"764 1323 LINE",
"539 170 LINE",
"477 170 LINE SMOOTH",
"401 170 OFFCURVE",
"336 188 OFFCURVE",
"292 230 CURVE SMOOTH",
"249 272 OFFCURVE",
"229 336 OFFCURVE",
"229 416 CURVE SMOOTH",
"229 452 OFFCURVE",
"233 501 OFFCURVE",
"240 556 CURVE SMOOTH",
"248 619 OFFCURVE",
"262 694 OFFCURVE",
"272 745 CURVE SMOOTH",
"289 829 OFFCURVE",
"300 880 OFFCURVE",
"322 961 CURVE SMOOTH",
"340 1028 OFFCURVE",
"354 1068 OFFCURVE",
"371 1106 CURVE SMOOTH",
"402 1175 OFFCURVE",
"439 1229 OFFCURVE",
"501 1269 CURVE SMOOTH",
"556 1305 OFFCURVE",
"623 1323 OFFCURVE",
"702 1323 CURVE SMOOTH"
);
}
);
width = 1233;
}
);
note = "\012\011OE\012  ";
unicode = 0152;
},
{
glyphname = P;
layers = (
{
layerId = "74927890-37A3-4F23-AAA5-AC99B6EBF53D";
name = "Regular Italic";
paths = (
{
closed = 1;
nodes = (
"491 1327 LINE",
"724 1327 LINE SMOOTH",
"811 1327 OFFCURVE",
"875 1310 OFFCURVE",
"916 1276 CURVE SMOOTH",
"961 1239 OFFCURVE",
"978 1181 OFFCURVE",
"978 1111 CURVE SMOOTH",
"978 1013 OFFCURVE",
"945 925 OFFCURVE",
"880 862 CURVE SMOOTH",
"814 798 OFFCURVE",
"726 766 OFFCURVE",
"616 766 CURVE SMOOTH",
"382 766 LINE"
);
},
{
closed = 1;
nodes = (
"321 1493 LINE",
"30 0 LINE",
"233 0 LINE",
"350 600 LINE",
"583 600 LINE SMOOTH",
"775 600 OFFCURVE",
"920 651 OFFCURVE",
"1023 743 CURVE SMOOTH",
"1126 835 OFFCURVE",
"1183 967 OFFCURVE",
"1183 1126 CURVE SMOOTH",
"1183 1252 OFFCURVE",
"1147 1341 OFFCURVE",
"1076 1401 CURVE SMOOTH",
"1005 1461 OFFCURVE",
"897 1493 OFFCURVE",
"761 1493 CURVE SMOOTH"
);
}
);
width = 1233;
}
);
note = "\012\011P\012  ";
unicode = 0050;
},
{
glyphname = Thorn;
layers = (
{
layerId = "74927890-37A3-4F23-AAA5-AC99B6EBF53D";
name = "Regular Italic";
paths = (
{
closed = 1;
nodes = (
"326 365 LINE",
"557 365 LINE SMOOTH",
"744 365 OFFCURVE",
"891 411 OFFCURVE",
"998 502 CURVE SMOOTH",
"1105 593 OFFCURVE",
"1159 720 OFFCURVE",
"1159 867 CURVE SMOOTH",
"1159 987 OFFCURVE",
"1123 1071 OFFCURVE",
"1051 1129 CURVE SMOOTH",
"978 1188 OFFCURVE",
"873 1217 OFFCURVE",
"735 1217 CURVE SMOOTH",
"494 1217 LINE",
"545 1491 LINE",
"342 1493 LINE",
"51 0 LINE",
"254 0 LINE"
);
},
{
closed = 1;
nodes = (
"461 1059 LINE",
"698 1059 LINE SMOOTH",
"785 1059 OFFCURVE",
"849 1043 OFFCURVE",
"890 1010 CURVE SMOOTH",
"929 979 OFFCURVE",
"952 932 OFFCURVE",
"952 853 CURVE SMOOTH",
"952 759 OFFCURVE",
"919 675 OFFCURVE",
"853 614 CURVE SMOOTH",
"787 553 OFFCURVE",
"699 522 OFFCURVE",
"590 522 CURVE SMOOTH",
"356 522 LINE"
);
}
);
width = 1233;
}
);
note = "\012\011Thorn\012  ";
unicode = 00DE;
},
{
glyphname = Q;
layers = (
{
layerId = "74927890-37A3-4F23-AAA5-AC99B6EBF53D";
name = "Regular Italic";
paths = (
{
closed = 1;
nodes = (
"504 -27 LINE",
"690 -270 LINE",
"926 -270 LINE",
"690 10 LINE",
"747 33 OFFCURVE",
"800 73 OFFCURVE",
"839 111 CURVE SMOOTH",
"890 160 OFFCURVE",
"933 220 OFFCURVE",
"963 274 CURVE SMOOTH",
"988 319 OFFCURVE",
"1011 370 OFFCURVE",
"1032 427 CURVE SMOOTH",
"1052 481 OFFCURVE",
"1076 559 OFFCURVE",
"1094 629 CURVE SMOOTH",
"1114 707 OFFCURVE",
"1129 783 OFFCURVE",
"1137 839 CURVE SMOOTH",
"1146 901 OFFCURVE",
"1151 965 OFFCURVE",
"1151 1029 CURVE SMOOTH",
"1151 1195 OFFCURVE",
"1117 1317 OFFCURVE",
"1054 1397 CURVE SMOOTH",
"988 1481 OFFCURVE",
"888 1520 OFFCURVE",
"753 1520 CURVE SMOOTH",
"658 1520 OFFCURVE",
"575 1501 OFFCURVE",
"501 1460 CURVE SMOOTH",
"423 1417 OFFCURVE",
"352 1346 OFFCURVE",
"303 1272 CURVE SMOOTH",
"283 1242 OFFCURVE",
"256 1195 OFFCURVE",
"231 1141 CURVE SMOOTH",
"208 1091 OFFCURVE",
"189 1041 OFFCURVE",
"168 975 CURVE SMOOTH",
"136 875 OFFCURVE",
"118 794 OFFCURVE",
"104 712 CURVE SMOOTH",
"90 629 OFFCURVE",
"82 559 OFFCURVE",
"82 472 CURVE SMOOTH",
"82 294 OFFCURVE",
"115 173 OFFCURVE",
"181 93 CURVE SMOOTH",
"247 13 OFFCURVE",
"347 -27 OFFCURVE",
"494 -27 CURVE SMOOTH"
);
},
{
closed = 1;
nodes = (
"435 135 OFFCURVE",
"378 155 OFFCURVE",
"340 203 CURVE SMOOTH",
"305 248 OFFCURVE",
"287 311 OFFCURVE",
"287 429 CURVE SMOOTH",
"287 540 OFFCURVE",
"303 675 OFFCURVE",
"333 808 CURVE SMOOTH",
"364 944 OFFCURVE",
"409 1073 OFFCURVE",
"455 1160 CURVE SMOOTH",
"486 1219 OFFCURVE",
"525 1271 OFFCURVE",
"572 1305 CURVE SMOOTH",
"620 1340 OFFCURVE",
"676 1356 OFFCURVE",
"734 1356 CURVE SMOOTH",
"804 1356 OFFCURVE",
"858 1332 OFFCURVE",
"892 1289 CURVE SMOOTH",
"927 1245 OFFCURVE",
"944 1180 OFFCURVE",
"944 1067 CURVE SMOOTH",
"944 960 OFFCURVE",
"929 820 OFFCURVE",
"898 683 CURVE SMOOTH",
"871 563 OFFCURVE",
"829 430 OFFCURVE",
"778 332 CURVE SMOOTH",
"751 280 OFFCURVE",
"715 225 OFFCURVE",
"660 186 CURVE SMOOTH",
"611 151 OFFCURVE",
"555 135 OFFCURVE",
"498 135 CURVE SMOOTH"
);
}
);
width = 1233;
}
);
note = "\012\011Q\012  ";
unicode = 0051;
},
{
glyphname = R;
layers = (
{
layerId = "74927890-37A3-4F23-AAA5-AC99B6EBF53D";
name = "Regular Italic";
paths = (
{
closed = 1;
nodes = (
"887 720 OFFCURVE",
"981 770 OFFCURVE",
"1048 848 CURVE SMOOTH",
"1117 928 OFFCURVE",
"1151 1033 OFFCURVE",
"1151 1144 CURVE SMOOTH",
"1151 1257 OFFCURVE",
"1116 1343 OFFCURVE",
"1038 1404 CURVE SMOOTH",
"962 1463 OFFCURVE",
"855 1493 OFFCURVE",
"717 1493 CURVE SMOOTH",
"301 1493 LINE",
"12 0 LINE",
"215 0 LINE",
"338 631 LINE",
"530 631 LINE SMOOTH",
"599 631 OFFCURVE",
"658 616 OFFCURVE",
"695 582 CURVE SMOOTH",
"732 548 OFFCURVE",
"764 480 OFFCURVE",
"793 377 CURVE SMOOTH",
"899 0 LINE",
"1100 0 LINE",
"979 408 LINE SMOOTH",
"945 524 OFFCURVE",
"909 604 OFFCURVE",
"882 638 CURVE SMOOTH",
"854 673 OFFCURVE",
"811 697 OFFCURVE",
"766 705 CURVE"
);
},
{
closed = 1;
nodes = (
"473 1327 LINE",
"686 1327 LINE SMOOTH",
"777 1327 OFFCURVE",
"843 1310 OFFCURVE",
"885 1275 CURVE SMOOTH",
"927 1240 OFFCURVE",
"948 1185 OFFCURVE",
"948 1109 CURVE SMOOTH",
"948 1015 OFFCURVE",
"916 940 OFFCURVE",
"851 883 CURVE SMOOTH",
"786 826 OFFCURVE",
"699 797 OFFCURVE",
"590 797 CURVE SMOOTH",
"371 797 LINE"
);
}
);
width = 1233;
}
);
note = "\012\011R\012  ";
unicode = 0052;
},
{
glyphname = Racute;
lastChange = "2015-07-22 00:31:53 +0000";
layers = (
{
layerId = "74927890-37A3-4F23-AAA5-AC99B6EBF53D";
name = "Regular Italic";
paths = (
{
closed = 1;
nodes = (
"889 1900 LINE",
"1097 1900 LINE",
"790 1636 LINE",
"630 1636 LINE"
);
},
{
closed = 1;
nodes = (
"814 696 OFFCURVE",
"853 673 OFFCURVE",
"882 638 CURVE SMOOTH",
"911 603 OFFCURVE",
"943 526 OFFCURVE",
"979 408 CURVE SMOOTH",
"1100 0 LINE",
"899 0 LINE",
"793 377 LINE SMOOTH",
"734 585 OFFCURVE",
"677 631 OFFCURVE",
"530 631 CURVE SMOOTH",
"338 631 LINE",
"215 0 LINE",
"12 0 LINE",
"301 1493 LINE",
"717 1493 LINE SMOOTH",
"993 1493 OFFCURVE",
"1151 1368 OFFCURVE",
"1151 1151 CURVE SMOOTH",
"1151 907 OFFCURVE",
"1003 736 OFFCURVE",
"766 705 CURVE"
);
},
{
closed = 1;
nodes = (
"473 1327 LINE",
"371 797 LINE",
"590 797 LINE SMOOTH",
"807 797 OFFCURVE",
"948 921 OFFCURVE",
"948 1110 CURVE SMOOTH",
"948 1259 OFFCURVE",
"867 1327 OFFCURVE",
"686 1327 CURVE SMOOTH"
);
}
);
width = 1233;
}
);
note = Racute;
unicode = 0154;
},
{
glyphname = Rcaron;
lastChange = "2015-07-22 00:31:53 +0000";
layers = (
{
layerId = "74927890-37A3-4F23-AAA5-AC99B6EBF53D";
name = "Regular Italic";
paths = (
{
closed = 1;
nodes = (
"814 696 OFFCURVE",
"853 673 OFFCURVE",
"882 638 CURVE SMOOTH",
"911 603 OFFCURVE",
"943 526 OFFCURVE",
"979 408 CURVE SMOOTH",
"1100 0 LINE",
"899 0 LINE",
"793 377 LINE SMOOTH",
"734 585 OFFCURVE",
"677 631 OFFCURVE",
"530 631 CURVE SMOOTH",
"338 631 LINE",
"215 0 LINE",
"12 0 LINE",
"301 1493 LINE",
"717 1493 LINE SMOOTH",
"993 1493 OFFCURVE",
"1151 1368 OFFCURVE",
"1151 1151 CURVE SMOOTH",
"1151 907 OFFCURVE",
"1003 736 OFFCURVE",
"766 705 CURVE"
);
},
{
closed = 1;
nodes = (
"473 1327 LINE",
"371 797 LINE",
"590 797 LINE SMOOTH",
"807 797 OFFCURVE",
"948 921 OFFCURVE",
"948 1110 CURVE SMOOTH",
"948 1259 OFFCURVE",
"867 1327 OFFCURVE",
"686 1327 CURVE SMOOTH"
);
},
{
closed = 1;
nodes = (
"879 1635 LINE",
"666 1635 LINE",
"508 1901 LINE",
"644 1901 LINE",
"783 1723 LINE",
"992 1901 LINE",
"1143 1901 LINE"
);
}
);
width = 1233;
}
);
note = Rcaron;
unicode = 0158;
},
{
glyphname = Rcommaaccent;
lastChange = "2015-07-22 00:31:53 +0000";
layers = (
{
layerId = "74927890-37A3-4F23-AAA5-AC99B6EBF53D";
name = "Regular Italic";
paths = (
{
closed = 1;
nodes = (
"460 -199 LINE",
"699 -199 LINE",
"445 -544 LINE",
"299 -544 LINE"
);
},
{
closed = 1;
nodes = (
"814 696 OFFCURVE",
"853 673 OFFCURVE",
"882 638 CURVE SMOOTH",
"911 603 OFFCURVE",
"943 526 OFFCURVE",
"979 408 CURVE SMOOTH",
"1100 0 LINE",
"899 0 LINE",
"793 377 LINE SMOOTH",
"734 585 OFFCURVE",
"677 631 OFFCURVE",
"530 631 CURVE SMOOTH",
"338 631 LINE",
"215 0 LINE",
"12 0 LINE",
"301 1493 LINE",
"717 1493 LINE SMOOTH",
"993 1493 OFFCURVE",
"1151 1368 OFFCURVE",
"1151 1151 CURVE SMOOTH",
"1151 907 OFFCURVE",
"1003 736 OFFCURVE",
"766 705 CURVE"
);
},
{
closed = 1;
nodes = (
"473 1327 LINE",
"371 797 LINE",
"590 797 LINE SMOOTH",
"807 797 OFFCURVE",
"948 921 OFFCURVE",
"948 1110 CURVE SMOOTH",
"948 1259 OFFCURVE",
"867 1327 OFFCURVE",
"686 1327 CURVE SMOOTH"
);
}
);
width = 1233;
}
);
note = Rcommaaccent;
unicode = 0156;
},
{
glyphname = S;
layers = (
{
layerId = "74927890-37A3-4F23-AAA5-AC99B6EBF53D";
name = "Regular Italic";
paths = (
{
closed = 1;
nodes = (
"1147 1442 LINE",
"1077 1470 OFFCURVE",
"1016 1488 OFFCURVE",
"962 1500 CURVE SMOOTH",
"903 1513 OFFCURVE",
"846 1520 OFFCURVE",
"783 1520 CURVE SMOOTH",
"619 1520 OFFCURVE",
"470 1473 OFFCURVE",
"360 1380 CURVE SMOOTH",
"249 1286 OFFCURVE",
"195 1159 OFFCURVE",
"195 1025 CURVE SMOOTH",
"195 934 OFFCURVE",
"220 873 OFFCURVE",
"269 824 CURVE SMOOTH",
"327 766 OFFCURVE",
"419 727 OFFCURVE",
"526 692 CURVE SMOOTH",
"627 659 LINE SMOOTH",
"714 631 OFFCURVE",
"770 608 OFFCURVE",
"804 573 CURVE SMOOTH",
"833 543 OFFCURVE",
"848 502 OFFCURVE",
"848 444 CURVE SMOOTH",
"848 357 OFFCURVE",
"814 282 OFFCURVE",
"745 223 CURVE SMOOTH",
"676 164 OFFCURVE",
"589 135 OFFCURVE",
"475 135 CURVE SMOOTH",
"404 135 OFFCURVE",
"332 146 OFFCURVE",
"265 168 CURVE SMOOTH",
"198 190 OFFCURVE",
"131 224 OFFCURVE",
"66 270 CURVE",
"25 61 LINE",
"92 31 OFFCURVE",
"159 9 OFFCURVE",
"226 -6 CURVE SMOOTH",
"293 -21 OFFCURVE",
"358 -29 OFFCURVE",
"435 -29 CURVE SMOOTH",
"618 -29 OFFCURVE",
"772 17 OFFCURVE",
"883 109 CURVE SMOOTH",
"994 201 OFFCURVE",
"1049 327 OFFCURVE",
"1049 473 CURVE SMOOTH",
"1049 571 OFFCURVE",
"1024 638 OFFCURVE",
"974 694 CURVE SMOOTH",
"921 752 OFFCURVE",
"847 791 OFFCURVE",
"735 827 CURVE SMOOTH",
"614 866 LINE SMOOTH",
"526 894 OFFCURVE",
"469 921 OFFCURVE",
"436 950 CURVE SMOOTH",
"403 979 OFFCURVE",
"387 1016 OFFCURVE",
"387 1068 CURVE SMOOTH",
"387 1150 OFFCURVE",
"426 1223 OFFCURVE",
"490 1274 CURVE SMOOTH",
"554 1325 OFFCURVE",
"646 1356 OFFCURVE",
"759 1356 CURVE SMOOTH",
"823 1356 OFFCURVE",
"882 1346 OFFCURVE",
"940 1326 CURVE SMOOTH",
"998 1306 OFFCURVE",
"1054 1276 OFFCURVE",
"1108 1237 CURVE"
);
}
);
width = 1233;
}
);
note = "\012\011S\012  ";
unicode = 0053;
},
{
glyphname = Sacute;
lastChange = "2015-07-22 00:31:53 +0000";
layers = (
{
layerId = "74927890-37A3-4F23-AAA5-AC99B6EBF53D";
name = "Regular Italic";
paths = (
{
closed = 1;
nodes = (
"907 1906 LINE",
"1115 1906 LINE",
"808 1642 LINE",
"648 1642 LINE"
);
},
{
closed = 1;
nodes = (
"1108 1237 LINE",
"1000 1316 OFFCURVE",
"884 1356 OFFCURVE",
"760 1356 CURVE SMOOTH",
"540 1356 OFFCURVE",
"387 1234 OFFCURVE",
"387 1065 CURVE SMOOTH",
"387 970 OFFCURVE",
"442 919 OFFCURVE",
"614 866 CURVE SMOOTH",
"735 827 LINE SMOOTH",
"952 760 OFFCURVE",
"1049 653 OFFCURVE",
"1049 481 CURVE SMOOTH",
"1049 168 OFFCURVE",
"813 -29 OFFCURVE",
"430 -29 CURVE SMOOTH",
"291 -29 OFFCURVE",
"158 1 OFFCURVE",
"25 61 CURVE",
"66 270 LINE",
"197 178 OFFCURVE",
"328 135 OFFCURVE",
"477 135 CURVE SMOOTH",
"697 135 OFFCURVE",
"848 266 OFFCURVE",
"848 446 CURVE SMOOTH",
"848 555 OFFCURVE",
"804 604 OFFCURVE",
"627 659 CURVE SMOOTH",
"526 692 LINE SMOOTH",
"281 769 OFFCURVE",
"195 857 OFFCURVE",
"195 1018 CURVE SMOOTH",
"195 1313 OFFCURVE",
"436 1520 OFFCURVE",
"791 1520 CURVE SMOOTH",
"898 1520 OFFCURVE",
"1020 1493 OFFCURVE",
"1147 1442 CURVE"
);
}
);
width = 1233;
}
);
note = Sacute;
unicode = 015A;
},
{
glyphname = Scaron;
layers = (
{
layerId = "74927890-37A3-4F23-AAA5-AC99B6EBF53D";
name = "Regular Italic";
paths = (
{
closed = 1;
nodes = (
"1147 1442 LINE",
"1075 1471 OFFCURVE",
"1008 1490 OFFCURVE",
"962 1500 CURVE SMOOTH",
"903 1513 OFFCURVE",
"846 1520 OFFCURVE",
"783 1520 CURVE SMOOTH",
"619 1520 OFFCURVE",
"470 1473 OFFCURVE",
"360 1380 CURVE SMOOTH",
"249 1286 OFFCURVE",
"195 1159 OFFCURVE",
"195 1025 CURVE SMOOTH",
"195 934 OFFCURVE",
"220 873 OFFCURVE",
"269 824 CURVE SMOOTH",
"327 766 OFFCURVE",
"419 727 OFFCURVE",
"526 692 CURVE SMOOTH",
"627 659 LINE SMOOTH",
"714 631 OFFCURVE",
"770 608 OFFCURVE",
"804 573 CURVE SMOOTH",
"833 543 OFFCURVE",
"848 502 OFFCURVE",
"848 444 CURVE SMOOTH",
"848 357 OFFCURVE",
"814 282 OFFCURVE",
"745 223 CURVE SMOOTH",
"676 164 OFFCURVE",
"589 135 OFFCURVE",
"475 135 CURVE SMOOTH",
"404 135 OFFCURVE",
"332 146 OFFCURVE",
"265 168 CURVE SMOOTH",
"198 190 OFFCURVE",
"131 224 OFFCURVE",
"66 270 CURVE",
"25 61 LINE",
"92 31 OFFCURVE",
"159 9 OFFCURVE",
"226 -6 CURVE SMOOTH",
"293 -21 OFFCURVE",
"358 -29 OFFCURVE",
"435 -29 CURVE SMOOTH",
"618 -29 OFFCURVE",
"772 17 OFFCURVE",
"883 109 CURVE SMOOTH",
"994 201 OFFCURVE",
"1049 327 OFFCURVE",
"1049 473 CURVE SMOOTH",
"1049 571 OFFCURVE",
"1024 638 OFFCURVE",
"974 694 CURVE SMOOTH",
"921 752 OFFCURVE",
"847 791 OFFCURVE",
"735 827 CURVE SMOOTH",
"614 866 LINE SMOOTH",
"526 894 OFFCURVE",
"469 921 OFFCURVE",
"436 950 CURVE SMOOTH",
"403 979 OFFCURVE",
"387 1016 OFFCURVE",
"387 1068 CURVE SMOOTH",
"387 1150 OFFCURVE",
"426 1223 OFFCURVE",
"490 1274 CURVE SMOOTH",
"554 1325 OFFCURVE",
"646 1356 OFFCURVE",
"759 1356 CURVE SMOOTH",
"823 1356 OFFCURVE",
"882 1346 OFFCURVE",
"940 1326 CURVE SMOOTH",
"998 1306 OFFCURVE",
"1054 1276 OFFCURVE",
"1108 1237 CURVE"
);
},
{
closed = 1;
nodes = (
"870 1635 LINE",
"1134 1901 LINE",
"983 1901 LINE",
"774 1723 LINE",
"635 1901 LINE",
"499 1901 LINE",
"657 1635 LINE"
);
}
);
width = 1233;
}
);
note = "\012\011Scaron\012  ";
unicode = 0160;
},
{
glyphname = Scedilla;
layers = (
{
layerId = "74927890-37A3-4F23-AAA5-AC99B6EBF53D";
name = "Regular Italic";
paths = (
{
closed = 1;
nodes = (
"1147 1442 LINE",
"1075 1471 OFFCURVE",
"1008 1490 OFFCURVE",
"962 1500 CURVE SMOOTH",
"903 1513 OFFCURVE",
"846 1520 OFFCURVE",
"783 1520 CURVE SMOOTH",
"619 1520 OFFCURVE",
"470 1473 OFFCURVE",
"360 1380 CURVE SMOOTH",
"249 1286 OFFCURVE",
"195 1159 OFFCURVE",
"195 1025 CURVE SMOOTH",
"195 934 OFFCURVE",
"220 873 OFFCURVE",
"269 824 CURVE SMOOTH",
"327 766 OFFCURVE",
"419 727 OFFCURVE",
"526 692 CURVE SMOOTH",
"627 659 LINE SMOOTH",
"714 631 OFFCURVE",
"770 608 OFFCURVE",
"804 573 CURVE SMOOTH",
"833 543 OFFCURVE",
"848 502 OFFCURVE",
"848 444 CURVE SMOOTH",
"848 357 OFFCURVE",
"814 282 OFFCURVE",
"745 223 CURVE SMOOTH",
"676 164 OFFCURVE",
"589 135 OFFCURVE",
"475 135 CURVE SMOOTH",
"404 135 OFFCURVE",
"332 146 OFFCURVE",
"265 168 CURVE SMOOTH",
"198 190 OFFCURVE",
"131 224 OFFCURVE",
"66 270 CURVE",
"25 61 LINE",
"92 31 OFFCURVE",
"159 9 OFFCURVE",
"226 -6 CURVE SMOOTH",
"293 -21 OFFCURVE",
"358 -29 OFFCURVE",
"435 -29 CURVE SMOOTH",
"618 -29 OFFCURVE",
"772 17 OFFCURVE",
"883 109 CURVE SMOOTH",
"994 201 OFFCURVE",
"1049 327 OFFCURVE",
"1049 473 CURVE SMOOTH",
"1049 571 OFFCURVE",
"1024 638 OFFCURVE",
"974 694 CURVE SMOOTH",
"921 752 OFFCURVE",
"847 791 OFFCURVE",
"735 827 CURVE SMOOTH",
"614 866 LINE SMOOTH",
"526 894 OFFCURVE",
"469 921 OFFCURVE",
"436 950 CURVE SMOOTH",
"403 979 OFFCURVE",
"387 1016 OFFCURVE",
"387 1068 CURVE SMOOTH",
"387 1150 OFFCURVE",
"426 1223 OFFCURVE",
"490 1274 CURVE SMOOTH",
"554 1325 OFFCURVE",
"646 1356 OFFCURVE",
"759 1356 CURVE SMOOTH",
"823 1356 OFFCURVE",
"882 1346 OFFCURVE",
"940 1326 CURVE SMOOTH",
"998 1306 OFFCURVE",
"1054 1276 OFFCURVE",
"1108 1237 CURVE"
);
},
{
closed = 1;
nodes = (
"436 0 LINE",
"456 -37 OFFCURVE",
"474 -77 OFFCURVE",
"480 -93 CURVE SMOOTH",
"488 -114 OFFCURVE",
"494 -141 OFFCURVE",
"494 -163 CURVE SMOOTH",
"494 -195 OFFCURVE",
"482 -224 OFFCURVE",
"457 -244 CURVE SMOOTH",
"432 -264 OFFCURVE",
"395 -274 OFFCURVE",
"352 -274 CURVE SMOOTH",
"329 -274 OFFCURVE",
"308 -271 OFFCURVE",
"284 -265 CURVE SMOOTH",
"259 -258 OFFCURVE",
"234 -249 OFFCURVE",
"207 -236 CURVE",
"182 -365 LINE",
"213 -375 OFFCURVE",
"245 -383 OFFCURVE",
"276 -388 CURVE SMOOTH",
"307 -393 OFFCURVE",
"339 -395 OFFCURVE",
"366 -395 CURVE SMOOTH",
"448 -395 OFFCURVE",
"512 -376 OFFCURVE",
"557 -341 CURVE SMOOTH",
"604 -304 OFFCURVE",
"627 -253 OFFCURVE",
"627 -198 CURVE SMOOTH",
"627 -172 OFFCURVE",
"622 -143 OFFCURVE",
"610 -111 CURVE SMOOTH",
"600 -84 OFFCURVE",
"582 -46 OFFCURVE",
"555 0 CURVE"
);
}
);
width = 1233;
}
);
note = "\012\011Scedilla\012  ";
unicode = 015E;
},
{
glyphname = Scommaaccent;
lastChange = "2015-07-22 00:35:20 +0000";
layers = (
{
layerId = "74927890-37A3-4F23-AAA5-AC99B6EBF53D";
name = "Regular Italic";
paths = (
{
closed = 1;
nodes = (
"335 -197 LINE",
"574 -197 LINE",
"320 -542 LINE",
"174 -542 LINE"
);
},
{
closed = 1;
nodes = (
"1108 1237 LINE",
"1000 1316 OFFCURVE",
"884 1356 OFFCURVE",
"760 1356 CURVE SMOOTH",
"540 1356 OFFCURVE",
"387 1234 OFFCURVE",
"387 1065 CURVE SMOOTH",
"387 970 OFFCURVE",
"442 919 OFFCURVE",
"614 866 CURVE SMOOTH",
"735 827 LINE SMOOTH",
"952 760 OFFCURVE",
"1049 653 OFFCURVE",
"1049 481 CURVE SMOOTH",
"1049 168 OFFCURVE",
"813 -29 OFFCURVE",
"430 -29 CURVE SMOOTH",
"291 -29 OFFCURVE",
"158 1 OFFCURVE",
"25 61 CURVE",
"66 270 LINE",
"197 178 OFFCURVE",
"328 135 OFFCURVE",
"477 135 CURVE SMOOTH",
"697 135 OFFCURVE",
"848 266 OFFCURVE",
"848 446 CURVE SMOOTH",
"848 555 OFFCURVE",
"804 604 OFFCURVE",
"627 659 CURVE SMOOTH",
"526 692 LINE SMOOTH",
"281 769 OFFCURVE",
"195 857 OFFCURVE",
"195 1018 CURVE SMOOTH",
"195 1313 OFFCURVE",
"436 1520 OFFCURVE",
"791 1520 CURVE SMOOTH",
"898 1520 OFFCURVE",
"1020 1493 OFFCURVE",
"1147 1442 CURVE"
);
}
);
width = 1233;
}
);
note = Scommaaccent;
unicode = 0218;
},
{
glyphname = T;
layers = (
{
layerId = "74927890-37A3-4F23-AAA5-AC99B6EBF53D";
name = "Regular Italic";
paths = (
{
closed = 1;
nodes = (
"193 1493 LINE",
"160 1323 LINE",
"629 1323 LINE",
"371 0 LINE",
"575 0 LINE",
"831 1323 LINE",
"1300 1323 LINE",
"1333 1493 LINE"
);
}
);
width = 1233;
}
);
note = "\012\011T\012  ";
unicode = 0054;
},
{
glyphname = Tbar;
lastChange = "2015-07-22 00:31:53 +0000";
layers = (
{
layerId = "74927890-37A3-4F23-AAA5-AC99B6EBF53D";
name = "Regular Italic";
paths = (
{
closed = 1;
nodes = (
"192 1493 LINE",
"1331 1493 LINE",
"1298 1323 LINE",
"831 1323 LINE",
"719 747 LINE",
"984 747 LINE",
"951 577 LINE",
"686 577 LINE",
"574 0 LINE",
"371 0 LINE",
"483 577 LINE",
"218 577 LINE",
"251 747 LINE",
"516 747 LINE",
"628 1323 LINE",
"159 1323 LINE"
);
}
);
width = 1233;
}
);
note = Tbar;
unicode = 0166;
},
{
glyphname = Tcaron;
lastChange = "2015-07-22 00:32:48 +0000";
layers = (
{
layerId = "74927890-37A3-4F23-AAA5-AC99B6EBF53D";
name = "Regular Italic";
paths = (
{
closed = 1;
nodes = (
"193 1493 LINE",
"1333 1493 LINE",
"1300 1323 LINE",
"831 1323 LINE",
"575 0 LINE",
"371 0 LINE",
"629 1323 LINE",
"160 1323 LINE"
);
},
{
closed = 1;
nodes = (
"909 1635 LINE",
"696 1635 LINE",
"538 1901 LINE",
"674 1901 LINE",
"813 1723 LINE",
"1022 1901 LINE",
"1173 1901 LINE"
);
}
);
width = 1233;
}
);
note = Tcaron;
unicode = 0164;
},
{
glyphname = Tcommaaccent;
lastChange = "2015-07-22 00:35:20 +0000";
layers = (
{
layerId = "74927890-37A3-4F23-AAA5-AC99B6EBF53D";
name = "Regular Italic";
paths = (
{
closed = 1;
nodes = (
"193 1493 LINE",
"1333 1493 LINE",
"1300 1323 LINE",
"831 1323 LINE",
"575 0 LINE",
"371 0 LINE",
"629 1323 LINE",
"160 1323 LINE"
);
},
{
closed = 1;
nodes = (
"555 0 LINE",
"604 -85 OFFCURVE",
"627 -145 OFFCURVE",
"627 -193 CURVE SMOOTH",
"627 -317 OFFCURVE",
"526 -395 OFFCURVE",
"367 -395 CURVE SMOOTH",
"308 -395 OFFCURVE",
"245 -385 OFFCURVE",
"182 -365 CURVE",
"207 -236 LINE",
"260 -261 OFFCURVE",
"309 -274 OFFCURVE",
"352 -274 CURVE SMOOTH",
"441 -274 OFFCURVE",
"494 -232 OFFCURVE",
"494 -160 CURVE SMOOTH",
"494 -123 OFFCURVE",
"475 -72 OFFCURVE",
"436 0 CURVE"
);
}
);
width = 1233;
}
);
note = Tcommaaccent;
unicode = 0162;
},
{
glyphname = U;
layers = (
{
layerId = "74927890-37A3-4F23-AAA5-AC99B6EBF53D";
name = "Regular Italic";
paths = (
{
closed = 1;
nodes = (
"115 573 LINE SMOOTH",
"101 503 OFFCURVE",
"94 455 OFFCURVE",
"89 417 CURVE SMOOTH",
"83 372 OFFCURVE",
"80 347 OFFCURVE",
"80 315 CURVE SMOOTH",
"80 207 OFFCURVE",
"115 121 OFFCURVE",
"184 61 CURVE SMOOTH",
"253 1 OFFCURVE",
"351 -29 OFFCURVE",
"477 -29 CURVE SMOOTH",
"550 -29 OFFCURVE",
"615 -19 OFFCURVE",
"676 1 CURVE SMOOTH",
"735 20 OFFCURVE",
"791 48 OFFCURVE",
"838 86 CURVE SMOOTH",
"891 129 OFFCURVE",
"931 181 OFFCURVE",
"964 253 CURVE SMOOTH",
"992 316 OFFCURVE",
"1019 397 OFFCURVE",
"1053 573 CURVE SMOOTH",
"1231 1493 LINE",
"1028 1493 LINE",
"850 573 LINE SMOOTH",
"832 481 OFFCURVE",
"816 413 OFFCURVE",
"801 361 CURVE SMOOTH",
"784 303 OFFCURVE",
"770 275 OFFCURVE",
"756 254 CURVE SMOOTH",
"728 213 OFFCURVE",
"693 186 OFFCURVE",
"649 165 CURVE SMOOTH",
"605 144 OFFCURVE",
"560 135 OFFCURVE",
"501 135 CURVE SMOOTH",
"424 135 OFFCURVE",
"370 150 OFFCURVE",
"334 181 CURVE SMOOTH",
"300 210 OFFCURVE",
"279 256 OFFCURVE",
"279 313 CURVE SMOOTH",
"279 353 OFFCURVE",
"289 434 OFFCURVE",
"309 532 CURVE SMOOTH",
"313 551 OFFCURVE",
"316 564 OFFCURVE",
"317 573 CURVE",
"496 1493 LINE",
"293 1493 LINE"
);
}
);
width = 1233;
}
);
note = "\012\011U\012  ";
unicode = 0055;
},
{
glyphname = Uacute;
layers = (
{
layerId = "74927890-37A3-4F23-AAA5-AC99B6EBF53D";
name = "Regular Italic";
paths = (
{
closed = 1;
nodes = (
"115 573 LINE SMOOTH",
"101 503 OFFCURVE",
"94 455 OFFCURVE",
"89 417 CURVE SMOOTH",
"83 372 OFFCURVE",
"80 347 OFFCURVE",
"80 315 CURVE SMOOTH",
"80 207 OFFCURVE",
"115 121 OFFCURVE",
"184 61 CURVE SMOOTH",
"253 1 OFFCURVE",
"351 -29 OFFCURVE",
"477 -29 CURVE SMOOTH",
"550 -29 OFFCURVE",
"615 -19 OFFCURVE",
"676 1 CURVE SMOOTH",
"735 20 OFFCURVE",
"791 48 OFFCURVE",
"838 86 CURVE SMOOTH",
"891 129 OFFCURVE",
"931 181 OFFCURVE",
"964 253 CURVE SMOOTH",
"992 316 OFFCURVE",
"1019 397 OFFCURVE",
"1053 573 CURVE SMOOTH",
"1231 1493 LINE",
"1028 1493 LINE",
"850 573 LINE SMOOTH",
"832 481 OFFCURVE",
"816 413 OFFCURVE",
"801 361 CURVE SMOOTH",
"784 303 OFFCURVE",
"770 275 OFFCURVE",
"756 254 CURVE SMOOTH",
"728 213 OFFCURVE",
"693 186 OFFCURVE",
"649 165 CURVE SMOOTH",
"605 144 OFFCURVE",
"560 135 OFFCURVE",
"501 135 CURVE SMOOTH",
"424 135 OFFCURVE",
"370 150 OFFCURVE",
"334 181 CURVE SMOOTH",
"300 210 OFFCURVE",
"279 256 OFFCURVE",
"279 313 CURVE SMOOTH",
"279 353 OFFCURVE",
"289 434 OFFCURVE",
"309 532 CURVE SMOOTH",
"313 551 OFFCURVE",
"316 564 OFFCURVE",
"317 573 CURVE",
"496 1493 LINE",
"293 1493 LINE"
);
},
{
closed = 1;
nodes = (
"889 1899 LINE",
"630 1635 LINE",
"790 1635 LINE",
"1097 1899 LINE"
);
}
);
width = 1233;
}
);
note = "\012\011Uacute\012  ";
unicode = 00DA;
},
{
glyphname = Ucircumflex;
layers = (
{
layerId = "74927890-37A3-4F23-AAA5-AC99B6EBF53D";
name = "Regular Italic";
paths = (
{
closed = 1;
nodes = (
"115 573 LINE SMOOTH",
"101 503 OFFCURVE",
"94 455 OFFCURVE",
"89 417 CURVE SMOOTH",
"83 372 OFFCURVE",
"80 347 OFFCURVE",
"80 315 CURVE SMOOTH",
"80 207 OFFCURVE",
"115 121 OFFCURVE",
"184 61 CURVE SMOOTH",
"253 1 OFFCURVE",
"351 -29 OFFCURVE",
"477 -29 CURVE SMOOTH",
"550 -29 OFFCURVE",
"615 -19 OFFCURVE",
"676 1 CURVE SMOOTH",
"735 20 OFFCURVE",
"791 48 OFFCURVE",
"838 86 CURVE SMOOTH",
"891 129 OFFCURVE",
"931 181 OFFCURVE",
"964 253 CURVE SMOOTH",
"992 316 OFFCURVE",
"1019 397 OFFCURVE",
"1053 573 CURVE SMOOTH",
"1231 1493 LINE",
"1028 1493 LINE",
"850 573 LINE SMOOTH",
"832 481 OFFCURVE",
"816 413 OFFCURVE",
"801 361 CURVE SMOOTH",
"784 303 OFFCURVE",
"770 275 OFFCURVE",
"756 254 CURVE SMOOTH",
"728 213 OFFCURVE",
"693 186 OFFCURVE",
"649 165 CURVE SMOOTH",
"605 144 OFFCURVE",
"560 135 OFFCURVE",
"501 135 CURVE SMOOTH",
"424 135 OFFCURVE",
"370 150 OFFCURVE",
"334 181 CURVE SMOOTH",
"300 210 OFFCURVE",
"279 256 OFFCURVE",
"279 313 CURVE SMOOTH",
"279 353 OFFCURVE",
"289 434 OFFCURVE",
"309 532 CURVE SMOOTH",
"313 551 OFFCURVE",
"316 564 OFFCURVE",
"317 573 CURVE",
"496 1493 LINE",
"293 1493 LINE"
);
},
{
closed = 1;
nodes = (
"708 1901 LINE",
"446 1635 LINE",
"598 1635 LINE",
"807 1813 LINE",
"946 1635 LINE",
"1079 1635 LINE",
"921 1901 LINE"
);
}
);
width = 1233;
}
);
note = "\012\011Ucircumflex\012  ";
unicode = 00DB;
},
{
glyphname = Udieresis;
layers = (
{
layerId = "74927890-37A3-4F23-AAA5-AC99B6EBF53D";
name = "Regular Italic";
paths = (
{
closed = 1;
nodes = (
"115 573 LINE SMOOTH",
"101 503 OFFCURVE",
"94 455 OFFCURVE",
"89 417 CURVE SMOOTH",
"83 372 OFFCURVE",
"80 347 OFFCURVE",
"80 315 CURVE SMOOTH",
"80 207 OFFCURVE",
"115 121 OFFCURVE",
"184 61 CURVE SMOOTH",
"253 1 OFFCURVE",
"351 -29 OFFCURVE",
"477 -29 CURVE SMOOTH",
"550 -29 OFFCURVE",
"615 -19 OFFCURVE",
"676 1 CURVE SMOOTH",
"735 20 OFFCURVE",
"791 48 OFFCURVE",
"838 86 CURVE SMOOTH",
"891 129 OFFCURVE",
"931 181 OFFCURVE",
"964 253 CURVE SMOOTH",
"992 316 OFFCURVE",
"1019 397 OFFCURVE",
"1053 573 CURVE SMOOTH",
"1231 1493 LINE",
"1028 1493 LINE",
"850 573 LINE SMOOTH",
"832 481 OFFCURVE",
"816 413 OFFCURVE",
"801 361 CURVE SMOOTH",
"784 303 OFFCURVE",
"770 275 OFFCURVE",
"756 254 CURVE SMOOTH",
"728 213 OFFCURVE",
"693 186 OFFCURVE",
"649 165 CURVE SMOOTH",
"605 144 OFFCURVE",
"560 135 OFFCURVE",
"501 135 CURVE SMOOTH",
"424 135 OFFCURVE",
"370 150 OFFCURVE",
"334 181 CURVE SMOOTH",
"300 210 OFFCURVE",
"279 256 OFFCURVE",
"279 313 CURVE SMOOTH",
"279 353 OFFCURVE",
"289 434 OFFCURVE",
"309 532 CURVE SMOOTH",
"313 551 OFFCURVE",
"316 564 OFFCURVE",
"317 573 CURVE",
"496 1493 LINE",
"293 1493 LINE"
);
},
{
closed = 1;
nodes = (
"928 1870 LINE SMOOTH",
"910 1870 OFFCURVE",
"899 1861 OFFCURVE",
"896 1843 CURVE SMOOTH",
"868 1700 LINE SMOOTH",
"864 1680 OFFCURVE",
"875 1667 OFFCURVE",
"895 1667 CURVE SMOOTH",
"1038 1667 LINE SMOOTH",
"1056 1667 OFFCURVE",
"1067 1676 OFFCURVE",
"1070 1694 CURVE SMOOTH",
"1098 1837 LINE SMOOTH",
"1102 1857 OFFCURVE",
"1091 1870 OFFCURVE",
"1071 1870 CURVE SMOOTH"
);
},
{
closed = 1;
nodes = (
"537 1870 LINE SMOOTH",
"519 1870 OFFCURVE",
"508 1861 OFFCURVE",
"505 1843 CURVE SMOOTH",
"477 1700 LINE SMOOTH",
"473 1680 OFFCURVE",
"484 1667 OFFCURVE",
"504 1667 CURVE SMOOTH",
"646 1667 LINE SMOOTH",
"664 1667 OFFCURVE",
"674 1676 OFFCURVE",
"678 1694 CURVE SMOOTH",
"707 1837 LINE SMOOTH",
"711 1857 OFFCURVE",
"702 1870 OFFCURVE",
"681 1870 CURVE SMOOTH"
);
}
);
width = 1233;
}
);
note = "\012\011Udieresis\012  ";
unicode = 00DC;
},
{
glyphname = Ugrave;
layers = (
{
layerId = "74927890-37A3-4F23-AAA5-AC99B6EBF53D";
name = "Regular Italic";
paths = (
{
closed = 1;
nodes = (
"115 573 LINE SMOOTH",
"101 503 OFFCURVE",
"94 455 OFFCURVE",
"89 417 CURVE SMOOTH",
"83 372 OFFCURVE",
"80 347 OFFCURVE",
"80 315 CURVE SMOOTH",
"80 207 OFFCURVE",
"115 121 OFFCURVE",
"184 61 CURVE SMOOTH",
"253 1 OFFCURVE",
"351 -29 OFFCURVE",
"477 -29 CURVE SMOOTH",
"550 -29 OFFCURVE",
"615 -19 OFFCURVE",
"676 1 CURVE SMOOTH",
"735 20 OFFCURVE",
"791 48 OFFCURVE",
"838 86 CURVE SMOOTH",
"891 129 OFFCURVE",
"931 181 OFFCURVE",
"964 253 CURVE SMOOTH",
"992 316 OFFCURVE",
"1019 397 OFFCURVE",
"1053 573 CURVE SMOOTH",
"1231 1493 LINE",
"1028 1493 LINE",
"850 573 LINE SMOOTH",
"832 481 OFFCURVE",
"816 413 OFFCURVE",
"801 361 CURVE SMOOTH",
"784 303 OFFCURVE",
"770 275 OFFCURVE",
"756 254 CURVE SMOOTH",
"728 213 OFFCURVE",
"693 186 OFFCURVE",
"649 165 CURVE SMOOTH",
"605 144 OFFCURVE",
"560 135 OFFCURVE",
"501 135 CURVE SMOOTH",
"424 135 OFFCURVE",
"370 150 OFFCURVE",
"334 181 CURVE SMOOTH",
"300 210 OFFCURVE",
"279 256 OFFCURVE",
"279 313 CURVE SMOOTH",
"279 353 OFFCURVE",
"289 434 OFFCURVE",
"309 532 CURVE SMOOTH",
"313 551 OFFCURVE",
"316 564 OFFCURVE",
"317 573 CURVE",
"496 1493 LINE",
"293 1493 LINE"
);
},
{
closed = 1;
nodes = (
"737 1899 LINE",
"555 1899 LINE",
"745 1635 LINE",
"884 1635 LINE"
);
}
);
width = 1233;
}
);
note = "\012\011Ugrave\012  ";
unicode = 00D9;
},
{
glyphname = Uhorn;
lastChange = "2015-07-22 00:38:00 +0000";
layers = (
{
layerId = "74927890-37A3-4F23-AAA5-AC99B6EBF53D";
name = "Regular Italic";
paths = (
{
closed = 1;
nodes = (
"156 1493 LINE",
"359 1493 LINE",
"180 573 LINE",
"179 564 OFFCURVE",
"176 551 OFFCURVE",
"172 532 CURVE SMOOTH",
"152 429 OFFCURVE",
"142 358 OFFCURVE",
"142 319 CURVE SMOOTH",
"142 196 OFFCURVE",
"214 135 OFFCURVE",
"361 135 CURVE SMOOTH",
"480 135 OFFCURVE",
"559 171 OFFCURVE",
"619 254 CURVE SMOOTH",
"634 275 OFFCURVE",
"649 310 OFFCURVE",
"664 361 CURVE SMOOTH",
"679 411 OFFCURVE",
"695 482 OFFCURVE",
"713 573 CURVE SMOOTH",
"891 1493 LINE",
"1094 1493 LINE",
"916 573 LINE SMOOTH",
"860 281 OFFCURVE",
"805 170 OFFCURVE",
"701 86 CURVE SMOOTH",
"606 11 OFFCURVE",
"483 -29 OFFCURVE",
"342 -29 CURVE SMOOTH",
"86 -29 OFFCURVE",
"-57 96 OFFCURVE",
"-57 317 CURVE SMOOTH",
"-57 366 OFFCURVE",
"-46 449 OFFCURVE",
"-22 573 CURVE SMOOTH"
);
},
{
closed = 1;
nodes = (
"932 1411 LINE",
"1001 1351 OFFCURVE",
"1054 1323 OFFCURVE",
"1095 1323 CURVE SMOOTH",
"1156 1323 OFFCURVE",
"1193 1360 OFFCURVE",
"1208 1432 CURVE SMOOTH",
"1216 1475 OFFCURVE",
"1214 1516 OFFCURVE",
"1202 1557 CURVE",
"1335 1557 LINE",
"1339 1506 OFFCURVE",
"1337 1461 OFFCURVE",
"1329 1421 CURVE SMOOTH",
"1297 1258 OFFCURVE",
"1227 1184 OFFCURVE",
"1103 1184 CURVE SMOOTH",
"1039 1184 OFFCURVE",
"977 1219 OFFCURVE",
"909 1292 CURVE"
);
}
);
width = 1233;
}
);
note = Uhorn;
unicode = 01AF;
},
{
glyphname = Uhungarumlaut;
lastChange = "2015-07-22 00:32:48 +0000";
layers = (
{
layerId = "74927890-37A3-4F23-AAA5-AC99B6EBF53D";
name = "Regular Italic";
paths = (
{
closed = 1;
nodes = (
"293 1493 LINE",
"496 1493 LINE",
"317 573 LINE",
"316 564 OFFCURVE",
"313 551 OFFCURVE",
"309 532 CURVE SMOOTH",
"289 429 OFFCURVE",
"279 358 OFFCURVE",
"279 319 CURVE SMOOTH",
"279 196 OFFCURVE",
"351 135 OFFCURVE",
"498 135 CURVE SMOOTH",
"617 135 OFFCURVE",
"696 171 OFFCURVE",
"756 254 CURVE SMOOTH",
"771 275 OFFCURVE",
"786 310 OFFCURVE",
"801 361 CURVE SMOOTH",
"816 411 OFFCURVE",
"832 482 OFFCURVE",
"850 573 CURVE SMOOTH",
"1028 1493 LINE",
"1231 1493 LINE",
"1053 573 LINE SMOOTH",
"997 281 OFFCURVE",
"942 170 OFFCURVE",
"838 86 CURVE SMOOTH",
"743 11 OFFCURVE",
"620 -29 OFFCURVE",
"479 -29 CURVE SMOOTH",
"223 -29 OFFCURVE",
"80 96 OFFCURVE",
"80 317 CURVE SMOOTH",
"80 366 OFFCURVE",
"91 449 OFFCURVE",
"115 573 CURVE SMOOTH"
);
},
{
closed = 1;
nodes = (
"1085 1899 LINE",
"1271 1899 LINE",
"991 1635 LINE",
"837 1635 LINE"
);
},
{
closed = 1;
nodes = (
"766 1899 LINE",
"952 1899 LINE",
"672 1635 LINE",
"518 1635 LINE"
);
}
);
width = 1233;
}
);
note = Uhungarumlaut;
unicode = 0170;
},
{
glyphname = Umacron;
lastChange = "2015-07-22 00:32:48 +0000";
layers = (
{
layerId = "74927890-37A3-4F23-AAA5-AC99B6EBF53D";
name = "Regular Italic";
paths = (
{
closed = 1;
nodes = (
"293 1493 LINE",
"496 1493 LINE",
"317 573 LINE",
"316 564 OFFCURVE",
"313 551 OFFCURVE",
"309 532 CURVE SMOOTH",
"289 429 OFFCURVE",
"279 358 OFFCURVE",
"279 319 CURVE SMOOTH",
"279 196 OFFCURVE",
"351 135 OFFCURVE",
"498 135 CURVE SMOOTH",
"617 135 OFFCURVE",
"696 171 OFFCURVE",
"756 254 CURVE SMOOTH",
"771 275 OFFCURVE",
"786 310 OFFCURVE",
"801 361 CURVE SMOOTH",
"816 411 OFFCURVE",
"832 482 OFFCURVE",
"850 573 CURVE SMOOTH",
"1028 1493 LINE",
"1231 1493 LINE",
"1053 573 LINE SMOOTH",
"997 281 OFFCURVE",
"942 170 OFFCURVE",
"838 86 CURVE SMOOTH",
"743 11 OFFCURVE",
"620 -29 OFFCURVE",
"479 -29 CURVE SMOOTH",
"223 -29 OFFCURVE",
"80 96 OFFCURVE",
"80 317 CURVE SMOOTH",
"80 366 OFFCURVE",
"91 449 OFFCURVE",
"115 573 CURVE SMOOTH"
);
},
{
closed = 1;
nodes = (
"531 1840 LINE",
"1129 1840 LINE",
"1100 1692 LINE",
"502 1692 LINE"
);
}
);
width = 1233;
}
);
note = Umacron;
unicode = 016A;
},
{
glyphname = Uogonek;
lastChange = "2015-07-22 00:32:48 +0000";
layers = (
{
layerId = "74927890-37A3-4F23-AAA5-AC99B6EBF53D";
name = "Regular Italic";
paths = (
{
closed = 1;
nodes = (
"293 1493 LINE",
"496 1493 LINE",
"317 573 LINE",
"316 564 OFFCURVE",
"313 551 OFFCURVE",
"309 532 CURVE SMOOTH",
"289 429 OFFCURVE",
"279 358 OFFCURVE",
"279 319 CURVE SMOOTH",
"279 196 OFFCURVE",
"351 135 OFFCURVE",
"498 135 CURVE SMOOTH",
"617 135 OFFCURVE",
"696 171 OFFCURVE",
"756 254 CURVE SMOOTH",
"771 275 OFFCURVE",
"786 310 OFFCURVE",
"801 361 CURVE SMOOTH",
"816 411 OFFCURVE",
"832 482 OFFCURVE",
"850 573 CURVE SMOOTH",
"1028 1493 LINE",
"1231 1493 LINE",
"1053 573 LINE SMOOTH",
"997 281 OFFCURVE",
"942 170 OFFCURVE",
"838 86 CURVE SMOOTH",
"743 11 OFFCURVE",
"620 -29 OFFCURVE",
"479 -29 CURVE SMOOTH",
"223 -29 OFFCURVE",
"80 96 OFFCURVE",
"80 317 CURVE SMOOTH",
"80 366 OFFCURVE",
"91 449 OFFCURVE",
"115 573 CURVE SMOOTH"
);
},
{
closed = 1;
nodes = (
"468 -16 LINE",
"387 -93 OFFCURVE",
"343 -162 OFFCURVE",
"343 -213 CURVE SMOOTH",
"343 -262 OFFCURVE",
"375 -288 OFFCURVE",
"435 -288 CURVE SMOOTH",
"479 -288 OFFCURVE",
"523 -278 OFFCURVE",
"566 -258 CURVE",
"541 -391 LINE",
"496 -404 OFFCURVE",
"447 -411 OFFCURVE",
"402 -411 CURVE SMOOTH",
"273 -411 OFFCURVE",
"197 -355 OFFCURVE",
"197 -260 CURVE SMOOTH",
"197 -187 OFFCURVE",
"246 -108 OFFCURVE",
"349 -16 CURVE"
);
}
);
width = 1233;
}
);
note = Uogonek;
unicode = 0172;
},
{
glyphname = Uring;
lastChange = "2015-07-22 00:32:48 +0000";
layers = (
{
layerId = "74927890-37A3-4F23-AAA5-AC99B6EBF53D";
name = "Regular Italic";
paths = (
{
closed = 1;
nodes = (
"293 1493 LINE",
"496 1493 LINE",
"317 573 LINE",
"316 564 OFFCURVE",
"313 551 OFFCURVE",
"309 532 CURVE SMOOTH",
"289 429 OFFCURVE",
"279 358 OFFCURVE",
"279 319 CURVE SMOOTH",
"279 196 OFFCURVE",
"351 135 OFFCURVE",
"498 135 CURVE SMOOTH",
"617 135 OFFCURVE",
"696 171 OFFCURVE",
"756 254 CURVE SMOOTH",
"771 275 OFFCURVE",
"786 310 OFFCURVE",
"801 361 CURVE SMOOTH",
"816 411 OFFCURVE",
"832 482 OFFCURVE",
"850 573 CURVE SMOOTH",
"1028 1493 LINE",
"1231 1493 LINE",
"1053 573 LINE SMOOTH",
"997 281 OFFCURVE",
"942 170 OFFCURVE",
"838 86 CURVE SMOOTH",
"743 11 OFFCURVE",
"620 -29 OFFCURVE",
"479 -29 CURVE SMOOTH",
"223 -29 OFFCURVE",
"80 96 OFFCURVE",
"80 317 CURVE SMOOTH",
"80 366 OFFCURVE",
"91 449 OFFCURVE",
"115 573 CURVE SMOOTH"
);
},
{
closed = 1;
nodes = (
"912 1711 OFFCURVE",
"845 1778 OFFCURVE",
"760 1778 CURVE SMOOTH",
"675 1778 OFFCURVE",
"609 1713 OFFCURVE",
"609 1626 CURVE SMOOTH",
"609 1541 OFFCURVE",
"675 1475 OFFCURVE",
"760 1475 CURVE SMOOTH",
"845 1475 OFFCURVE",
"912 1542 OFFCURVE",
"912 1626 CURVE SMOOTH"
);
},
{
closed = 1;
nodes = (
"1035 1473 OFFCURVE",
"913 1352 OFFCURVE",
"760 1352 CURVE SMOOTH",
"607 1352 OFFCURVE",
"486 1473 OFFCURVE",
"486 1626 CURVE SMOOTH",
"486 1781 OFFCURVE",
"607 1901 OFFCURVE",
"760 1901 CURVE SMOOTH",
"913 1901 OFFCURVE",
"1035 1781 OFFCURVE",
"1035 1626 CURVE SMOOTH"
);
}
);
width = 1233;
}
);
note = Uring;
unicode = 016E;
},
{
glyphname = Utilde;
lastChange = "2015-07-22 00:38:00 +0000";
layers = (
{
layerId = "74927890-37A3-4F23-AAA5-AC99B6EBF53D";
name = "Regular Italic";
paths = (
{
closed = 1;
nodes = (
"760 1735 LINE",
"758 1736 LINE",
"730 1757 OFFCURVE",
"703 1768 OFFCURVE",
"678 1768 CURVE SMOOTH",
"633 1768 OFFCURVE",
"596 1734 OFFCURVE",
"571 1667 CURVE",
"446 1667 LINE",
"493 1812 OFFCURVE",
"577 1886 OFFCURVE",
"690 1886 CURVE SMOOTH",
"735 1886 OFFCURVE",
"774 1872 OFFCURVE",
"821 1839 CURVE SMOOTH",
"856 1813 LINE SMOOTH",
"880 1794 OFFCURVE",
"904 1786 OFFCURVE",
"929 1786 CURVE SMOOTH",
"982 1786 OFFCURVE",
"1021 1825 OFFCURVE",
"1036 1886 CURVE",
"1161 1886 LINE",
"1118 1741 OFFCURVE",
"1034 1667 OFFCURVE",
"911 1667 CURVE SMOOTH",
"870 1667 OFFCURVE",
"835 1681 OFFCURVE",
"794 1710 CURVE SMOOTH"
);
},
{
closed = 1;
nodes = (
"293 1493 LINE",
"496 1493 LINE",
"317 573 LINE",
"316 564 OFFCURVE",
"313 551 OFFCURVE",
"309 532 CURVE SMOOTH",
"289 429 OFFCURVE",
"279 358 OFFCURVE",
"279 319 CURVE SMOOTH",
"279 196 OFFCURVE",
"351 135 OFFCURVE",
"498 135 CURVE SMOOTH",
"617 135 OFFCURVE",
"696 171 OFFCURVE",
"756 254 CURVE SMOOTH",
"771 275 OFFCURVE",
"786 310 OFFCURVE",
"801 361 CURVE SMOOTH",
"816 411 OFFCURVE",
"832 482 OFFCURVE",
"850 573 CURVE SMOOTH",
"1028 1493 LINE",
"1231 1493 LINE",
"1053 573 LINE SMOOTH",
"997 281 OFFCURVE",
"942 170 OFFCURVE",
"838 86 CURVE SMOOTH",
"743 11 OFFCURVE",
"620 -29 OFFCURVE",
"479 -29 CURVE SMOOTH",
"223 -29 OFFCURVE",
"80 96 OFFCURVE",
"80 317 CURVE SMOOTH",
"80 366 OFFCURVE",
"91 449 OFFCURVE",
"115 573 CURVE SMOOTH"
);
}
);
width = 1233;
}
);
note = Utilde;
unicode = 0168;
},
{
glyphname = V;
layers = (
{
layerId = "74927890-37A3-4F23-AAA5-AC99B6EBF53D";
name = "Regular Italic";
paths = (
{
closed = 1;
nodes = (
"510 190 LINE",
"397 1493 LINE",
"199 1493 LINE",
"346 0 LINE",
"604 0 LINE",
"1323 1493 LINE",
"1108 1493 LINE"
);
}
);
width = 1233;
}
);
note = "\012\011V\012  ";
unicode = 0056;
},
{
glyphname = W;
layers = (
{
layerId = "74927890-37A3-4F23-AAA5-AC99B6EBF53D";
name = "Regular Italic";
paths = (
{
closed = 1;
nodes = (
"145 1493 LINE",
"82 0 LINE",
"270 0 LINE",
"641 870 LINE",
"672 0 LINE",
"866 0 LINE",
"1376 1493 LINE",
"1178 1493 LINE",
"801 281 LINE",
"786 1083 LINE",
"575 1083 LINE",
"246 283 LINE",
"336 1493 LINE"
);
}
);
width = 1233;
}
);
note = "\012\011W\012  ";
unicode = 0057;
},
{
glyphname = Wacute;
lastChange = "2015-07-21 23:02:05 +0000";
layers = (
{
layerId = "74927890-37A3-4F23-AAA5-AC99B6EBF53D";
name = "Regular Italic";
paths = (
{
closed = 1;
nodes = (
"145 1493 LINE",
"336 1493 LINE",
"246 283 LINE",
"575 1083 LINE",
"786 1083 LINE",
"801 281 LINE",
"1178 1493 LINE",
"1376 1493 LINE",
"866 0 LINE",
"672 0 LINE",
"641 870 LINE",
"270 0 LINE",
"82 0 LINE"
);
},
{
closed = 1;
nodes = (
"834 1906 LINE",
"1042 1906 LINE",
"735 1642 LINE",
"575 1642 LINE"
);
}
);
width = 1233;
}
);
note = Wacute;
unicode = 1E82;
},
{
glyphname = Wcircumflex;
lastChange = "2015-07-21 23:02:05 +0000";
layers = (
{
layerId = "74927890-37A3-4F23-AAA5-AC99B6EBF53D";
name = "Regular Italic";
paths = (
{
closed = 1;
nodes = (
"145 1493 LINE",
"336 1493 LINE",
"246 283 LINE",
"575 1083 LINE",
"786 1083 LINE",
"801 281 LINE",
"1178 1493 LINE",
"1376 1493 LINE",
"866 0 LINE",
"672 0 LINE",
"641 870 LINE",
"270 0 LINE",
"82 0 LINE"
);
},
{
closed = 1;
nodes = (
"727 1908 LINE",
"940 1908 LINE",
"1098 1642 LINE",
"965 1642 LINE",
"826 1820 LINE",
"617 1642 LINE",
"465 1642 LINE"
);
}
);
width = 1233;
}
);
note = Wcircumflex;
unicode = 0174;
},
{
glyphname = Wdieresis;
lastChange = "2015-07-21 23:02:05 +0000";
layers = (
{
layerId = "74927890-37A3-4F23-AAA5-AC99B6EBF53D";
name = "Regular Italic";
paths = (
{
closed = 1;
nodes = (
"531 1844 LINE",
"734 1844 LINE",
"695 1642 LINE",
"492 1642 LINE"
);
},
{
closed = 1;
nodes = (
"922 1844 LINE",
"1125 1844 LINE",
"1086 1642 LINE",
"883 1642 LINE"
);
},
{
closed = 1;
nodes = (
"145 1493 LINE",
"336 1493 LINE",
"246 283 LINE",
"575 1083 LINE",
"786 1083 LINE",
"801 281 LINE",
"1178 1493 LINE",
"1376 1493 LINE",
"866 0 LINE",
"672 0 LINE",
"641 870 LINE",
"270 0 LINE",
"82 0 LINE"
);
}
);
width = 1233;
}
);
note = Wdieresis;
unicode = 1E84;
},
{
glyphname = Wgrave;
lastChange = "2015-07-21 23:02:05 +0000";
layers = (
{
layerId = "74927890-37A3-4F23-AAA5-AC99B6EBF53D";
name = "Regular Italic";
paths = (
{
closed = 1;
nodes = (
"145 1493 LINE",
"336 1493 LINE",
"246 283 LINE",
"575 1083 LINE",
"786 1083 LINE",
"801 281 LINE",
"1178 1493 LINE",
"1376 1493 LINE",
"866 0 LINE",
"672 0 LINE",
"641 870 LINE",
"270 0 LINE",
"82 0 LINE"
);
},
{
closed = 1;
nodes = (
"682 1906 LINE",
"829 1642 LINE",
"690 1642 LINE",
"500 1906 LINE"
);
}
);
width = 1233;
}
);
note = Wgrave;
unicode = 1E80;
},
{
glyphname = X;
layers = (
{
layerId = "74927890-37A3-4F23-AAA5-AC99B6EBF53D";
name = "Regular Italic";
paths = (
{
closed = 1;
nodes = (
"242 1493 LINE",
"530 797 LINE",
"-127 0 LINE",
"104 0 LINE",
"610 612 LINE",
"864 0 LINE",
"1065 0 LINE",
"741 774 LINE",
"1337 1493 LINE",
"1106 1493 LINE",
"666 961 LINE",
"442 1493 LINE"
);
}
);
width = 1233;
}
);
note = "\012\011X\012  ";
unicode = 0058;
},
{
glyphname = Y;
layers = (
{
layerId = "74927890-37A3-4F23-AAA5-AC99B6EBF53D";
name = "Regular Italic";
paths = (
{
closed = 1;
nodes = (
"195 1493 LINE",
"508 670 LINE",
"377 0 LINE",
"584 0 LINE",
"713 670 LINE",
"1348 1493 LINE",
"1130 1493 LINE",
"633 842 LINE",
"397 1493 LINE"
);
}
);
width = 1233;
}
);
note = "\012\011Y\012  ";
unicode = 0059;
},
{
glyphname = Yacute;
layers = (
{
layerId = "74927890-37A3-4F23-AAA5-AC99B6EBF53D";
name = "Regular Italic";
paths = (
{
closed = 1;
nodes = (
"195 1493 LINE",
"508 670 LINE",
"377 0 LINE",
"584 0 LINE",
"713 670 LINE",
"1348 1493 LINE",
"1130 1493 LINE",
"633 842 LINE",
"397 1493 LINE"
);
},
{
closed = 1;
nodes = (
"891 1899 LINE",
"632 1635 LINE",
"792 1635 LINE",
"1099 1899 LINE"
);
}
);
width = 1233;
}
);
note = "\012\011Yacute\012  ";
unicode = 00DD;
},
{
glyphname = Ycircumflex;
lastChange = "2015-07-22 00:28:21 +0000";
layers = (
{
layerId = "74927890-37A3-4F23-AAA5-AC99B6EBF53D";
name = "Regular Italic";
paths = (
{
closed = 1;
nodes = (
"195 1493 LINE",
"397 1493 LINE",
"633 842 LINE",
"1130 1493 LINE",
"1348 1493 LINE",
"713 670 LINE",
"584 0 LINE",
"377 0 LINE",
"508 670 LINE"
);
},
{
closed = 1;
nodes = (
"735 1908 LINE",
"948 1908 LINE",
"1106 1642 LINE",
"973 1642 LINE",
"834 1820 LINE",
"625 1642 LINE",
"473 1642 LINE"
);
}
);
width = 1233;
}
);
note = Ycircumflex;
unicode = 0176;
},
{
glyphname = Ydieresis;
layers = (
{
layerId = "74927890-37A3-4F23-AAA5-AC99B6EBF53D";
name = "Regular Italic";
paths = (
{
closed = 1;
nodes = (
"195 1493 LINE",
"508 670 LINE",
"377 0 LINE",
"584 0 LINE",
"713 670 LINE",
"1348 1493 LINE",
"1130 1493 LINE",
"633 842 LINE",
"397 1493 LINE"
);
},
{
closed = 1;
nodes = (
"930 1870 LINE SMOOTH",
"912 1870 OFFCURVE",
"901 1861 OFFCURVE",
"898 1843 CURVE SMOOTH",
"870 1700 LINE SMOOTH",
"866 1680 OFFCURVE",
"877 1667 OFFCURVE",
"897 1667 CURVE SMOOTH",
"1040 1667 LINE SMOOTH",
"1058 1667 OFFCURVE",
"1069 1676 OFFCURVE",
"1072 1694 CURVE SMOOTH",
"1100 1837 LINE SMOOTH",
"1104 1857 OFFCURVE",
"1093 1870 OFFCURVE",
"1073 1870 CURVE SMOOTH"
);
},
{
closed = 1;
nodes = (
"539 1870 LINE SMOOTH",
"521 1870 OFFCURVE",
"510 1861 OFFCURVE",
"507 1843 CURVE SMOOTH",
"479 1700 LINE SMOOTH",
"475 1680 OFFCURVE",
"486 1667 OFFCURVE",
"506 1667 CURVE SMOOTH",
"648 1667 LINE SMOOTH",
"666 1667 OFFCURVE",
"676 1676 OFFCURVE",
"680 1694 CURVE SMOOTH",
"709 1837 LINE SMOOTH",
"713 1857 OFFCURVE",
"704 1870 OFFCURVE",
"683 1870 CURVE SMOOTH"
);
}
);
width = 1233;
}
);
note = "\012\011Ydieresis\012  ";
unicode = 0178;
},
{
glyphname = Ygrave;
lastChange = "2015-07-22 00:28:21 +0000";
layers = (
{
layerId = "74927890-37A3-4F23-AAA5-AC99B6EBF53D";
name = "Regular Italic";
paths = (
{
closed = 1;
nodes = (
"195 1493 LINE",
"397 1493 LINE",
"633 842 LINE",
"1130 1493 LINE",
"1348 1493 LINE",
"713 670 LINE",
"584 0 LINE",
"377 0 LINE",
"508 670 LINE"
);
},
{
closed = 1;
nodes = (
"682 1906 LINE",
"829 1642 LINE",
"690 1642 LINE",
"500 1906 LINE"
);
}
);
width = 1233;
}
);
note = Ygrave;
unicode = 1EF2;
},
{
glyphname = Z;
layers = (
{
layerId = "74927890-37A3-4F23-AAA5-AC99B6EBF53D";
name = "Regular Italic";
paths = (
{
closed = 1;
nodes = (
"314 1493 LINE",
"281 1323 LINE",
"1008 1323 LINE",
"32 154 LINE",
"3 0 LINE",
"1015 0 LINE",
"1049 170 LINE",
"275 170 LINE",
"1254 1339 LINE",
"1283 1493 LINE"
);
}
);
width = 1233;
}
);
note = "\012\011Z\012  ";
unicode = 005A;
},
{
glyphname = Zacute;
lastChange = "2015-07-22 00:32:48 +0000";
layers = (
{
layerId = "74927890-37A3-4F23-AAA5-AC99B6EBF53D";
name = "Regular Italic";
paths = (
{
closed = 1;
nodes = (
"907 1906 LINE",
"1115 1906 LINE",
"808 1642 LINE",
"648 1642 LINE"
);
},
{
closed = 1;
nodes = (
"305 1493 LINE",
"1274 1493 LINE",
"1245 1339 LINE",
"266 170 LINE",
"1040 170 LINE",
"1006 0 LINE",
"-6 0 LINE",
"23 154 LINE",
"999 1323 LINE",
"272 1323 LINE"
);
}
);
width = 1233;
}
);
note = Zacute;
unicode = 0179;
},
{
glyphname = Zcaron;
layers = (
{
layerId = "74927890-37A3-4F23-AAA5-AC99B6EBF53D";
name = "Regular Italic";
paths = (
{
closed = 1;
nodes = (
"305 1493 LINE",
"272 1323 LINE",
"999 1323 LINE",
"23 154 LINE",
"-6 0 LINE",
"1006 0 LINE",
"1040 170 LINE",
"266 170 LINE",
"1245 1339 LINE",
"1274 1493 LINE"
);
},
{
closed = 1;
nodes = (
"870 1635 LINE",
"1134 1901 LINE",
"983 1901 LINE",
"774 1723 LINE",
"635 1901 LINE",
"499 1901 LINE",
"657 1635 LINE"
);
}
);
width = 1233;
}
);
note = "\012\011Zcaron\012  ";
unicode = 017D;
},
{
glyphname = Zdotaccent;
lastChange = "2015-07-22 00:32:48 +0000";
layers = (
{
layerId = "74927890-37A3-4F23-AAA5-AC99B6EBF53D";
name = "Regular Italic";
paths = (
{
closed = 1;
nodes = (
"305 1493 LINE",
"1274 1493 LINE",
"1245 1339 LINE",
"266 170 LINE",
"1040 170 LINE",
"1006 0 LINE",
"-6 0 LINE",
"23 154 LINE",
"999 1323 LINE",
"272 1323 LINE"
);
},
{
closed = 1;
nodes = (
"783 1872 LINE",
"988 1872 LINE",
"948 1667 LINE",
"743 1667 LINE"
);
}
);
width = 1233;
}
);
note = Zdotaccent;
unicode = 017B;
},
{
glyphname = Acircumflex.001;
lastChange = "2015-07-22 00:30:32 +0000";
layers = (
{
layerId = "74927890-37A3-4F23-AAA5-AC99B6EBF53D";
name = "Regular Italic";
paths = (
{
closed = 1;
nodes = (
"735 1325 LINE",
"371 551 LINE",
"801 551 LINE"
);
},
{
closed = 1;
nodes = (
"639 1493 LINE",
"885 1493 LINE",
"1051 0 LINE",
"850 0 LINE",
"815 389 LINE",
"295 389 LINE",
"111 0 LINE",
"-106 0 LINE"
);
},
{
closed = 1;
nodes = (
"704 1901 LINE",
"917 1901 LINE",
"1075 1635 LINE",
"942 1635 LINE",
"803 1813 LINE",
"594 1635 LINE",
"442 1635 LINE"
);
}
);
width = 1233;
}
);
note = Acircumflex;
},
{
glyphname = a;
layers = (
{
layerId = "74927890-37A3-4F23-AAA5-AC99B6EBF53D";
name = "Regular Italic";
paths = (
{
closed = 1;
nodes = (
"864 563 LINE",
"856 522 LINE SMOOTH",
"833 405 OFFCURVE",
"782 302 OFFCURVE",
"711 231 CURVE SMOOTH",
"639 160 OFFCURVE",
"551 125 OFFCURVE",
"460 125 CURVE SMOOTH",
"396 125 OFFCURVE",
"350 142 OFFCURVE",
"316 174 CURVE SMOOTH",
"288 201 OFFCURVE",
"264 244 OFFCURVE",
"264 307 CURVE SMOOTH",
"264 355 OFFCURVE",
"278 401 OFFCURVE",
"305 442 CURVE SMOOTH",
"338 492 OFFCURVE",
"380 516 OFFCURVE",
"414 530 CURVE SMOOTH",
"440 541 OFFCURVE",
"476 551 OFFCURVE",
"515 556 CURVE SMOOTH",
"554 561 OFFCURVE",
"613 563 OFFCURVE",
"692 563 CURVE SMOOTH"
);
},
{
closed = 1;
nodes = (
"1063 639 LINE SMOOTH",
"1070 676 OFFCURVE",
"1076 711 OFFCURVE",
"1081 754 CURVE SMOOTH",
"1085 789 OFFCURVE",
"1087 816 OFFCURVE",
"1087 839 CURVE SMOOTH",
"1087 935 OFFCURVE",
"1050 1013 OFFCURVE",
"985 1065 CURVE SMOOTH",
"916 1120 OFFCURVE",
"815 1147 OFFCURVE",
"693 1147 CURVE SMOOTH",
"636 1147 OFFCURVE",
"573 1141 OFFCURVE",
"508 1128 CURVE SMOOTH",
"443 1115 OFFCURVE",
"375 1095 OFFCURVE",
"303 1069 CURVE",
"268 889 LINE",
"342 923 OFFCURVE",
"412 949 OFFCURVE",
"479 966 CURVE SMOOTH",
"545 983 OFFCURVE",
"608 991 OFFCURVE",
"663 991 CURVE SMOOTH",
"744 991 OFFCURVE",
"806 974 OFFCURVE",
"845 946 CURVE SMOOTH",
"887 916 OFFCURVE",
"907 870 OFFCURVE",
"907 806 CURVE SMOOTH",
"907 804 OFFCURVE",
"907 794 OFFCURVE",
"906 787 CURVE SMOOTH",
"905 782 OFFCURVE",
"904 773 OFFCURVE",
"903 768 CURVE SMOOTH",
"891 707 LINE",
"645 707 LINE SMOOTH",
"471 707 OFFCURVE",
"327 667 OFFCURVE",
"226 590 CURVE SMOOTH",
"123 511 OFFCURVE",
"72 400 OFFCURVE",
"72 280 CURVE SMOOTH",
"72 189 OFFCURVE",
"101 111 OFFCURVE",
"164 54 CURVE SMOOTH",
"225 -1 OFFCURVE",
"309 -29 OFFCURVE",
"407 -29 CURVE SMOOTH",
"483 -29 OFFCURVE",
"550 -12 OFFCURVE",
"616 22 CURVE SMOOTH",
"681 55 OFFCURVE",
"738 103 OFFCURVE",
"786 166 CURVE",
"754 0 LINE",
"938 0 LINE"
);
}
);
width = 1233;
}
);
note = "\012\011a\012  ";
unicode = 0061;
},
{
glyphname = aacute;
layers = (
{
layerId = "74927890-37A3-4F23-AAA5-AC99B6EBF53D";
name = "Regular Italic";
paths = (
{
closed = 1;
nodes = (
"864 563 LINE",
"856 522 LINE SMOOTH",
"833 405 OFFCURVE",
"782 302 OFFCURVE",
"711 231 CURVE SMOOTH",
"639 160 OFFCURVE",
"551 125 OFFCURVE",
"460 125 CURVE SMOOTH",
"396 125 OFFCURVE",
"350 142 OFFCURVE",
"316 174 CURVE SMOOTH",
"288 201 OFFCURVE",
"264 244 OFFCURVE",
"264 307 CURVE SMOOTH",
"264 355 OFFCURVE",
"278 401 OFFCURVE",
"305 442 CURVE SMOOTH",
"338 492 OFFCURVE",
"380 516 OFFCURVE",
"414 530 CURVE SMOOTH",
"440 541 OFFCURVE",
"476 551 OFFCURVE",
"515 556 CURVE SMOOTH",
"554 561 OFFCURVE",
"613 563 OFFCURVE",
"692 563 CURVE SMOOTH"
);
},
{
closed = 1;
nodes = (
"1063 639 LINE SMOOTH",
"1070 676 OFFCURVE",
"1076 711 OFFCURVE",
"1081 754 CURVE SMOOTH",
"1085 789 OFFCURVE",
"1087 816 OFFCURVE",
"1087 839 CURVE SMOOTH",
"1087 935 OFFCURVE",
"1050 1013 OFFCURVE",
"985 1065 CURVE SMOOTH",
"916 1120 OFFCURVE",
"815 1147 OFFCURVE",
"693 1147 CURVE SMOOTH",
"636 1147 OFFCURVE",
"573 1141 OFFCURVE",
"508 1128 CURVE SMOOTH",
"443 1115 OFFCURVE",
"375 1095 OFFCURVE",
"303 1069 CURVE",
"268 889 LINE",
"342 923 OFFCURVE",
"412 949 OFFCURVE",
"479 966 CURVE SMOOTH",
"545 983 OFFCURVE",
"608 991 OFFCURVE",
"663 991 CURVE SMOOTH",
"744 991 OFFCURVE",
"806 974 OFFCURVE",
"845 946 CURVE SMOOTH",
"887 916 OFFCURVE",
"907 870 OFFCURVE",
"907 806 CURVE SMOOTH",
"907 804 OFFCURVE",
"907 794 OFFCURVE",
"906 787 CURVE SMOOTH",
"905 782 OFFCURVE",
"904 773 OFFCURVE",
"903 768 CURVE SMOOTH",
"891 707 LINE",
"645 707 LINE SMOOTH",
"471 707 OFFCURVE",
"327 667 OFFCURVE",
"226 590 CURVE SMOOTH",
"123 511 OFFCURVE",
"72 400 OFFCURVE",
"72 280 CURVE SMOOTH",
"72 189 OFFCURVE",
"101 111 OFFCURVE",
"164 54 CURVE SMOOTH",
"225 -1 OFFCURVE",
"309 -29 OFFCURVE",
"407 -29 CURVE SMOOTH",
"483 -29 OFFCURVE",
"550 -12 OFFCURVE",
"616 22 CURVE SMOOTH",
"681 55 OFFCURVE",
"738 103 OFFCURVE",
"786 166 CURVE",
"754 0 LINE",
"938 0 LINE"
);
},
{
closed = 1;
nodes = (
"911 1638 LINE",
"579 1262 LINE",
"735 1262 LINE",
"1130 1638 LINE"
);
}
);
width = 1233;
}
);
note = "\012\011aacute\012  ";
unicode = 00E1;
},
{
glyphname = abreve;
lastChange = "2015-07-22 00:32:48 +0000";
layers = (
{
layerId = "74927890-37A3-4F23-AAA5-AC99B6EBF53D";
name = "Regular Italic";
paths = (
{
closed = 1;
nodes = (
"692 563 LINE SMOOTH",
"533 563 OFFCURVE",
"471 554 OFFCURVE",
"414 530 CURVE SMOOTH",
"323 494 OFFCURVE",
"264 404 OFFCURVE",
"264 307 CURVE SMOOTH",
"264 196 OFFCURVE",
"338 125 OFFCURVE",
"455 125 CURVE SMOOTH",
"652 125 OFFCURVE",
"805 275 OFFCURVE",
"856 522 CURVE SMOOTH",
"864 563 LINE"
);
},
{
closed = 1;
nodes = (
"938 0 LINE",
"754 0 LINE",
"786 166 LINE",
"690 41 OFFCURVE",
"555 -29 OFFCURVE",
"408 -29 CURVE SMOOTH",
"204 -29 OFFCURVE",
"72 92 OFFCURVE",
"72 276 CURVE SMOOTH",
"72 537 OFFCURVE",
"293 707 OFFCURVE",
"645 707 CURVE SMOOTH",
"891 707 LINE",
"903 768 LINE",
"906 780 OFFCURVE",
"907 791 OFFCURVE",
"907 815 CURVE SMOOTH",
"907 928 OFFCURVE",
"820 991 OFFCURVE",
"664 991 CURVE SMOOTH",
"549 991 OFFCURVE",
"416 957 OFFCURVE",
"268 889 CURVE",
"303 1069 LINE",
"447 1121 OFFCURVE",
"575 1147 OFFCURVE",
"694 1147 CURVE SMOOTH",
"942 1147 OFFCURVE",
"1087 1031 OFFCURVE",
"1087 838 CURVE SMOOTH",
"1087 795 OFFCURVE",
"1079 723 OFFCURVE",
"1063 639 CURVE SMOOTH"
);
},
{
closed = 1;
nodes = (
"592 1608 LINE",
"592 1591 LINE SMOOTH",
"592 1504 OFFCURVE",
"651 1458 OFFCURVE",
"764 1458 CURVE SMOOTH",
"871 1458 OFFCURVE",
"940 1507 OFFCURVE",
"979 1608 CURVE",
"1098 1608 LINE",
"1055 1420 OFFCURVE",
"933 1321 OFFCURVE",
"748 1321 CURVE SMOOTH",
"569 1321 OFFCURVE",
"469 1410 OFFCURVE",
"469 1567 CURVE SMOOTH",
"469 1590 OFFCURVE",
"469 1597 OFFCURVE",
"472 1608 CURVE"
);
}
);
width = 1233;
}
);
note = abreve;
unicode = 0103;
},
{
glyphname = acircumflex;
layers = (
{
layerId = "74927890-37A3-4F23-AAA5-AC99B6EBF53D";
name = "Regular Italic";
paths = (
{
closed = 1;
nodes = (
"864 563 LINE",
"856 522 LINE SMOOTH",
"833 405 OFFCURVE",
"782 302 OFFCURVE",
"711 231 CURVE SMOOTH",
"639 160 OFFCURVE",
"551 125 OFFCURVE",
"460 125 CURVE SMOOTH",
"396 125 OFFCURVE",
"350 142 OFFCURVE",
"316 174 CURVE SMOOTH",
"288 201 OFFCURVE",
"264 244 OFFCURVE",
"264 307 CURVE SMOOTH",
"264 355 OFFCURVE",
"278 401 OFFCURVE",
"305 442 CURVE SMOOTH",
"338 492 OFFCURVE",
"380 516 OFFCURVE",
"414 530 CURVE SMOOTH",
"440 541 OFFCURVE",
"476 551 OFFCURVE",
"515 556 CURVE SMOOTH",
"554 561 OFFCURVE",
"613 563 OFFCURVE",
"692 563 CURVE SMOOTH"
);
},
{
closed = 1;
nodes = (
"1063 639 LINE SMOOTH",
"1070 676 OFFCURVE",
"1076 711 OFFCURVE",
"1081 754 CURVE SMOOTH",
"1085 789 OFFCURVE",
"1087 816 OFFCURVE",
"1087 839 CURVE SMOOTH",
"1087 935 OFFCURVE",
"1050 1013 OFFCURVE",
"985 1065 CURVE SMOOTH",
"916 1120 OFFCURVE",
"815 1147 OFFCURVE",
"693 1147 CURVE SMOOTH",
"636 1147 OFFCURVE",
"573 1141 OFFCURVE",
"508 1128 CURVE SMOOTH",
"443 1115 OFFCURVE",
"375 1095 OFFCURVE",
"303 1069 CURVE",
"268 889 LINE",
"342 923 OFFCURVE",
"412 949 OFFCURVE",
"479 966 CURVE SMOOTH",
"545 983 OFFCURVE",
"608 991 OFFCURVE",
"663 991 CURVE SMOOTH",
"744 991 OFFCURVE",
"806 974 OFFCURVE",
"845 946 CURVE SMOOTH",
"887 916 OFFCURVE",
"907 870 OFFCURVE",
"907 806 CURVE SMOOTH",
"907 804 OFFCURVE",
"907 794 OFFCURVE",
"906 787 CURVE SMOOTH",
"905 782 OFFCURVE",
"904 773 OFFCURVE",
"903 768 CURVE SMOOTH",
"891 707 LINE",
"645 707 LINE SMOOTH",
"471 707 OFFCURVE",
"327 667 OFFCURVE",
"226 590 CURVE SMOOTH",
"123 511 OFFCURVE",
"72 400 OFFCURVE",
"72 280 CURVE SMOOTH",
"72 189 OFFCURVE",
"101 111 OFFCURVE",
"164 54 CURVE SMOOTH",
"225 -1 OFFCURVE",
"309 -29 OFFCURVE",
"407 -29 CURVE SMOOTH",
"483 -29 OFFCURVE",
"550 -12 OFFCURVE",
"616 22 CURVE SMOOTH",
"681 55 OFFCURVE",
"738 103 OFFCURVE",
"786 166 CURVE",
"754 0 LINE",
"938 0 LINE"
);
},
{
closed = 1;
nodes = (
"721 1638 LINE",
"401 1262 LINE",
"557 1262 LINE",
"782 1503 LINE",
"899 1262 LINE",
"1032 1262 LINE",
"868 1638 LINE"
);
}
);
width = 1233;
}
);
note = "\012\011acircumflex\012  ";
unicode = 00E2;
},
{
glyphname = adieresis;
layers = (
{
layerId = "74927890-37A3-4F23-AAA5-AC99B6EBF53D";
name = "Regular Italic";
paths = (
{
closed = 1;
nodes = (
"864 563 LINE",
"856 522 LINE SMOOTH",
"833 405 OFFCURVE",
"782 302 OFFCURVE",
"711 231 CURVE SMOOTH",
"639 160 OFFCURVE",
"551 125 OFFCURVE",
"460 125 CURVE SMOOTH",
"396 125 OFFCURVE",
"350 142 OFFCURVE",
"316 174 CURVE SMOOTH",
"288 201 OFFCURVE",
"264 244 OFFCURVE",
"264 307 CURVE SMOOTH",
"264 355 OFFCURVE",
"278 401 OFFCURVE",
"305 442 CURVE SMOOTH",
"338 492 OFFCURVE",
"380 516 OFFCURVE",
"414 530 CURVE SMOOTH",
"440 541 OFFCURVE",
"476 551 OFFCURVE",
"515 556 CURVE SMOOTH",
"554 561 OFFCURVE",
"613 563 OFFCURVE",
"692 563 CURVE SMOOTH"
);
},
{
closed = 1;
nodes = (
"1063 639 LINE SMOOTH",
"1070 676 OFFCURVE",
"1076 711 OFFCURVE",
"1081 754 CURVE SMOOTH",
"1085 789 OFFCURVE",
"1087 816 OFFCURVE",
"1087 839 CURVE SMOOTH",
"1087 935 OFFCURVE",
"1050 1013 OFFCURVE",
"985 1065 CURVE SMOOTH",
"916 1120 OFFCURVE",
"815 1147 OFFCURVE",
"693 1147 CURVE SMOOTH",
"636 1147 OFFCURVE",
"573 1141 OFFCURVE",
"508 1128 CURVE SMOOTH",
"443 1115 OFFCURVE",
"375 1095 OFFCURVE",
"303 1069 CURVE",
"268 889 LINE",
"342 923 OFFCURVE",
"412 949 OFFCURVE",
"479 966 CURVE SMOOTH",
"545 983 OFFCURVE",
"608 991 OFFCURVE",
"663 991 CURVE SMOOTH",
"744 991 OFFCURVE",
"806 974 OFFCURVE",
"845 946 CURVE SMOOTH",
"887 916 OFFCURVE",
"907 870 OFFCURVE",
"907 806 CURVE SMOOTH",
"907 804 OFFCURVE",
"907 794 OFFCURVE",
"906 787 CURVE SMOOTH",
"903 768 LINE",
"891 707 LINE",
"645 707 LINE SMOOTH",
"471 707 OFFCURVE",
"327 667 OFFCURVE",
"226 590 CURVE SMOOTH",
"123 511 OFFCURVE",
"72 400 OFFCURVE",
"72 280 CURVE SMOOTH",
"72 189 OFFCURVE",
"101 111 OFFCURVE",
"164 54 CURVE SMOOTH",
"225 -1 OFFCURVE",
"309 -29 OFFCURVE",
"407 -29 CURVE SMOOTH",
"483 -29 OFFCURVE",
"550 -12 OFFCURVE",
"616 22 CURVE SMOOTH",
"681 55 OFFCURVE",
"738 103 OFFCURVE",
"786 166 CURVE",
"754 0 LINE",
"938 0 LINE"
);
},
{
closed = 1;
nodes = (
"506 1552 LINE SMOOTH",
"488 1552 OFFCURVE",
"477 1543 OFFCURVE",
"474 1525 CURVE SMOOTH",
"446 1383 LINE SMOOTH",
"442 1363 OFFCURVE",
"453 1350 OFFCURVE",
"473 1350 CURVE SMOOTH",
"616 1350 LINE SMOOTH",
"634 1350 OFFCURVE",
"645 1359 OFFCURVE",
"648 1377 CURVE SMOOTH",
"676 1519 LINE SMOOTH",
"680 1539 OFFCURVE",
"669 1552 OFFCURVE",
"649 1552 CURVE SMOOTH"
);
},
{
closed = 1;
nodes = (
"897 1552 LINE SMOOTH",
"879 1552 OFFCURVE",
"868 1543 OFFCURVE",
"865 1525 CURVE SMOOTH",
"837 1383 LINE SMOOTH",
"833 1363 OFFCURVE",
"844 1350 OFFCURVE",
"864 1350 CURVE SMOOTH",
"1007 1350 LINE SMOOTH",
"1025 1350 OFFCURVE",
"1036 1359 OFFCURVE",
"1039 1377 CURVE SMOOTH",
"1067 1519 LINE SMOOTH",
"1071 1539 OFFCURVE",
"1060 1552 OFFCURVE",
"1040 1552 CURVE SMOOTH"
);
}
);
width = 1233;
}
);
note = "\012\011adieresis\012  ";
unicode = 00E4;
},
{
glyphname = agrave;
layers = (
{
layerId = "74927890-37A3-4F23-AAA5-AC99B6EBF53D";
name = "Regular Italic";
paths = (
{
closed = 1;
nodes = (
"864 563 LINE",
"856 522 LINE SMOOTH",
"833 405 OFFCURVE",
"782 302 OFFCURVE",
"711 231 CURVE SMOOTH",
"639 160 OFFCURVE",
"551 125 OFFCURVE",
"460 125 CURVE SMOOTH",
"396 125 OFFCURVE",
"350 142 OFFCURVE",
"316 174 CURVE SMOOTH",
"288 201 OFFCURVE",
"264 244 OFFCURVE",
"264 307 CURVE SMOOTH",
"264 355 OFFCURVE",
"278 401 OFFCURVE",
"305 442 CURVE SMOOTH",
"338 492 OFFCURVE",
"380 516 OFFCURVE",
"414 530 CURVE SMOOTH",
"440 541 OFFCURVE",
"476 551 OFFCURVE",
"515 556 CURVE SMOOTH",
"554 561 OFFCURVE",
"613 563 OFFCURVE",
"692 563 CURVE SMOOTH"
);
},
{
closed = 1;
nodes = (
"1063 639 LINE SMOOTH",
"1070 676 OFFCURVE",
"1076 711 OFFCURVE",
"1081 754 CURVE SMOOTH",
"1085 789 OFFCURVE",
"1087 816 OFFCURVE",
"1087 839 CURVE SMOOTH",
"1087 935 OFFCURVE",
"1050 1013 OFFCURVE",
"985 1065 CURVE SMOOTH",
"916 1120 OFFCURVE",
"815 1147 OFFCURVE",
"693 1147 CURVE SMOOTH",
"636 1147 OFFCURVE",
"573 1141 OFFCURVE",
"508 1128 CURVE SMOOTH",
"443 1115 OFFCURVE",
"375 1095 OFFCURVE",
"303 1069 CURVE",
"268 889 LINE",
"342 923 OFFCURVE",
"412 949 OFFCURVE",
"479 966 CURVE SMOOTH",
"545 983 OFFCURVE",
"608 991 OFFCURVE",
"663 991 CURVE SMOOTH",
"744 991 OFFCURVE",
"806 974 OFFCURVE",
"845 946 CURVE SMOOTH",
"887 916 OFFCURVE",
"907 870 OFFCURVE",
"907 806 CURVE SMOOTH",
"907 804 OFFCURVE",
"907 794 OFFCURVE",
"906 787 CURVE SMOOTH",
"905 782 OFFCURVE",
"904 773 OFFCURVE",
"903 768 CURVE SMOOTH",
"891 707 LINE",
"645 707 LINE SMOOTH",
"471 707 OFFCURVE",
"327 667 OFFCURVE",
"226 590 CURVE SMOOTH",
"123 511 OFFCURVE",
"72 400 OFFCURVE",
"72 280 CURVE SMOOTH",
"72 189 OFFCURVE",
"101 111 OFFCURVE",
"164 54 CURVE SMOOTH",
"225 -1 OFFCURVE",
"309 -29 OFFCURVE",
"407 -29 CURVE SMOOTH",
"483 -29 OFFCURVE",
"550 -12 OFFCURVE",
"616 22 CURVE SMOOTH",
"681 55 OFFCURVE",
"738 103 OFFCURVE",
"786 166 CURVE",
"754 0 LINE",
"938 0 LINE"
);
},
{
closed = 1;
nodes = (
"655 1638 LINE",
"457 1638 LINE",
"709 1262 LINE",
"852 1262 LINE"
);
}
);
width = 1233;
}
);
note = "\012\011agrave\012  ";
unicode = 00E0;
},
{
glyphname = amacron;
lastChange = "2015-07-22 00:32:48 +0000";
layers = (
{
layerId = "74927890-37A3-4F23-AAA5-AC99B6EBF53D";
name = "Regular Italic";
paths = (
{
closed = 1;
nodes = (
"692 563 LINE SMOOTH",
"533 563 OFFCURVE",
"471 554 OFFCURVE",
"414 530 CURVE SMOOTH",
"323 494 OFFCURVE",
"264 404 OFFCURVE",
"264 307 CURVE SMOOTH",
"264 196 OFFCURVE",
"338 125 OFFCURVE",
"455 125 CURVE SMOOTH",
"652 125 OFFCURVE",
"805 275 OFFCURVE",
"856 522 CURVE SMOOTH",
"864 563 LINE"
);
},
{
closed = 1;
nodes = (
"938 0 LINE",
"754 0 LINE",
"786 166 LINE",
"690 41 OFFCURVE",
"555 -29 OFFCURVE",
"408 -29 CURVE SMOOTH",
"204 -29 OFFCURVE",
"72 92 OFFCURVE",
"72 276 CURVE SMOOTH",
"72 537 OFFCURVE",
"293 707 OFFCURVE",
"645 707 CURVE SMOOTH",
"891 707 LINE",
"903 768 LINE",
"906 780 OFFCURVE",
"907 791 OFFCURVE",
"907 815 CURVE SMOOTH",
"907 928 OFFCURVE",
"820 991 OFFCURVE",
"664 991 CURVE SMOOTH",
"549 991 OFFCURVE",
"416 957 OFFCURVE",
"268 889 CURVE",
"303 1069 LINE",
"447 1121 OFFCURVE",
"575 1147 OFFCURVE",
"694 1147 CURVE SMOOTH",
"942 1147 OFFCURVE",
"1087 1031 OFFCURVE",
"1087 838 CURVE SMOOTH",
"1087 795 OFFCURVE",
"1079 723 OFFCURVE",
"1063 639 CURVE SMOOTH"
);
},
{
closed = 1;
nodes = (
"469 1526 LINE",
"1067 1526 LINE",
"1038 1378 LINE",
"440 1378 LINE"
);
}
);
width = 1233;
}
);
note = amacron;
unicode = 0101;
},
{
glyphname = aogonek;
lastChange = "2015-07-22 00:32:48 +0000";
layers = (
{
layerId = "74927890-37A3-4F23-AAA5-AC99B6EBF53D";
name = "Regular Italic";
paths = (
{
closed = 1;
nodes = (
"868 0 LINE",
"787 -77 OFFCURVE",
"743 -146 OFFCURVE",
"743 -197 CURVE SMOOTH",
"743 -246 OFFCURVE",
"775 -272 OFFCURVE",
"835 -272 CURVE SMOOTH",
"879 -272 OFFCURVE",
"923 -262 OFFCURVE",
"966 -242 CURVE",
"941 -375 LINE",
"896 -388 OFFCURVE",
"847 -395 OFFCURVE",
"802 -395 CURVE SMOOTH",
"673 -395 OFFCURVE",
"597 -339 OFFCURVE",
"597 -244 CURVE SMOOTH",
"597 -171 OFFCURVE",
"646 -92 OFFCURVE",
"749 0 CURVE"
);
},
{
closed = 1;
nodes = (
"692 563 LINE SMOOTH",
"533 563 OFFCURVE",
"471 554 OFFCURVE",
"414 530 CURVE SMOOTH",
"323 494 OFFCURVE",
"264 404 OFFCURVE",
"264 307 CURVE SMOOTH",
"264 196 OFFCURVE",
"338 125 OFFCURVE",
"455 125 CURVE SMOOTH",
"652 125 OFFCURVE",
"805 275 OFFCURVE",
"856 522 CURVE SMOOTH",
"864 563 LINE"
);
},
{
closed = 1;
nodes = (
"938 0 LINE",
"754 0 LINE",
"786 166 LINE",
"690 41 OFFCURVE",
"555 -29 OFFCURVE",
"408 -29 CURVE SMOOTH",
"204 -29 OFFCURVE",
"72 92 OFFCURVE",
"72 276 CURVE SMOOTH",
"72 537 OFFCURVE",
"293 707 OFFCURVE",
"645 707 CURVE SMOOTH",
"891 707 LINE",
"903 768 LINE",
"906 780 OFFCURVE",
"907 791 OFFCURVE",
"907 815 CURVE SMOOTH",
"907 928 OFFCURVE",
"820 991 OFFCURVE",
"664 991 CURVE SMOOTH",
"549 991 OFFCURVE",
"416 957 OFFCURVE",
"268 889 CURVE",
"303 1069 LINE",
"447 1121 OFFCURVE",
"575 1147 OFFCURVE",
"694 1147 CURVE SMOOTH",
"942 1147 OFFCURVE",
"1087 1031 OFFCURVE",
"1087 838 CURVE SMOOTH",
"1087 795 OFFCURVE",
"1079 723 OFFCURVE",
"1063 639 CURVE SMOOTH"
);
}
);
width = 1233;
}
);
note = aogonek;
unicode = 0105;
},
{
glyphname = aring;
layers = (
{
layerId = "74927890-37A3-4F23-AAA5-AC99B6EBF53D";
name = "Regular Italic";
paths = (
{
closed = 1;
nodes = (
"864 563 LINE",
"856 522 LINE SMOOTH",
"833 405 OFFCURVE",
"782 302 OFFCURVE",
"711 231 CURVE SMOOTH",
"639 160 OFFCURVE",
"551 125 OFFCURVE",
"460 125 CURVE SMOOTH",
"396 125 OFFCURVE",
"350 142 OFFCURVE",
"316 174 CURVE SMOOTH",
"288 201 OFFCURVE",
"264 244 OFFCURVE",
"264 307 CURVE SMOOTH",
"264 355 OFFCURVE",
"278 401 OFFCURVE",
"305 442 CURVE SMOOTH",
"338 492 OFFCURVE",
"380 516 OFFCURVE",
"414 530 CURVE SMOOTH",
"440 541 OFFCURVE",
"476 551 OFFCURVE",
"515 556 CURVE SMOOTH",
"554 561 OFFCURVE",
"613 563 OFFCURVE",
"692 563 CURVE SMOOTH"
);
},
{
closed = 1;
nodes = (
"1063 639 LINE SMOOTH",
"1070 676 OFFCURVE",
"1076 711 OFFCURVE",
"1081 754 CURVE SMOOTH",
"1085 789 OFFCURVE",
"1087 816 OFFCURVE",
"1087 839 CURVE SMOOTH",
"1087 935 OFFCURVE",
"1050 1013 OFFCURVE",
"985 1065 CURVE SMOOTH",
"916 1120 OFFCURVE",
"815 1147 OFFCURVE",
"693 1147 CURVE SMOOTH",
"636 1147 OFFCURVE",
"573 1141 OFFCURVE",
"508 1128 CURVE SMOOTH",
"443 1115 OFFCURVE",
"375 1095 OFFCURVE",
"303 1069 CURVE",
"268 889 LINE",
"342 923 OFFCURVE",
"412 949 OFFCURVE",
"479 966 CURVE SMOOTH",
"545 983 OFFCURVE",
"608 991 OFFCURVE",
"663 991 CURVE SMOOTH",
"744 991 OFFCURVE",
"806 974 OFFCURVE",
"845 946 CURVE SMOOTH",
"887 916 OFFCURVE",
"907 870 OFFCURVE",
"907 806 CURVE SMOOTH",
"907 804 OFFCURVE",
"907 794 OFFCURVE",
"906 787 CURVE SMOOTH",
"905 782 OFFCURVE",
"904 773 OFFCURVE",
"903 768 CURVE SMOOTH",
"891 707 LINE",
"645 707 LINE SMOOTH",
"471 707 OFFCURVE",
"327 667 OFFCURVE",
"226 590 CURVE SMOOTH",
"123 511 OFFCURVE",
"72 400 OFFCURVE",
"72 280 CURVE SMOOTH",
"72 189 OFFCURVE",
"101 111 OFFCURVE",
"164 54 CURVE SMOOTH",
"225 -1 OFFCURVE",
"309 -29 OFFCURVE",
"407 -29 CURVE SMOOTH",
"483 -29 OFFCURVE",
"550 -12 OFFCURVE",
"616 22 CURVE SMOOTH",
"681 55 OFFCURVE",
"738 103 OFFCURVE",
"786 166 CURVE",
"754 0 LINE",
"938 0 LINE"
);
},
{
closed = 1;
nodes = (
"934 1553 OFFCURVE",
"919 1517 OFFCURVE",
"890 1488 CURVE SMOOTH",
"861 1459 OFFCURVE",
"825 1444 OFFCURVE",
"782 1444 CURVE SMOOTH",
"739 1444 OFFCURVE",
"704 1459 OFFCURVE",
"675 1488 CURVE SMOOTH",
"646 1517 OFFCURVE",
"631 1552 OFFCURVE",
"631 1595 CURVE SMOOTH",
"631 1638 OFFCURVE",
"646 1675 OFFCURVE",
"675 1704 CURVE SMOOTH",
"704 1733 OFFCURVE",
"739 1747 OFFCURVE",
"782 1747 CURVE SMOOTH",
"825 1747 OFFCURVE",
"861 1732 OFFCURVE",
"890 1703 CURVE SMOOTH",
"919 1674 OFFCURVE",
"934 1638 OFFCURVE",
"934 1595 CURVE SMOOTH"
);
},
{
closed = 1;
nodes = (
"1057 1672 OFFCURVE",
"1030 1738 OFFCURVE",
"977 1791 CURVE SMOOTH",
"924 1844 OFFCURVE",
"859 1870 OFFCURVE",
"782 1870 CURVE SMOOTH",
"705 1870 OFFCURVE",
"641 1844 OFFCURVE",
"588 1791 CURVE SMOOTH",
"535 1738 OFFCURVE",
"508 1672 OFFCURVE",
"508 1595 CURVE SMOOTH",
"508 1518 OFFCURVE",
"535 1454 OFFCURVE",
"588 1401 CURVE SMOOTH",
"641 1348 OFFCURVE",
"705 1321 OFFCURVE",
"782 1321 CURVE SMOOTH",
"859 1321 OFFCURVE",
"924 1348 OFFCURVE",
"977 1401 CURVE SMOOTH",
"1030 1454 OFFCURVE",
"1057 1518 OFFCURVE",
"1057 1595 CURVE SMOOTH"
);
}
);
width = 1233;
}
);
note = "\012\011aring\012  ";
unicode = 00E5;
},
{
glyphname = atilde;
layers = (
{
layerId = "74927890-37A3-4F23-AAA5-AC99B6EBF53D";
name = "Regular Italic";
paths = (
{
closed = 1;
nodes = (
"864 563 LINE",
"856 522 LINE SMOOTH",
"833 405 OFFCURVE",
"782 302 OFFCURVE",
"711 231 CURVE SMOOTH",
"639 160 OFFCURVE",
"551 125 OFFCURVE",
"460 125 CURVE SMOOTH",
"396 125 OFFCURVE",
"350 142 OFFCURVE",
"316 174 CURVE SMOOTH",
"288 201 OFFCURVE",
"264 244 OFFCURVE",
"264 307 CURVE SMOOTH",
"264 355 OFFCURVE",
"278 401 OFFCURVE",
"305 442 CURVE SMOOTH",
"338 492 OFFCURVE",
"380 516 OFFCURVE",
"414 530 CURVE SMOOTH",
"440 541 OFFCURVE",
"476 551 OFFCURVE",
"515 556 CURVE SMOOTH",
"554 561 OFFCURVE",
"613 563 OFFCURVE",
"692 563 CURVE SMOOTH"
);
},
{
closed = 1;
nodes = (
"1063 639 LINE SMOOTH",
"1070 676 OFFCURVE",
"1076 711 OFFCURVE",
"1081 754 CURVE SMOOTH",
"1085 789 OFFCURVE",
"1087 816 OFFCURVE",
"1087 839 CURVE SMOOTH",
"1087 935 OFFCURVE",
"1050 1013 OFFCURVE",
"985 1065 CURVE SMOOTH",
"916 1120 OFFCURVE",
"815 1147 OFFCURVE",
"693 1147 CURVE SMOOTH",
"636 1147 OFFCURVE",
"573 1141 OFFCURVE",
"508 1128 CURVE SMOOTH",
"443 1115 OFFCURVE",
"375 1095 OFFCURVE",
"303 1069 CURVE",
"268 889 LINE",
"342 923 OFFCURVE",
"412 949 OFFCURVE",
"479 966 CURVE SMOOTH",
"545 983 OFFCURVE",
"608 991 OFFCURVE",
"663 991 CURVE SMOOTH",
"744 991 OFFCURVE",
"806 974 OFFCURVE",
"845 946 CURVE SMOOTH",
"887 916 OFFCURVE",
"907 870 OFFCURVE",
"907 806 CURVE SMOOTH",
"907 804 OFFCURVE",
"907 794 OFFCURVE",
"906 787 CURVE SMOOTH",
"905 782 OFFCURVE",
"904 773 OFFCURVE",
"903 768 CURVE SMOOTH",
"891 707 LINE",
"645 707 LINE SMOOTH",
"471 707 OFFCURVE",
"327 667 OFFCURVE",
"226 590 CURVE SMOOTH",
"123 511 OFFCURVE",
"72 400 OFFCURVE",
"72 280 CURVE SMOOTH",
"72 189 OFFCURVE",
"101 111 OFFCURVE",
"164 54 CURVE SMOOTH",
"225 -1 OFFCURVE",
"309 -29 OFFCURVE",
"407 -29 CURVE SMOOTH",
"483 -29 OFFCURVE",
"550 -12 OFFCURVE",
"616 22 CURVE SMOOTH",
"681 55 OFFCURVE",
"738 103 OFFCURVE",
"786 166 CURVE",
"754 0 LINE",
"938 0 LINE"
);
},
{
closed = 1;
nodes = (
"745 1376 LINE SMOOTH",
"773 1347 OFFCURVE",
"798 1331 OFFCURVE",
"818 1322 CURVE SMOOTH",
"840 1312 OFFCURVE",
"867 1307 OFFCURVE",
"894 1307 CURVE SMOOTH",
"952 1307 OFFCURVE",
"1002 1330 OFFCURVE",
"1041 1381 CURVE SMOOTH",
"1080 1432 OFFCURVE",
"1104 1507 OFFCURVE",
"1114 1591 CURVE",
"989 1591 LINE",
"984 1539 OFFCURVE",
"972 1499 OFFCURVE",
"957 1475 CURVE SMOOTH",
"942 1451 OFFCURVE",
"919 1436 OFFCURVE",
"892 1436 CURVE SMOOTH",
"880 1436 OFFCURVE",
"869 1439 OFFCURVE",
"858 1445 CURVE SMOOTH",
"843 1453 OFFCURVE",
"840 1456 OFFCURVE",
"821 1475 CURVE SMOOTH",
"774 1522 LINE SMOOTH",
"750 1546 OFFCURVE",
"724 1566 OFFCURVE",
"702 1576 CURVE SMOOTH",
"680 1586 OFFCURVE",
"653 1591 OFFCURVE",
"626 1591 CURVE SMOOTH",
"566 1591 OFFCURVE",
"517 1567 OFFCURVE",
"479 1518 CURVE SMOOTH",
"441 1469 OFFCURVE",
"416 1400 OFFCURVE",
"405 1309 CURVE",
"530 1309 LINE",
"535 1361 OFFCURVE",
"546 1400 OFFCURVE",
"562 1425 CURVE SMOOTH",
"581 1455 OFFCURVE",
"605 1462 OFFCURVE",
"625 1462 CURVE SMOOTH",
"638 1462 OFFCURVE",
"651 1459 OFFCURVE",
"662 1453 CURVE SMOOTH",
"675 1446 OFFCURVE",
"690 1433 OFFCURVE",
"698 1425 CURVE SMOOTH"
);
}
);
width = 1233;
}
);
note = "\012\011atilde\012  ";
unicode = 00E3;
},
{
glyphname = ae;
layers = (
{
layerId = "74927890-37A3-4F23-AAA5-AC99B6EBF53D";
name = "Regular Italic";
paths = (
{
closed = 1;
nodes = (
"487 442 LINE SMOOTH",
"461 317 OFFCURVE",
"438 240 OFFCURVE",
"401 191 CURVE SMOOTH",
"367 146 OFFCURVE",
"322 123 OFFCURVE",
"267 123 CURVE SMOOTH",
"230 123 OFFCURVE",
"190 133 OFFCURVE",
"161 162 CURVE SMOOTH",
"133 191 OFFCURVE",
"123 231 OFFCURVE",
"123 267 CURVE SMOOTH",
"123 295 OFFCURVE",
"129 328 OFFCURVE",
"141 362 CURVE SMOOTH",
"152 393 OFFCURVE",
"164 417 OFFCURVE",
"188 444 CURVE SMOOTH",
"211 470 OFFCURVE",
"235 486 OFFCURVE",
"276 498 CURVE SMOOTH",
"316 510 OFFCURVE",
"364 514 OFFCURVE",
"453 514 CURVE SMOOTH",
"502 514 LINE"
);
},
{
closed = 1;
nodes = (
"1024 657 LINE",
"694 657 LINE",
"711 739 LINE SMOOTH",
"729 824 OFFCURVE",
"749 886 OFFCURVE",
"788 932 CURVE SMOOTH",
"823 974 OFFCURVE",
"871 995 OFFCURVE",
"921 995 CURVE SMOOTH",
"961 995 OFFCURVE",
"995 982 OFFCURVE",
"1017 957 CURVE SMOOTH",
"1039 932 OFFCURVE",
"1051 891 OFFCURVE",
"1051 841 CURVE SMOOTH",
"1051 826 OFFCURVE",
"1050 805 OFFCURVE",
"1049 786 CURVE SMOOTH",
"1048 774 OFFCURVE",
"1045 754 OFFCURVE",
"1040 731 CURVE SMOOTH"
);
},
{
closed = 1;
nodes = (
"1163 514 LINE",
"1180 604 LINE SMOOTH",
"1186 636 OFFCURVE",
"1201 722 OFFCURVE",
"1206 760 CURVE SMOOTH",
"1211 798 OFFCURVE",
"1214 839 OFFCURVE",
"1214 867 CURVE SMOOTH",
"1214 946 OFFCURVE",
"1190 1019 OFFCURVE",
"1143 1070 CURVE SMOOTH",
"1095 1122 OFFCURVE",
"1028 1147 OFFCURVE",
"950 1147 CURVE SMOOTH",
"901 1147 OFFCURVE",
"848 1137 OFFCURVE",
"800 1114 CURVE SMOOTH",
"754 1092 OFFCURVE",
"711 1057 OFFCURVE",
"680 1018 CURVE",
"659 1060 OFFCURVE",
"629 1092 OFFCURVE",
"590 1114 CURVE SMOOTH",
"551 1136 OFFCURVE",
"503 1147 OFFCURVE",
"450 1147 CURVE SMOOTH",
"411 1147 OFFCURVE",
"370 1141 OFFCURVE",
"324 1130 CURVE SMOOTH",
"279 1119 OFFCURVE",
"234 1104 OFFCURVE",
"176 1079 CURVE",
"141 911 LINE",
"190 937 OFFCURVE",
"241 960 OFFCURVE",
"284 974 CURVE SMOOTH",
"324 987 OFFCURVE",
"364 995 OFFCURVE",
"400 995 CURVE SMOOTH",
"453 995 OFFCURVE",
"494 978 OFFCURVE",
"519 953 CURVE SMOOTH",
"545 927 OFFCURVE",
"561 888 OFFCURVE",
"561 832 CURVE SMOOTH",
"561 818 OFFCURVE",
"560 801 OFFCURVE",
"559 787 CURVE SMOOTH",
"558 770 OFFCURVE",
"556 759 OFFCURVE",
"553 745 CURVE SMOOTH",
"535 657 LINE",
"418 657 LINE SMOOTH",
"269 657 OFFCURVE",
"154 621 OFFCURVE",
"74 549 CURVE SMOOTH",
"-7 476 OFFCURVE",
"-47 367 OFFCURVE",
"-47 252 CURVE SMOOTH",
"-47 169 OFFCURVE",
"-26 94 OFFCURVE",
"28 43 CURVE SMOOTH",
"72 1 OFFCURVE",
"144 -29 OFFCURVE",
"234 -29 CURVE SMOOTH",
"294 -29 OFFCURVE",
"350 -16 OFFCURVE",
"397 11 CURVE SMOOTH",
"444 38 OFFCURVE",
"483 78 OFFCURVE",
"514 131 CURVE",
"530 81 OFFCURVE",
"563 40 OFFCURVE",
"608 13 CURVE SMOOTH",
"653 -14 OFFCURVE",
"714 -29 OFFCURVE",
"785 -29 CURVE SMOOTH",
"833 -29 OFFCURVE",
"878 -22 OFFCURVE",
"922 -8 CURVE SMOOTH",
"962 5 OFFCURVE",
"1010 29 OFFCURVE",
"1047 55 CURVE",
"1081 227 LINE",
"1046 194 OFFCURVE",
"1004 167 OFFCURVE",
"957 148 CURVE SMOOTH",
"909 129 OFFCURVE",
"862 119 OFFCURVE",
"815 119 CURVE SMOOTH",
"758 119 OFFCURVE",
"714 134 OFFCURVE",
"682 163 CURVE SMOOTH",
"652 190 OFFCURVE",
"633 229 OFFCURVE",
"633 283 CURVE SMOOTH",
"633 305 OFFCURVE",
"636 331 OFFCURVE",
"641 368 CURVE SMOOTH",
"646 403 OFFCURVE",
"652 438 OFFCURVE",
"668 514 CURVE"
);
}
);
width = 1233;
}
);
note = "\012\011ae\012  ";
unicode = 00E6;
},
{
glyphname = b;
layers = (
{
layerId = "74927890-37A3-4F23-AAA5-AC99B6EBF53D";
name = "Regular Italic";
paths = (
{
closed = 1;
nodes = (
"482 127 OFFCURVE",
"425 144 OFFCURVE",
"385 194 CURVE SMOOTH",
"348 241 OFFCURVE",
"332 306 OFFCURVE",
"332 389 CURVE SMOOTH",
"332 454 OFFCURVE",
"342 533 OFFCURVE",
"361 611 CURVE SMOOTH",
"379 684 OFFCURVE",
"403 751 OFFCURVE",
"438 812 CURVE SMOOTH",
"472 872 OFFCURVE",
"514 918 OFFCURVE",
"557 947 CURVE SMOOTH",
"600 976 OFFCURVE",
"652 993 OFFCURVE",
"710 993 CURVE SMOOTH",
"775 993 OFFCURVE",
"827 972 OFFCURVE",
"861 929 CURVE SMOOTH",
"897 883 OFFCURVE",
"911 815 OFFCURVE",
"911 733 CURVE SMOOTH",
"911 667 OFFCURVE",
"902 590 OFFCURVE",
"883 513 CURVE SMOOTH",
"864 436 OFFCURVE",
"838 365 OFFCURVE",
"805 304 CURVE SMOOTH",
"773 245 OFFCURVE",
"738 203 OFFCURVE",
"691 172 CURVE SMOOTH",
"647 143 OFFCURVE",
"597 127 OFFCURVE",
"540 127 CURVE SMOOTH"
);
},
{
closed = 1;
nodes = (
"547 1556 LINE",
"362 1556 LINE",
"59 0 LINE",
"244 0 LINE",
"270 141 LINE",
"293 85 OFFCURVE",
"326 43 OFFCURVE",
"371 14 CURVE SMOOTH",
"416 -15 OFFCURVE",
"469 -29 OFFCURVE",
"535 -29 CURVE SMOOTH",
"616 -29 OFFCURVE",
"696 -8 OFFCURVE",
"770 35 CURVE SMOOTH",
"842 77 OFFCURVE",
"903 137 OFFCURVE",
"954 213 CURVE SMOOTH",
"1004 287 OFFCURVE",
"1042 376 OFFCURVE",
"1067 465 CURVE SMOOTH",
"1094 561 OFFCURVE",
"1108 660 OFFCURVE",
"1108 748 CURVE SMOOTH",
"1108 878 OFFCURVE",
"1077 977 OFFCURVE",
"1018 1044 CURVE SMOOTH",
"957 1113 OFFCURVE",
"868 1147 OFFCURVE",
"763 1147 CURVE SMOOTH",
"695 1147 OFFCURVE",
"633 1133 OFFCURVE",
"578 1104 CURVE SMOOTH",
"523 1075 OFFCURVE",
"475 1033 OFFCURVE",
"434 977 CURVE"
);
}
);
width = 1233;
}
);
note = "\012\011b\012  ";
unicode = 0062;
},
{
glyphname = c;
layers = (
{
layerId = "74927890-37A3-4F23-AAA5-AC99B6EBF53D";
name = "Regular Italic";
paths = (
{
closed = 1;
nodes = (
"969 252 LINE",
"918 213 OFFCURVE",
"860 180 OFFCURVE",
"798 158 CURVE SMOOTH",
"739 137 OFFCURVE",
"675 127 OFFCURVE",
"615 127 CURVE SMOOTH",
"517 127 OFFCURVE",
"451 154 OFFCURVE",
"408 200 CURVE SMOOTH",
"361 251 OFFCURVE",
"340 326 OFFCURVE",
"340 418 CURVE SMOOTH",
"340 485 OFFCURVE",
"351 555 OFFCURVE",
"372 626 CURVE SMOOTH",
"393 697 OFFCURVE",
"425 763 OFFCURVE",
"459 813 CURVE SMOOTH",
"499 872 OFFCURVE",
"548 918 OFFCURVE",
"604 947 CURVE SMOOTH",
"660 976 OFFCURVE",
"727 991 OFFCURVE",
"800 991 CURVE SMOOTH",
"856 991 OFFCURVE",
"907 982 OFFCURVE",
"954 964 CURVE SMOOTH",
"1001 946 OFFCURVE",
"1046 918 OFFCURVE",
"1090 879 CURVE",
"1127 1061 LINE",
"1074 1090 OFFCURVE",
"1015 1113 OFFCURVE",
"965 1126 CURVE SMOOTH",
"910 1140 OFFCURVE",
"853 1147 OFFCURVE",
"794 1147 CURVE SMOOTH",
"705 1147 OFFCURVE",
"623 1131 OFFCURVE",
"549 1098 CURVE SMOOTH",
"482 1068 OFFCURVE",
"408 1020 OFFCURVE",
"344 950 CURVE SMOOTH",
"286 887 OFFCURVE",
"233 801 OFFCURVE",
"199 709 CURVE SMOOTH",
"165 617 OFFCURVE",
"146 511 OFFCURVE",
"146 412 CURVE SMOOTH",
"146 271 OFFCURVE",
"184 159 OFFCURVE",
"261 84 CURVE SMOOTH",
"338 9 OFFCURVE",
"450 -29 OFFCURVE",
"596 -29 CURVE SMOOTH",
"659 -29 OFFCURVE",
"718 -22 OFFCURVE",
"774 -8 CURVE SMOOTH",
"827 5 OFFCURVE",
"873 21 OFFCURVE",
"930 51 CURVE"
);
}
);
width = 1233;
}
);
note = "\012\011c\012  ";
unicode = 0063;
},
{
glyphname = cacute;
layers = (
{
layerId = "74927890-37A3-4F23-AAA5-AC99B6EBF53D";
name = "Regular Italic";
paths = (
{
closed = 1;
nodes = (
"979 252 LINE",
"928 213 OFFCURVE",
"870 180 OFFCURVE",
"808 158 CURVE SMOOTH",
"749 137 OFFCURVE",
"685 127 OFFCURVE",
"625 127 CURVE SMOOTH",
"527 127 OFFCURVE",
"461 154 OFFCURVE",
"418 200 CURVE SMOOTH",
"371 251 OFFCURVE",
"350 326 OFFCURVE",
"350 418 CURVE SMOOTH",
"350 485 OFFCURVE",
"361 555 OFFCURVE",
"382 626 CURVE SMOOTH",
"403 697 OFFCURVE",
"435 763 OFFCURVE",
"469 813 CURVE SMOOTH",
"509 872 OFFCURVE",
"558 918 OFFCURVE",
"614 947 CURVE SMOOTH",
"670 976 OFFCURVE",
"737 991 OFFCURVE",
"810 991 CURVE SMOOTH",
"866 991 OFFCURVE",
"917 982 OFFCURVE",
"964 964 CURVE SMOOTH",
"1011 946 OFFCURVE",
"1056 918 OFFCURVE",
"1100 879 CURVE",
"1137 1061 LINE",
"1084 1090 OFFCURVE",
"1025 1113 OFFCURVE",
"975 1126 CURVE SMOOTH",
"920 1140 OFFCURVE",
"863 1147 OFFCURVE",
"804 1147 CURVE SMOOTH",
"715 1147 OFFCURVE",
"633 1131 OFFCURVE",
"559 1098 CURVE SMOOTH",
"492 1068 OFFCURVE",
"418 1020 OFFCURVE",
"354 950 CURVE SMOOTH",
"296 887 OFFCURVE",
"243 801 OFFCURVE",
"209 709 CURVE SMOOTH",
"175 617 OFFCURVE",
"156 511 OFFCURVE",
"156 412 CURVE SMOOTH",
"156 271 OFFCURVE",
"194 159 OFFCURVE",
"271 84 CURVE SMOOTH",
"348 9 OFFCURVE",
"460 -29 OFFCURVE",
"606 -29 CURVE SMOOTH",
"669 -29 OFFCURVE",
"728 -22 OFFCURVE",
"784 -8 CURVE SMOOTH",
"837 5 OFFCURVE",
"883 21 OFFCURVE",
"940 51 CURVE"
);
},
{
closed = 1;
nodes = (
"997 1638 LINE",
"665 1262 LINE",
"821 1262 LINE",
"1216 1638 LINE"
);
}
);
width = 1233;
}
);
note = "\012\011cacute\012  ";
unicode = 0107;
},
{
glyphname = ccaron;
layers = (
{
layerId = "74927890-37A3-4F23-AAA5-AC99B6EBF53D";
name = "Regular Italic";
paths = (
{
closed = 1;
nodes = (
"979 252 LINE",
"928 213 OFFCURVE",
"870 180 OFFCURVE",
"808 158 CURVE SMOOTH",
"749 137 OFFCURVE",
"685 127 OFFCURVE",
"625 127 CURVE SMOOTH",
"527 127 OFFCURVE",
"461 154 OFFCURVE",
"418 200 CURVE SMOOTH",
"371 251 OFFCURVE",
"350 326 OFFCURVE",
"350 418 CURVE SMOOTH",
"350 485 OFFCURVE",
"361 555 OFFCURVE",
"382 626 CURVE SMOOTH",
"403 697 OFFCURVE",
"435 763 OFFCURVE",
"469 813 CURVE SMOOTH",
"509 872 OFFCURVE",
"558 918 OFFCURVE",
"614 947 CURVE SMOOTH",
"670 976 OFFCURVE",
"737 991 OFFCURVE",
"810 991 CURVE SMOOTH",
"866 991 OFFCURVE",
"917 982 OFFCURVE",
"964 964 CURVE SMOOTH",
"1011 946 OFFCURVE",
"1056 918 OFFCURVE",
"1100 879 CURVE",
"1137 1061 LINE",
"1084 1090 OFFCURVE",
"1025 1113 OFFCURVE",
"975 1126 CURVE SMOOTH",
"920 1140 OFFCURVE",
"863 1147 OFFCURVE",
"804 1147 CURVE SMOOTH",
"715 1147 OFFCURVE",
"633 1131 OFFCURVE",
"559 1098 CURVE SMOOTH",
"492 1068 OFFCURVE",
"418 1020 OFFCURVE",
"354 950 CURVE SMOOTH",
"296 887 OFFCURVE",
"243 801 OFFCURVE",
"209 709 CURVE SMOOTH",
"175 617 OFFCURVE",
"156 511 OFFCURVE",
"156 412 CURVE SMOOTH",
"156 271 OFFCURVE",
"194 159 OFFCURVE",
"271 84 CURVE SMOOTH",
"348 9 OFFCURVE",
"460 -29 OFFCURVE",
"606 -29 CURVE SMOOTH",
"669 -29 OFFCURVE",
"728 -22 OFFCURVE",
"784 -8 CURVE SMOOTH",
"837 5 OFFCURVE",
"883 21 OFFCURVE",
"940 51 CURVE"
);
},
{
closed = 1;
nodes = (
"872 1262 LINE",
"1192 1638 LINE",
"1036 1638 LINE",
"811 1395 LINE",
"692 1638 LINE",
"561 1638 LINE",
"725 1262 LINE"
);
}
);
width = 1233;
}
);
note = "\012\011ccaron\012  ";
unicode = 010D;
},
{
glyphname = ccedilla;
layers = (
{
layerId = "74927890-37A3-4F23-AAA5-AC99B6EBF53D";
name = "Regular Italic";
paths = (
{
closed = 1;
nodes = (
"979 252 LINE",
"928 213 OFFCURVE",
"870 180 OFFCURVE",
"808 158 CURVE SMOOTH",
"749 137 OFFCURVE",
"685 127 OFFCURVE",
"625 127 CURVE SMOOTH",
"527 127 OFFCURVE",
"461 154 OFFCURVE",
"418 200 CURVE SMOOTH",
"371 251 OFFCURVE",
"350 326 OFFCURVE",
"350 418 CURVE SMOOTH",
"350 485 OFFCURVE",
"361 555 OFFCURVE",
"382 626 CURVE SMOOTH",
"403 697 OFFCURVE",
"435 763 OFFCURVE",
"469 813 CURVE SMOOTH",
"509 872 OFFCURVE",
"558 918 OFFCURVE",
"614 947 CURVE SMOOTH",
"670 976 OFFCURVE",
"737 991 OFFCURVE",
"810 991 CURVE SMOOTH",
"866 991 OFFCURVE",
"917 982 OFFCURVE",
"964 964 CURVE SMOOTH",
"1011 946 OFFCURVE",
"1056 918 OFFCURVE",
"1100 879 CURVE",
"1137 1061 LINE",
"1084 1090 OFFCURVE",
"1025 1113 OFFCURVE",
"975 1126 CURVE SMOOTH",
"920 1140 OFFCURVE",
"863 1147 OFFCURVE",
"804 1147 CURVE SMOOTH",
"715 1147 OFFCURVE",
"633 1131 OFFCURVE",
"559 1098 CURVE SMOOTH",
"492 1068 OFFCURVE",
"418 1020 OFFCURVE",
"354 950 CURVE SMOOTH",
"296 887 OFFCURVE",
"243 801 OFFCURVE",
"209 709 CURVE SMOOTH",
"175 617 OFFCURVE",
"156 511 OFFCURVE",
"156 412 CURVE SMOOTH",
"156 271 OFFCURVE",
"194 159 OFFCURVE",
"271 84 CURVE SMOOTH",
"348 9 OFFCURVE",
"460 -29 OFFCURVE",
"606 -29 CURVE SMOOTH",
"669 -29 OFFCURVE",
"728 -22 OFFCURVE",
"784 -8 CURVE SMOOTH",
"837 5 OFFCURVE",
"883 21 OFFCURVE",
"940 51 CURVE"
);
},
{
closed = 1;
nodes = (
"555 0 LINE",
"575 -37 OFFCURVE",
"593 -77 OFFCURVE",
"599 -93 CURVE SMOOTH",
"607 -114 OFFCURVE",
"613 -141 OFFCURVE",
"613 -163 CURVE SMOOTH",
"613 -195 OFFCURVE",
"601 -224 OFFCURVE",
"576 -244 CURVE SMOOTH",
"551 -264 OFFCURVE",
"514 -274 OFFCURVE",
"471 -274 CURVE SMOOTH",
"448 -274 OFFCURVE",
"427 -271 OFFCURVE",
"403 -265 CURVE SMOOTH",
"378 -258 OFFCURVE",
"353 -249 OFFCURVE",
"326 -236 CURVE",
"301 -365 LINE",
"332 -375 OFFCURVE",
"364 -383 OFFCURVE",
"395 -388 CURVE SMOOTH",
"426 -393 OFFCURVE",
"458 -395 OFFCURVE",
"485 -395 CURVE SMOOTH",
"567 -395 OFFCURVE",
"631 -376 OFFCURVE",
"676 -341 CURVE SMOOTH",
"723 -304 OFFCURVE",
"746 -253 OFFCURVE",
"746 -198 CURVE SMOOTH",
"746 -170 OFFCURVE",
"740 -140 OFFCURVE",
"729 -111 CURVE SMOOTH",
"717 -80 OFFCURVE",
"699 -43 OFFCURVE",
"674 0 CURVE"
);
}
);
width = 1233;
}
);
note = "\012\011ccedilla\012  ";
unicode = 00E7;
},
{
glyphname = cdotaccent;
lastChange = "2015-07-22 00:36:11 +0000";
layers = (
{
layerId = "74927890-37A3-4F23-AAA5-AC99B6EBF53D";
name = "Regular Italic";
paths = (
{
closed = 1;
nodes = (
"940 51 LINE",
"843 -1 OFFCURVE",
"730 -29 OFFCURVE",
"610 -29 CURVE SMOOTH",
"311 -29 OFFCURVE",
"156 123 OFFCURVE",
"156 416 CURVE SMOOTH",
"156 615 OFFCURVE",
"233 819 OFFCURVE",
"354 950 CURVE SMOOTH",
"478 1082 OFFCURVE",
"626 1147 OFFCURVE",
"803 1147 CURVE SMOOTH",
"922 1147 OFFCURVE",
"1032 1118 OFFCURVE",
"1137 1061 CURVE",
"1100 879 LINE",
"1012 956 OFFCURVE",
"922 991 OFFCURVE",
"809 991 CURVE SMOOTH",
"662 991 OFFCURVE",
"549 932 OFFCURVE",
"469 813 CURVE SMOOTH",
"394 704 OFFCURVE",
"350 555 OFFCURVE",
"350 416 CURVE SMOOTH",
"350 224 OFFCURVE",
"442 127 OFFCURVE",
"623 127 CURVE SMOOTH",
"751 127 OFFCURVE",
"868 168 OFFCURVE",
"979 252 CURVE"
);
},
{
closed = 1;
nodes = (
"747 1552 LINE",
"952 1552 LINE",
"911 1348 LINE",
"706 1348 LINE"
);
}
);
width = 1233;
}
);
note = cdotaccent;
unicode = 010B;
},
{
glyphname = d;
layers = (
{
layerId = "74927890-37A3-4F23-AAA5-AC99B6EBF53D";
name = "Regular Italic";
paths = (
{
closed = 1;
nodes = (
"754 991 OFFCURVE",
"807 965 OFFCURVE",
"840 924 CURVE SMOOTH",
"875 880 OFFCURVE",
"893 817 OFFCURVE",
"893 728 CURVE SMOOTH",
"893 661 OFFCURVE",
"883 582 OFFCURVE",
"865 508 CURVE SMOOTH",
"846 430 OFFCURVE",
"821 364 OFFCURVE",
"788 305 CURVE SMOOTH",
"755 246 OFFCURVE",
"719 203 OFFCURVE",
"672 172 CURVE SMOOTH",
"626 142 OFFCURVE",
"575 127 OFFCURVE",
"518 127 CURVE SMOOTH",
"451 127 OFFCURVE",
"400 148 OFFCURVE",
"366 191 CURVE SMOOTH",
"332 234 OFFCURVE",
"315 296 OFFCURVE",
"315 388 CURVE SMOOTH",
"315 455 OFFCURVE",
"324 538 OFFCURVE",
"342 613 CURVE SMOOTH",
"359 685 OFFCURVE",
"389 766 OFFCURVE",
"417 817 CURVE SMOOTH",
"447 872 OFFCURVE",
"487 919 OFFCURVE",
"531 948 CURVE SMOOTH",
"572 975 OFFCURVE",
"626 991 OFFCURVE",
"682 991 CURVE SMOOTH"
);
},
{
closed = 1;
nodes = (
"954 977 LINE",
"927 1032 OFFCURVE",
"890 1074 OFFCURVE",
"840 1104 CURVE SMOOTH",
"791 1133 OFFCURVE",
"736 1147 OFFCURVE",
"668 1147 CURVE SMOOTH",
"585 1147 OFFCURVE",
"511 1126 OFFCURVE",
"445 1087 CURVE SMOOTH",
"376 1046 OFFCURVE",
"319 989 OFFCURVE",
"268 909 CURVE SMOOTH",
"225 841 OFFCURVE",
"187 758 OFFCURVE",
"159 657 CURVE SMOOTH",
"132 560 OFFCURVE",
"119 461 OFFCURVE",
"119 374 CURVE SMOOTH",
"119 241 OFFCURVE",
"149 146 OFFCURVE",
"210 76 CURVE SMOOTH",
"268 9 OFFCURVE",
"349 -29 OFFCURVE",
"462 -29 CURVE SMOOTH",
"530 -29 OFFCURVE",
"591 -15 OFFCURVE",
"646 14 CURVE SMOOTH",
"701 43 OFFCURVE",
"750 85 OFFCURVE",
"793 141 CURVE",
"766 0 LINE",
"950 0 LINE",
"1253 1556 LINE",
"1069 1556 LINE"
);
}
);
width = 1233;
}
);
note = "\012\011d\012  ";
unicode = 0064;
},
{
glyphname = eth;
layers = (
{
layerId = "74927890-37A3-4F23-AAA5-AC99B6EBF53D";
name = "Regular Italic";
paths = (
{
closed = 1;
nodes = (
"1130 1407 LINE",
"1102 1499 LINE",
"815 1411 LINE",
"711 1556 LINE",
"498 1556 LINE",
"639 1356 LINE",
"365 1270 LINE",
"395 1178 LINE",
"692 1272 LINE",
"715 1239 OFFCURVE",
"748 1191 OFFCURVE",
"760 1171 CURVE SMOOTH",
"777 1142 OFFCURVE",
"792 1115 OFFCURVE",
"805 1090 CURVE",
"797 1091 OFFCURVE",
"779 1092 OFFCURVE",
"772 1093 CURVE SMOOTH",
"742 1096 OFFCURVE",
"721 1098 OFFCURVE",
"697 1098 CURVE SMOOTH",
"623 1098 OFFCURVE",
"535 1078 OFFCURVE",
"458 1037 CURVE SMOOTH",
"381 996 OFFCURVE",
"318 939 OFFCURVE",
"266 864 CURVE SMOOTH",
"221 798 OFFCURVE",
"183 720 OFFCURVE",
"157 637 CURVE SMOOTH",
"132 556 OFFCURVE",
"119 473 OFFCURVE",
"119 389 CURVE SMOOTH",
"119 259 OFFCURVE",
"150 154 OFFCURVE",
"221 79 CURVE SMOOTH",
"289 7 OFFCURVE",
"388 -29 OFFCURVE",
"516 -29 CURVE SMOOTH",
"611 -29 OFFCURVE",
"695 -9 OFFCURVE",
"771 31 CURVE SMOOTH",
"846 71 OFFCURVE",
"906 126 OFFCURVE",
"961 207 CURVE SMOOTH",
"1010 279 OFFCURVE",
"1046 360 OFFCURVE",
"1069 440 CURVE SMOOTH",
"1094 526 OFFCURVE",
"1106 616 OFFCURVE",
"1106 701 CURVE SMOOTH",
"1106 808 OFFCURVE",
"1087 910 OFFCURVE",
"1050 1007 CURVE SMOOTH",
"1013 1104 OFFCURVE",
"952 1213 OFFCURVE",
"870 1327 CURVE"
);
},
{
closed = 1;
nodes = (
"887 882 OFFCURVE",
"896 853 OFFCURVE",
"902 820 CURVE SMOOTH",
"908 786 OFFCURVE",
"911 750 OFFCURVE",
"911 702 CURVE SMOOTH",
"911 540 OFFCURVE",
"876 395 OFFCURVE",
"806 288 CURVE SMOOTH",
"736 182 OFFCURVE",
"639 127 OFFCURVE",
"534 127 CURVE SMOOTH",
"461 127 OFFCURVE",
"405 153 OFFCURVE",
"370 192 CURVE SMOOTH",
"328 239 OFFCURVE",
"313 309 OFFCURVE",
"313 398 CURVE SMOOTH",
"313 535 OFFCURVE",
"349 682 OFFCURVE",
"424 789 CURVE SMOOTH",
"492 886 OFFCURVE",
"590 944 OFFCURVE",
"714 944 CURVE SMOOTH",
"742 944 OFFCURVE",
"770 941 OFFCURVE",
"797 935 CURVE SMOOTH",
"824 929 OFFCURVE",
"849 920 OFFCURVE",
"874 907 CURVE"
);
}
);
width = 1233;
}
);
note = "\012\011eth\012  ";
unicode = 00F0;
},
{
glyphname = dcaron;
lastChange = "2015-07-22 00:32:48 +0000";
layers = (
{
layerId = "74927890-37A3-4F23-AAA5-AC99B6EBF53D";
name = "Regular Italic";
paths = (
{
closed = 1;
nodes = (
"1316 1552 LINE",
"1512 1552 LINE",
"1326 1179 LINE",
"1186 1179 LINE"
);
},
{
closed = 1;
nodes = (
"569 991 OFFCURVE",
"479 933 OFFCURVE",
"418 817 CURVE SMOOTH",
"353 697 OFFCURVE",
"315 536 OFFCURVE",
"315 383 CURVE SMOOTH",
"315 212 OFFCURVE",
"383 127 OFFCURVE",
"518 127 CURVE SMOOTH",
"631 127 OFFCURVE",
"724 188 OFFCURVE",
"788 305 CURVE SMOOTH",
"853 421 OFFCURVE",
"893 585 OFFCURVE",
"893 737 CURVE SMOOTH",
"893 897 OFFCURVE",
"817 991 OFFCURVE",
"686 991 CURVE SMOOTH"
);
},
{
closed = 1;
nodes = (
"1069 1556 LINE",
"1253 1556 LINE",
"950 0 LINE",
"766 0 LINE",
"793 141 LINE",
"706 29 OFFCURVE",
"596 -29 OFFCURVE",
"463 -29 CURVE SMOOTH",
"246 -29 OFFCURVE",
"119 118 OFFCURVE",
"119 369 CURVE SMOOTH",
"119 560 OFFCURVE",
"176 765 OFFCURVE",
"268 909 CURVE SMOOTH",
"368 1066 OFFCURVE",
"505 1147 OFFCURVE",
"670 1147 CURVE SMOOTH",
"799 1147 OFFCURVE",
"899 1088 OFFCURVE",
"954 977 CURVE"
);
}
);
width = 1233;
}
);
note = dcaron;
unicode = 010F;
},
{
glyphname = dcroat;
layers = (
{
layerId = "74927890-37A3-4F23-AAA5-AC99B6EBF53D";
name = "Regular Italic";
paths = (
{
closed = 1;
nodes = (
"754 991 OFFCURVE",
"807 965 OFFCURVE",
"840 924 CURVE SMOOTH",
"875 880 OFFCURVE",
"893 817 OFFCURVE",
"893 728 CURVE SMOOTH",
"893 661 OFFCURVE",
"883 582 OFFCURVE",
"865 508 CURVE SMOOTH",
"846 430 OFFCURVE",
"821 364 OFFCURVE",
"788 305 CURVE SMOOTH",
"755 246 OFFCURVE",
"719 203 OFFCURVE",
"672 172 CURVE SMOOTH",
"626 142 OFFCURVE",
"575 127 OFFCURVE",
"518 127 CURVE SMOOTH",
"451 127 OFFCURVE",
"400 148 OFFCURVE",
"366 191 CURVE SMOOTH",
"332 234 OFFCURVE",
"315 296 OFFCURVE",
"315 388 CURVE SMOOTH",
"315 455 OFFCURVE",
"324 538 OFFCURVE",
"342 613 CURVE SMOOTH",
"359 685 OFFCURVE",
"389 766 OFFCURVE",
"417 817 CURVE SMOOTH",
"447 872 OFFCURVE",
"487 919 OFFCURVE",
"531 948 CURVE SMOOTH",
"572 975 OFFCURVE",
"626 991 OFFCURVE",
"682 991 CURVE SMOOTH"
);
},
{
closed = 1;
nodes = (
"954 977 LINE",
"927 1032 OFFCURVE",
"890 1074 OFFCURVE",
"840 1104 CURVE SMOOTH",
"791 1133 OFFCURVE",
"736 1147 OFFCURVE",
"668 1147 CURVE SMOOTH",
"585 1147 OFFCURVE",
"511 1126 OFFCURVE",
"445 1087 CURVE SMOOTH",
"376 1046 OFFCURVE",
"319 989 OFFCURVE",
"268 909 CURVE SMOOTH",
"225 841 OFFCURVE",
"187 758 OFFCURVE",
"159 657 CURVE SMOOTH",
"132 560 OFFCURVE",
"119 461 OFFCURVE",
"119 374 CURVE SMOOTH",
"119 241 OFFCURVE",
"149 146 OFFCURVE",
"210 76 CURVE SMOOTH",
"268 9 OFFCURVE",
"349 -29 OFFCURVE",
"462 -29 CURVE SMOOTH",
"530 -29 OFFCURVE",
"591 -15 OFFCURVE",
"646 14 CURVE SMOOTH",
"701 43 OFFCURVE",
"750 85 OFFCURVE",
"793 141 CURVE",
"766 0 LINE",
"950 0 LINE",
"1200 1286 LINE",
"1393 1286 LINE",
"1415 1407 LINE",
"1223 1407 LINE",
"1253 1556 LINE",
"1069 1556 LINE",
"1038 1407 LINE",
"709 1407 LINE",
"684 1286 LINE",
"1016 1286 LINE"
);
}
);
width = 1233;
}
);
note = "\012\011dcroat\012  ";
unicode = 0111;
},
{
glyphname = e;
layers = (
{
layerId = "74927890-37A3-4F23-AAA5-AC99B6EBF53D";
name = "Regular Italic";
paths = (
{
closed = 1;
nodes = (
"332 659 LINE",
"361 763 OFFCURVE",
"416 846 OFFCURVE",
"477 901 CURVE SMOOTH",
"547 964 OFFCURVE",
"627 991 OFFCURVE",
"706 991 CURVE SMOOTH",
"777 991 OFFCURVE",
"840 969 OFFCURVE",
"883 924 CURVE SMOOTH",
"926 879 OFFCURVE",
"948 816 OFFCURVE",
"948 741 CURVE SMOOTH",
"948 725 OFFCURVE",
"947 715 OFFCURVE",
"946 704 CURVE SMOOTH",
"945 692 OFFCURVE",
"942 677 OFFCURVE",
"938 659 CURVE"
);
},
{
closed = 1;
nodes = (
"997 240 LINE",
"921 203 OFFCURVE",
"848 175 OFFCURVE",
"779 156 CURVE SMOOTH",
"709 137 OFFCURVE",
"646 127 OFFCURVE",
"584 127 CURVE SMOOTH",
"489 127 OFFCURVE",
"413 151 OFFCURVE",
"362 200 CURVE SMOOTH",
"311 249 OFFCURVE",
"285 320 OFFCURVE",
"285 409 CURVE SMOOTH",
"285 426 OFFCURVE",
"286 441 OFFCURVE",
"288 458 CURVE SMOOTH",
"290 475 OFFCURVE",
"293 495 OFFCURVE",
"297 516 CURVE",
"1104 516 LINE",
"1112 568 OFFCURVE",
"1117 605 OFFCURVE",
"1121 645 CURVE SMOOTH",
"1124 678 OFFCURVE",
"1126 703 OFFCURVE",
"1126 731 CURVE SMOOTH",
"1126 853 OFFCURVE",
"1088 960 OFFCURVE",
"1015 1035 CURVE SMOOTH",
"945 1107 OFFCURVE",
"845 1149 OFFCURVE",
"719 1149 CURVE SMOOTH",
"643 1149 OFFCURVE",
"575 1134 OFFCURVE",
"508 1104 CURVE SMOOTH",
"443 1075 OFFCURVE",
"383 1034 OFFCURVE",
"324 973 CURVE SMOOTH",
"253 900 OFFCURVE",
"198 814 OFFCURVE",
"158 714 CURVE SMOOTH",
"118 614 OFFCURVE",
"98 512 OFFCURVE",
"98 410 CURVE SMOOTH",
"98 267 OFFCURVE",
"137 157 OFFCURVE",
"213 83 CURVE SMOOTH",
"287 11 OFFCURVE",
"399 -29 OFFCURVE",
"558 -29 CURVE SMOOTH",
"630 -29 OFFCURVE",
"690 -21 OFFCURVE",
"756 -7 CURVE SMOOTH",
"825 8 OFFCURVE",
"883 25 OFFCURVE",
"961 57 CURVE"
);
}
);
width = 1233;
}
);
note = "\012\011e\012  ";
unicode = 0065;
},
{
glyphname = eacute;
layers = (
{
layerId = "74927890-37A3-4F23-AAA5-AC99B6EBF53D";
name = "Regular Italic";
paths = (
{
closed = 1;
nodes = (
"332 659 LINE",
"361 763 OFFCURVE",
"416 846 OFFCURVE",
"477 901 CURVE SMOOTH",
"547 964 OFFCURVE",
"627 991 OFFCURVE",
"706 991 CURVE SMOOTH",
"777 991 OFFCURVE",
"840 969 OFFCURVE",
"883 924 CURVE SMOOTH",
"926 879 OFFCURVE",
"948 816 OFFCURVE",
"948 741 CURVE SMOOTH",
"948 725 OFFCURVE",
"947 715 OFFCURVE",
"946 704 CURVE SMOOTH",
"945 692 OFFCURVE",
"942 677 OFFCURVE",
"938 659 CURVE"
);
},
{
closed = 1;
nodes = (
"997 240 LINE",
"921 203 OFFCURVE",
"848 175 OFFCURVE",
"779 156 CURVE SMOOTH",
"709 137 OFFCURVE",
"646 127 OFFCURVE",
"584 127 CURVE SMOOTH",
"489 127 OFFCURVE",
"413 151 OFFCURVE",
"362 200 CURVE SMOOTH",
"311 249 OFFCURVE",
"285 320 OFFCURVE",
"285 409 CURVE SMOOTH",
"285 426 OFFCURVE",
"286 441 OFFCURVE",
"288 458 CURVE SMOOTH",
"290 475 OFFCURVE",
"293 495 OFFCURVE",
"297 516 CURVE",
"1104 516 LINE",
"1112 568 OFFCURVE",
"1117 605 OFFCURVE",
"1121 645 CURVE SMOOTH",
"1124 678 OFFCURVE",
"1126 703 OFFCURVE",
"1126 731 CURVE SMOOTH",
"1126 853 OFFCURVE",
"1088 960 OFFCURVE",
"1015 1035 CURVE SMOOTH",
"945 1107 OFFCURVE",
"845 1149 OFFCURVE",
"719 1149 CURVE SMOOTH",
"643 1149 OFFCURVE",
"575 1134 OFFCURVE",
"508 1104 CURVE SMOOTH",
"443 1075 OFFCURVE",
"383 1034 OFFCURVE",
"324 973 CURVE SMOOTH",
"253 900 OFFCURVE",
"198 814 OFFCURVE",
"158 714 CURVE SMOOTH",
"118 614 OFFCURVE",
"98 512 OFFCURVE",
"98 410 CURVE SMOOTH",
"98 267 OFFCURVE",
"137 157 OFFCURVE",
"213 83 CURVE SMOOTH",
"287 11 OFFCURVE",
"399 -29 OFFCURVE",
"558 -29 CURVE SMOOTH",
"630 -29 OFFCURVE",
"690 -21 OFFCURVE",
"756 -7 CURVE SMOOTH",
"825 8 OFFCURVE",
"883 25 OFFCURVE",
"961 57 CURVE"
);
},
{
closed = 1;
nodes = (
"907 1638 LINE",
"575 1262 LINE",
"731 1262 LINE",
"1126 1638 LINE"
);
}
);
width = 1233;
}
);
note = "\012\011eacute\012  ";
unicode = 00E9;
},
{
glyphname = ecaron;
lastChange = "2015-07-22 00:34:01 +0000";
layers = (
{
layerId = "74927890-37A3-4F23-AAA5-AC99B6EBF53D";
name = "Regular Italic";
paths = (
{
closed = 1;
nodes = (
"938 659 LINE",
"946 695 OFFCURVE",
"948 716 OFFCURVE",
"948 737 CURVE SMOOTH",
"948 897 OFFCURVE",
"857 991 OFFCURVE",
"702 991 CURVE SMOOTH",
"538 991 OFFCURVE",
"391 862 OFFCURVE",
"332 659 CURVE"
);
},
{
closed = 1;
nodes = (
"961 57 LINE",
"821 0 OFFCURVE",
"690 -29 OFFCURVE",
"553 -29 CURVE SMOOTH",
"256 -29 OFFCURVE",
"98 123 OFFCURVE",
"98 408 CURVE SMOOTH",
"98 616 OFFCURVE",
"183 828 OFFCURVE",
"324 973 CURVE SMOOTH",
"435 1088 OFFCURVE",
"572 1149 OFFCURVE",
"717 1149 CURVE SMOOTH",
"965 1149 OFFCURVE",
"1126 984 OFFCURVE",
"1126 729 CURVE SMOOTH",
"1126 684 OFFCURVE",
"1120 620 OFFCURVE",
"1104 516 CURVE",
"297 516 LINE",
"289 473 OFFCURVE",
"285 439 OFFCURVE",
"285 412 CURVE SMOOTH",
"285 227 OFFCURVE",
"390 127 OFFCURVE",
"586 127 CURVE SMOOTH",
"703 127 OFFCURVE",
"845 165 OFFCURVE",
"997 240 CURVE"
);
},
{
closed = 1;
nodes = (
"837 1262 LINE",
"690 1262 LINE",
"526 1638 LINE",
"657 1638 LINE",
"776 1395 LINE",
"1001 1638 LINE",
"1157 1638 LINE"
);
}
);
width = 1233;
}
);
note = ecaron;
unicode = 011B;
},
{
glyphname = ecircumflex;
layers = (
{
layerId = "74927890-37A3-4F23-AAA5-AC99B6EBF53D";
name = "Regular Italic";
paths = (
{
closed = 1;
nodes = (
"332 659 LINE",
"361 763 OFFCURVE",
"416 846 OFFCURVE",
"477 901 CURVE SMOOTH",
"547 964 OFFCURVE",
"627 991 OFFCURVE",
"706 991 CURVE SMOOTH",
"777 991 OFFCURVE",
"840 969 OFFCURVE",
"883 924 CURVE SMOOTH",
"926 879 OFFCURVE",
"948 816 OFFCURVE",
"948 741 CURVE SMOOTH",
"948 725 OFFCURVE",
"947 715 OFFCURVE",
"946 704 CURVE SMOOTH",
"945 692 OFFCURVE",
"942 677 OFFCURVE",
"938 659 CURVE"
);
},
{
closed = 1;
nodes = (
"997 240 LINE",
"921 203 OFFCURVE",
"848 175 OFFCURVE",
"779 156 CURVE SMOOTH",
"709 137 OFFCURVE",
"646 127 OFFCURVE",
"584 127 CURVE SMOOTH",
"489 127 OFFCURVE",
"413 151 OFFCURVE",
"362 200 CURVE SMOOTH",
"311 249 OFFCURVE",
"285 320 OFFCURVE",
"285 409 CURVE SMOOTH",
"285 426 OFFCURVE",
"286 441 OFFCURVE",
"288 458 CURVE SMOOTH",
"290 475 OFFCURVE",
"293 495 OFFCURVE",
"297 516 CURVE",
"1104 516 LINE",
"1112 568 OFFCURVE",
"1117 605 OFFCURVE",
"1121 645 CURVE SMOOTH",
"1124 678 OFFCURVE",
"1126 703 OFFCURVE",
"1126 731 CURVE SMOOTH",
"1126 853 OFFCURVE",
"1088 960 OFFCURVE",
"1015 1035 CURVE SMOOTH",
"945 1107 OFFCURVE",
"845 1149 OFFCURVE",
"719 1149 CURVE SMOOTH",
"643 1149 OFFCURVE",
"575 1134 OFFCURVE",
"508 1104 CURVE SMOOTH",
"443 1075 OFFCURVE",
"383 1034 OFFCURVE",
"324 973 CURVE SMOOTH",
"253 900 OFFCURVE",
"198 814 OFFCURVE",
"158 714 CURVE SMOOTH",
"118 614 OFFCURVE",
"98 512 OFFCURVE",
"98 410 CURVE SMOOTH",
"98 267 OFFCURVE",
"137 157 OFFCURVE",
"213 83 CURVE SMOOTH",
"287 11 OFFCURVE",
"399 -29 OFFCURVE",
"558 -29 CURVE SMOOTH",
"630 -29 OFFCURVE",
"690 -21 OFFCURVE",
"756 -7 CURVE SMOOTH",
"825 8 OFFCURVE",
"883 25 OFFCURVE",
"961 57 CURVE"
);
},
{
closed = 1;
nodes = (
"717 1638 LINE",
"397 1262 LINE",
"553 1262 LINE",
"778 1503 LINE",
"895 1262 LINE",
"1028 1262 LINE",
"864 1638 LINE"
);
}
);
width = 1233;
}
);
note = "\012\011ecircumflex\012  ";
unicode = 00EA;
},
{
glyphname = edieresis;
layers = (
{
layerId = "74927890-37A3-4F23-AAA5-AC99B6EBF53D";
name = "Regular Italic";
paths = (
{
closed = 1;
nodes = (
"332 659 LINE",
"361 763 OFFCURVE",
"416 846 OFFCURVE",
"477 901 CURVE SMOOTH",
"547 964 OFFCURVE",
"627 991 OFFCURVE",
"706 991 CURVE SMOOTH",
"777 991 OFFCURVE",
"840 969 OFFCURVE",
"883 924 CURVE SMOOTH",
"926 879 OFFCURVE",
"948 816 OFFCURVE",
"948 741 CURVE SMOOTH",
"948 725 OFFCURVE",
"947 715 OFFCURVE",
"946 704 CURVE SMOOTH",
"945 692 OFFCURVE",
"942 677 OFFCURVE",
"938 659 CURVE"
);
},
{
closed = 1;
nodes = (
"997 240 LINE",
"921 203 OFFCURVE",
"848 175 OFFCURVE",
"779 156 CURVE SMOOTH",
"709 137 OFFCURVE",
"646 127 OFFCURVE",
"584 127 CURVE SMOOTH",
"489 127 OFFCURVE",
"413 151 OFFCURVE",
"362 200 CURVE SMOOTH",
"311 249 OFFCURVE",
"285 320 OFFCURVE",
"285 409 CURVE SMOOTH",
"285 426 OFFCURVE",
"286 441 OFFCURVE",
"288 458 CURVE SMOOTH",
"290 475 OFFCURVE",
"293 495 OFFCURVE",
"297 516 CURVE",
"1104 516 LINE",
"1112 568 OFFCURVE",
"1117 605 OFFCURVE",
"1121 645 CURVE SMOOTH",
"1124 678 OFFCURVE",
"1126 703 OFFCURVE",
"1126 731 CURVE SMOOTH",
"1126 853 OFFCURVE",
"1088 960 OFFCURVE",
"1015 1035 CURVE SMOOTH",
"945 1107 OFFCURVE",
"845 1149 OFFCURVE",
"719 1149 CURVE SMOOTH",
"643 1149 OFFCURVE",
"575 1134 OFFCURVE",
"508 1104 CURVE SMOOTH",
"443 1075 OFFCURVE",
"383 1034 OFFCURVE",
"324 973 CURVE SMOOTH",
"253 900 OFFCURVE",
"198 814 OFFCURVE",
"158 714 CURVE SMOOTH",
"118 614 OFFCURVE",
"98 512 OFFCURVE",
"98 410 CURVE SMOOTH",
"98 267 OFFCURVE",
"137 157 OFFCURVE",
"213 83 CURVE SMOOTH",
"287 11 OFFCURVE",
"399 -29 OFFCURVE",
"558 -29 CURVE SMOOTH",
"630 -29 OFFCURVE",
"690 -21 OFFCURVE",
"756 -7 CURVE SMOOTH",
"825 8 OFFCURVE",
"883 25 OFFCURVE",
"961 57 CURVE"
);
},
{
closed = 1;
nodes = (
"502 1552 LINE SMOOTH",
"484 1552 OFFCURVE",
"473 1543 OFFCURVE",
"470 1525 CURVE SMOOTH",
"442 1383 LINE SMOOTH",
"438 1363 OFFCURVE",
"449 1350 OFFCURVE",
"469 1350 CURVE SMOOTH",
"612 1350 LINE SMOOTH",
"630 1350 OFFCURVE",
"641 1359 OFFCURVE",
"644 1377 CURVE SMOOTH",
"672 1519 LINE SMOOTH",
"676 1539 OFFCURVE",
"665 1552 OFFCURVE",
"645 1552 CURVE SMOOTH"
);
},
{
closed = 1;
nodes = (
"893 1552 LINE SMOOTH",
"875 1552 OFFCURVE",
"864 1543 OFFCURVE",
"861 1525 CURVE SMOOTH",
"833 1383 LINE SMOOTH",
"829 1363 OFFCURVE",
"840 1350 OFFCURVE",
"860 1350 CURVE SMOOTH",
"1003 1350 LINE SMOOTH",
"1021 1350 OFFCURVE",
"1032 1359 OFFCURVE",
"1035 1377 CURVE SMOOTH",
"1063 1519 LINE SMOOTH",
"1067 1539 OFFCURVE",
"1056 1552 OFFCURVE",
"1036 1552 CURVE SMOOTH"
);
}
);
width = 1233;
}
);
note = "\012\011edieresis\012  ";
unicode = 00EB;
},
{
glyphname = edotaccent;
lastChange = "2015-07-22 00:34:01 +0000";
layers = (
{
layerId = "74927890-37A3-4F23-AAA5-AC99B6EBF53D";
name = "Regular Italic";
paths = (
{
closed = 1;
nodes = (
"938 659 LINE",
"946 695 OFFCURVE",
"948 716 OFFCURVE",
"948 737 CURVE SMOOTH",
"948 897 OFFCURVE",
"857 991 OFFCURVE",
"702 991 CURVE SMOOTH",
"538 991 OFFCURVE",
"391 862 OFFCURVE",
"332 659 CURVE"
);
},
{
closed = 1;
nodes = (
"961 57 LINE",
"821 0 OFFCURVE",
"690 -29 OFFCURVE",
"553 -29 CURVE SMOOTH",
"256 -29 OFFCURVE",
"98 123 OFFCURVE",
"98 408 CURVE SMOOTH",
"98 616 OFFCURVE",
"183 828 OFFCURVE",
"324 973 CURVE SMOOTH",
"435 1088 OFFCURVE",
"572 1149 OFFCURVE",
"717 1149 CURVE SMOOTH",
"965 1149 OFFCURVE",
"1126 984 OFFCURVE",
"1126 729 CURVE SMOOTH",
"1126 684 OFFCURVE",
"1120 620 OFFCURVE",
"1104 516 CURVE",
"297 516 LINE",
"289 473 OFFCURVE",
"285 439 OFFCURVE",
"285 412 CURVE SMOOTH",
"285 227 OFFCURVE",
"390 127 OFFCURVE",
"586 127 CURVE SMOOTH",
"703 127 OFFCURVE",
"845 165 OFFCURVE",
"997 240 CURVE"
);
},
{
closed = 1;
nodes = (
"686 1552 LINE",
"891 1552 LINE",
"850 1348 LINE",
"645 1348 LINE"
);
}
);
width = 1233;
}
);
note = edotaccent;
unicode = 0117;
},
{
glyphname = egrave;
layers = (
{
layerId = "74927890-37A3-4F23-AAA5-AC99B6EBF53D";
name = "Regular Italic";
paths = (
{
closed = 1;
nodes = (
"332 659 LINE",
"361 763 OFFCURVE",
"416 846 OFFCURVE",
"477 901 CURVE SMOOTH",
"547 964 OFFCURVE",
"627 991 OFFCURVE",
"706 991 CURVE SMOOTH",
"777 991 OFFCURVE",
"840 969 OFFCURVE",
"883 924 CURVE SMOOTH",
"926 879 OFFCURVE",
"948 816 OFFCURVE",
"948 741 CURVE SMOOTH",
"948 725 OFFCURVE",
"947 715 OFFCURVE",
"946 704 CURVE SMOOTH",
"945 692 OFFCURVE",
"942 677 OFFCURVE",
"938 659 CURVE"
);
},
{
closed = 1;
nodes = (
"997 240 LINE",
"921 203 OFFCURVE",
"848 175 OFFCURVE",
"779 156 CURVE SMOOTH",
"709 137 OFFCURVE",
"646 127 OFFCURVE",
"584 127 CURVE SMOOTH",
"489 127 OFFCURVE",
"413 151 OFFCURVE",
"362 200 CURVE SMOOTH",
"311 249 OFFCURVE",
"285 320 OFFCURVE",
"285 409 CURVE SMOOTH",
"285 426 OFFCURVE",
"286 441 OFFCURVE",
"288 458 CURVE SMOOTH",
"290 475 OFFCURVE",
"293 495 OFFCURVE",
"297 516 CURVE",
"1104 516 LINE",
"1112 568 OFFCURVE",
"1117 605 OFFCURVE",
"1121 645 CURVE SMOOTH",
"1124 678 OFFCURVE",
"1126 703 OFFCURVE",
"1126 731 CURVE SMOOTH",
"1126 853 OFFCURVE",
"1088 960 OFFCURVE",
"1015 1035 CURVE SMOOTH",
"945 1107 OFFCURVE",
"845 1149 OFFCURVE",
"719 1149 CURVE SMOOTH",
"643 1149 OFFCURVE",
"575 1134 OFFCURVE",
"508 1104 CURVE SMOOTH",
"443 1075 OFFCURVE",
"383 1034 OFFCURVE",
"324 973 CURVE SMOOTH",
"253 900 OFFCURVE",
"198 814 OFFCURVE",
"158 714 CURVE SMOOTH",
"118 614 OFFCURVE",
"98 512 OFFCURVE",
"98 410 CURVE SMOOTH",
"98 267 OFFCURVE",
"137 157 OFFCURVE",
"213 83 CURVE SMOOTH",
"287 11 OFFCURVE",
"399 -29 OFFCURVE",
"558 -29 CURVE SMOOTH",
"630 -29 OFFCURVE",
"690 -21 OFFCURVE",
"756 -7 CURVE SMOOTH",
"825 8 OFFCURVE",
"883 25 OFFCURVE",
"961 57 CURVE"
);
},
{
closed = 1;
nodes = (
"651 1638 LINE",
"453 1638 LINE",
"705 1262 LINE",
"848 1262 LINE"
);
}
);
width = 1233;
}
);
note = "\012\011egrave\012  ";
unicode = 00E8;
},
{
glyphname = emacron;
lastChange = "2015-07-22 00:34:01 +0000";
layers = (
{
layerId = "74927890-37A3-4F23-AAA5-AC99B6EBF53D";
name = "Regular Italic";
paths = (
{
closed = 1;
nodes = (
"938 659 LINE",
"946 695 OFFCURVE",
"948 716 OFFCURVE",
"948 737 CURVE SMOOTH",
"948 897 OFFCURVE",
"857 991 OFFCURVE",
"702 991 CURVE SMOOTH",
"538 991 OFFCURVE",
"391 862 OFFCURVE",
"332 659 CURVE"
);
},
{
closed = 1;
nodes = (
"961 57 LINE",
"821 0 OFFCURVE",
"690 -29 OFFCURVE",
"553 -29 CURVE SMOOTH",
"256 -29 OFFCURVE",
"98 123 OFFCURVE",
"98 408 CURVE SMOOTH",
"98 616 OFFCURVE",
"183 828 OFFCURVE",
"324 973 CURVE SMOOTH",
"435 1088 OFFCURVE",
"572 1149 OFFCURVE",
"717 1149 CURVE SMOOTH",
"965 1149 OFFCURVE",
"1126 984 OFFCURVE",
"1126 729 CURVE SMOOTH",
"1126 684 OFFCURVE",
"1120 620 OFFCURVE",
"1104 516 CURVE",
"297 516 LINE",
"289 473 OFFCURVE",
"285 439 OFFCURVE",
"285 412 CURVE SMOOTH",
"285 227 OFFCURVE",
"390 127 OFFCURVE",
"586 127 CURVE SMOOTH",
"703 127 OFFCURVE",
"845 165 OFFCURVE",
"997 240 CURVE"
);
},
{
closed = 1;
nodes = (
"504 1526 LINE",
"1102 1526 LINE",
"1073 1378 LINE",
"475 1378 LINE"
);
}
);
width = 1233;
}
);
note = emacron;
unicode = 0113;
},
{
glyphname = eogonek;
lastChange = "2015-07-22 00:34:01 +0000";
layers = (
{
layerId = "74927890-37A3-4F23-AAA5-AC99B6EBF53D";
name = "Regular Italic";
paths = (
{
closed = 1;
nodes = (
"787 0 LINE",
"706 -77 OFFCURVE",
"662 -146 OFFCURVE",
"662 -197 CURVE SMOOTH",
"662 -246 OFFCURVE",
"694 -272 OFFCURVE",
"754 -272 CURVE SMOOTH",
"798 -272 OFFCURVE",
"842 -262 OFFCURVE",
"885 -242 CURVE",
"860 -375 LINE",
"815 -388 OFFCURVE",
"766 -395 OFFCURVE",
"721 -395 CURVE SMOOTH",
"592 -395 OFFCURVE",
"516 -339 OFFCURVE",
"516 -244 CURVE SMOOTH",
"516 -171 OFFCURVE",
"565 -92 OFFCURVE",
"668 0 CURVE"
);
},
{
closed = 1;
nodes = (
"938 659 LINE",
"946 695 OFFCURVE",
"948 716 OFFCURVE",
"948 737 CURVE SMOOTH",
"948 897 OFFCURVE",
"857 991 OFFCURVE",
"702 991 CURVE SMOOTH",
"538 991 OFFCURVE",
"391 862 OFFCURVE",
"332 659 CURVE"
);
},
{
closed = 1;
nodes = (
"961 57 LINE",
"821 0 OFFCURVE",
"690 -29 OFFCURVE",
"553 -29 CURVE SMOOTH",
"256 -29 OFFCURVE",
"98 123 OFFCURVE",
"98 408 CURVE SMOOTH",
"98 616 OFFCURVE",
"183 828 OFFCURVE",
"324 973 CURVE SMOOTH",
"435 1088 OFFCURVE",
"572 1149 OFFCURVE",
"717 1149 CURVE SMOOTH",
"965 1149 OFFCURVE",
"1126 984 OFFCURVE",
"1126 729 CURVE SMOOTH",
"1126 684 OFFCURVE",
"1120 620 OFFCURVE",
"1104 516 CURVE",
"297 516 LINE",
"289 473 OFFCURVE",
"285 439 OFFCURVE",
"285 412 CURVE SMOOTH",
"285 227 OFFCURVE",
"390 127 OFFCURVE",
"586 127 CURVE SMOOTH",
"703 127 OFFCURVE",
"845 165 OFFCURVE",
"997 240 CURVE"
);
}
);
width = 1233;
}
);
note = eogonek;
unicode = 0119;
},
{
glyphname = f;
layers = (
{
layerId = "74927890-37A3-4F23-AAA5-AC99B6EBF53D";
name = "Regular Italic";
paths = (
{
closed = 1;
nodes = (
"1245 1556 LINE",
"1024 1556 LINE SMOOTH",
"900 1556 OFFCURVE",
"807 1530 OFFCURVE",
"741 1474 CURVE SMOOTH",
"673 1416 OFFCURVE",
"633 1329 OFFCURVE",
"606 1198 CURVE SMOOTH",
"590 1120 LINE",
"293 1120 LINE",
"264 977 LINE",
"563 977 LINE",
"373 0 LINE",
"557 0 LINE",
"748 977 LINE",
"1133 977 LINE",
"1159 1120 LINE",
"774 1120 LINE",
"795 1219 LINE SMOOTH",
"809 1284 OFFCURVE",
"828 1332 OFFCURVE",
"863 1362 CURVE SMOOTH",
"895 1389 OFFCURVE",
"943 1403 OFFCURVE",
"1006 1403 CURVE SMOOTH",
"1214 1403 LINE"
);
}
);
width = 1233;
}
);
note = "\012\011f\012  ";
unicode = 0066;
},
{
glyphname = g;
layers = (
{
layerId = "74927890-37A3-4F23-AAA5-AC99B6EBF53D";
name = "Regular Italic";
paths = (
{
closed = 1;
nodes = (
"446 145 OFFCURVE",
"391 169 OFFCURVE",
"353 213 CURVE SMOOTH",
"318 254 OFFCURVE",
"297 312 OFFCURVE",
"297 419 CURVE SMOOTH",
"297 565 OFFCURVE",
"336 716 OFFCURVE",
"402 823 CURVE SMOOTH",
"464 924 OFFCURVE",
"553 991 OFFCURVE",
"664 991 CURVE SMOOTH",
"727 991 OFFCURVE",
"781 969 OFFCURVE",
"818 925 CURVE SMOOTH",
"856 880 OFFCURVE",
"874 817 OFFCURVE",
"874 733 CURVE SMOOTH",
"874 674 OFFCURVE",
"865 594 OFFCURVE",
"847 521 CURVE SMOOTH",
"832 459 OFFCURVE",
"804 380 OFFCURVE",
"770 319 CURVE SMOOTH",
"739 263 OFFCURVE",
"701 219 OFFCURVE",
"658 190 CURVE SMOOTH",
"612 159 OFFCURVE",
"563 145 OFFCURVE",
"512 145 CURVE SMOOTH"
);
},
{
closed = 1;
nodes = (
"1145 1116 LINE",
"961 1116 LINE",
"934 965 LINE",
"910 1025 OFFCURVE",
"870 1070 OFFCURVE",
"824 1099 CURVE SMOOTH",
"773 1131 OFFCURVE",
"714 1147 OFFCURVE",
"648 1147 CURVE SMOOTH",
"573 1147 OFFCURVE",
"501 1126 OFFCURVE",
"432 1085 CURVE SMOOTH",
"363 1044 OFFCURVE",
"307 990 OFFCURVE",
"254 911 CURVE SMOOTH",
"208 842 OFFCURVE",
"170 763 OFFCURVE",
"142 668 CURVE SMOOTH",
"115 576 OFFCURVE",
"102 481 OFFCURVE",
"102 398 CURVE SMOOTH",
"102 274 OFFCURVE",
"131 171 OFFCURVE",
"192 99 CURVE SMOOTH",
"251 29 OFFCURVE",
"338 -8 OFFCURVE",
"443 -8 CURVE SMOOTH",
"510 -8 OFFCURVE",
"576 7 OFFCURVE",
"635 38 CURVE SMOOTH",
"693 68 OFFCURVE",
"741 112 OFFCURVE",
"780 170 CURVE",
"756 53 LINE SMOOTH",
"730 -74 OFFCURVE",
"692 -160 OFFCURVE",
"637 -213 CURVE SMOOTH",
"582 -266 OFFCURVE",
"505 -293 OFFCURVE",
"406 -293 CURVE SMOOTH",
"353 -293 OFFCURVE",
"300 -285 OFFCURVE",
"248 -270 CURVE SMOOTH",
"195 -255 OFFCURVE",
"147 -233 OFFCURVE",
"96 -203 CURVE",
"59 -385 LINE",
"109 -403 OFFCURVE",
"161 -417 OFFCURVE",
"214 -426 CURVE SMOOTH",
"267 -435 OFFCURVE",
"319 -440 OFFCURVE",
"376 -440 CURVE SMOOTH",
"539 -440 OFFCURVE",
"667 -400 OFFCURVE",
"756 -320 CURVE SMOOTH",
"845 -240 OFFCURVE",
"907 -108 OFFCURVE",
"942 72 CURVE SMOOTH"
);
}
);
width = 1233;
}
);
note = "\012\011g\012  ";
unicode = 0067;
},
{
glyphname = gbreve;
layers = (
{
layerId = "74927890-37A3-4F23-AAA5-AC99B6EBF53D";
name = "Regular Italic";
paths = (
{
closed = 1;
nodes = (
"446 145 OFFCURVE",
"391 169 OFFCURVE",
"353 213 CURVE SMOOTH",
"318 254 OFFCURVE",
"297 312 OFFCURVE",
"297 419 CURVE SMOOTH",
"297 565 OFFCURVE",
"336 716 OFFCURVE",
"402 823 CURVE SMOOTH",
"464 924 OFFCURVE",
"553 991 OFFCURVE",
"664 991 CURVE SMOOTH",
"727 991 OFFCURVE",
"781 969 OFFCURVE",
"818 925 CURVE SMOOTH",
"856 880 OFFCURVE",
"874 817 OFFCURVE",
"874 733 CURVE SMOOTH",
"874 674 OFFCURVE",
"865 594 OFFCURVE",
"847 521 CURVE SMOOTH",
"832 459 OFFCURVE",
"804 380 OFFCURVE",
"770 319 CURVE SMOOTH",
"739 263 OFFCURVE",
"701 219 OFFCURVE",
"658 190 CURVE SMOOTH",
"612 159 OFFCURVE",
"563 145 OFFCURVE",
"512 145 CURVE SMOOTH"
);
},
{
closed = 1;
nodes = (
"1145 1116 LINE",
"961 1116 LINE",
"934 965 LINE",
"910 1025 OFFCURVE",
"870 1070 OFFCURVE",
"824 1099 CURVE SMOOTH",
"773 1131 OFFCURVE",
"714 1147 OFFCURVE",
"648 1147 CURVE SMOOTH",
"573 1147 OFFCURVE",
"501 1126 OFFCURVE",
"432 1085 CURVE SMOOTH",
"363 1044 OFFCURVE",
"307 990 OFFCURVE",
"254 911 CURVE SMOOTH",
"208 842 OFFCURVE",
"170 763 OFFCURVE",
"142 668 CURVE SMOOTH",
"115 576 OFFCURVE",
"102 481 OFFCURVE",
"102 398 CURVE SMOOTH",
"102 274 OFFCURVE",
"131 171 OFFCURVE",
"192 99 CURVE SMOOTH",
"251 29 OFFCURVE",
"338 -8 OFFCURVE",
"443 -8 CURVE SMOOTH",
"510 -8 OFFCURVE",
"576 7 OFFCURVE",
"635 38 CURVE SMOOTH",
"693 68 OFFCURVE",
"741 112 OFFCURVE",
"780 170 CURVE",
"756 53 LINE SMOOTH",
"730 -74 OFFCURVE",
"692 -160 OFFCURVE",
"637 -213 CURVE SMOOTH",
"582 -266 OFFCURVE",
"505 -293 OFFCURVE",
"406 -293 CURVE SMOOTH",
"353 -293 OFFCURVE",
"300 -285 OFFCURVE",
"248 -270 CURVE SMOOTH",
"195 -255 OFFCURVE",
"147 -233 OFFCURVE",
"96 -203 CURVE",
"59 -385 LINE",
"109 -403 OFFCURVE",
"161 -417 OFFCURVE",
"214 -426 CURVE SMOOTH",
"267 -435 OFFCURVE",
"319 -440 OFFCURVE",
"376 -440 CURVE SMOOTH",
"539 -440 OFFCURVE",
"667 -400 OFFCURVE",
"756 -320 CURVE SMOOTH",
"845 -240 OFFCURVE",
"907 -108 OFFCURVE",
"942 72 CURVE SMOOTH"
);
},
{
closed = 1;
nodes = (
"472 1608 LINE",
"470 1598 OFFCURVE",
"470 1595 OFFCURVE",
"470 1592 CURVE SMOOTH",
"470 1590 OFFCURVE",
"469 1588 OFFCURVE",
"469 1571 CURVE SMOOTH",
"469 1496 OFFCURVE",
"489 1430 OFFCURVE",
"542 1384 CURVE SMOOTH",
"590 1343 OFFCURVE",
"659 1321 OFFCURVE",
"748 1321 CURVE SMOOTH",
"841 1321 OFFCURVE",
"917 1345 OFFCURVE",
"977 1394 CURVE SMOOTH",
"1036 1443 OFFCURVE",
"1077 1514 OFFCURVE",
"1098 1608 CURVE",
"979 1608 LINE",
"960 1557 OFFCURVE",
"931 1519 OFFCURVE",
"897 1495 CURVE SMOOTH",
"862 1470 OFFCURVE",
"818 1458 OFFCURVE",
"762 1458 CURVE SMOOTH",
"708 1458 OFFCURVE",
"665 1469 OFFCURVE",
"636 1492 CURVE SMOOTH",
"607 1515 OFFCURVE",
"592 1548 OFFCURVE",
"592 1591 CURVE SMOOTH",
"592 1608 LINE"
);
}
);
width = 1233;
}
);
note = "\012\011gbreve\012  ";
unicode = 011F;
},
{
glyphname = gcaron;
lastChange = "2015-07-22 00:41:26 +0000";
layers = (
{
layerId = "74927890-37A3-4F23-AAA5-AC99B6EBF53D";
name = "Regular Italic";
paths = (
{
closed = 1;
nodes = (
"782 1262 LINE",
"635 1262 LINE",
"471 1638 LINE",
"602 1638 LINE",
"721 1395 LINE",
"946 1638 LINE",
"1102 1638 LINE"
);
},
{
closed = 1;
nodes = (
"617 145 OFFCURVE",
"709 207 OFFCURVE",
"770 319 CURVE SMOOTH",
"835 439 OFFCURVE",
"874 598 OFFCURVE",
"874 739 CURVE SMOOTH",
"874 898 OFFCURVE",
"795 991 OFFCURVE",
"662 991 CURVE SMOOTH",
"457 991 OFFCURVE",
"297 739 OFFCURVE",
"297 399 CURVE SMOOTH",
"297 240 OFFCURVE",
"377 145 OFFCURVE",
"512 145 CURVE SMOOTH"
);
},
{
closed = 1;
nodes = (
"942 72 LINE SMOOTH",
"871 -289 OFFCURVE",
"704 -440 OFFCURVE",
"375 -440 CURVE SMOOTH",
"266 -440 OFFCURVE",
"159 -421 OFFCURVE",
"59 -385 CURVE",
"96 -203 LINE",
"193 -262 OFFCURVE",
"299 -293 OFFCURVE",
"406 -293 CURVE SMOOTH",
"605 -293 OFFCURVE",
"707 -195 OFFCURVE",
"756 53 CURVE SMOOTH",
"780 170 LINE",
"703 54 OFFCURVE",
"585 -8 OFFCURVE",
"438 -8 CURVE SMOOTH",
"233 -8 OFFCURVE",
"102 146 OFFCURVE",
"102 391 CURVE SMOOTH",
"102 576 OFFCURVE",
"158 770 OFFCURVE",
"254 911 CURVE SMOOTH",
"353 1060 OFFCURVE",
"499 1147 OFFCURVE",
"647 1147 CURVE SMOOTH",
"782 1147 OFFCURVE",
"889 1078 OFFCURVE",
"934 965 CURVE",
"961 1116 LINE",
"1145 1116 LINE"
);
}
);
width = 1233;
}
);
note = gcaron;
unicode = 01E7;
},
{
glyphname = gcommaaccent;
lastChange = "2015-07-22 00:34:01 +0000";
layers = (
{
layerId = "74927890-37A3-4F23-AAA5-AC99B6EBF53D";
name = "Regular Italic";
paths = (
{
closed = 1;
nodes = (
"789 1269 LINE",
"550 1269 LINE",
"804 1614 LINE",
"950 1614 LINE"
);
},
{
closed = 1;
nodes = (
"617 145 OFFCURVE",
"709 207 OFFCURVE",
"770 319 CURVE SMOOTH",
"835 439 OFFCURVE",
"874 598 OFFCURVE",
"874 739 CURVE SMOOTH",
"874 898 OFFCURVE",
"795 991 OFFCURVE",
"662 991 CURVE SMOOTH",
"457 991 OFFCURVE",
"297 739 OFFCURVE",
"297 399 CURVE SMOOTH",
"297 240 OFFCURVE",
"377 145 OFFCURVE",
"512 145 CURVE SMOOTH"
);
},
{
closed = 1;
nodes = (
"942 72 LINE SMOOTH",
"871 -289 OFFCURVE",
"704 -440 OFFCURVE",
"375 -440 CURVE SMOOTH",
"266 -440 OFFCURVE",
"159 -421 OFFCURVE",
"59 -385 CURVE",
"96 -203 LINE",
"193 -262 OFFCURVE",
"299 -293 OFFCURVE",
"406 -293 CURVE SMOOTH",
"605 -293 OFFCURVE",
"707 -195 OFFCURVE",
"756 53 CURVE SMOOTH",
"780 170 LINE",
"703 54 OFFCURVE",
"585 -8 OFFCURVE",
"438 -8 CURVE SMOOTH",
"233 -8 OFFCURVE",
"102 146 OFFCURVE",
"102 391 CURVE SMOOTH",
"102 576 OFFCURVE",
"158 770 OFFCURVE",
"254 911 CURVE SMOOTH",
"353 1060 OFFCURVE",
"499 1147 OFFCURVE",
"647 1147 CURVE SMOOTH",
"782 1147 OFFCURVE",
"889 1078 OFFCURVE",
"934 965 CURVE",
"961 1116 LINE",
"1145 1116 LINE"
);
}
);
width = 1233;
}
);
note = gcommaaccent;
unicode = 0123;
},
{
glyphname = gdotaccent;
lastChange = "2015-07-22 00:36:11 +0000";
layers = (
{
layerId = "74927890-37A3-4F23-AAA5-AC99B6EBF53D";
name = "Regular Italic";
paths = (
{
closed = 1;
nodes = (
"617 145 OFFCURVE",
"709 207 OFFCURVE",
"770 319 CURVE SMOOTH",
"835 439 OFFCURVE",
"874 598 OFFCURVE",
"874 739 CURVE SMOOTH",
"874 898 OFFCURVE",
"795 991 OFFCURVE",
"662 991 CURVE SMOOTH",
"457 991 OFFCURVE",
"297 739 OFFCURVE",
"297 399 CURVE SMOOTH",
"297 240 OFFCURVE",
"377 145 OFFCURVE",
"512 145 CURVE SMOOTH"
);
},
{
closed = 1;
nodes = (
"942 72 LINE SMOOTH",
"871 -289 OFFCURVE",
"704 -440 OFFCURVE",
"375 -440 CURVE SMOOTH",
"266 -440 OFFCURVE",
"159 -421 OFFCURVE",
"59 -385 CURVE",
"96 -203 LINE",
"193 -262 OFFCURVE",
"299 -293 OFFCURVE",
"406 -293 CURVE SMOOTH",
"605 -293 OFFCURVE",
"707 -195 OFFCURVE",
"756 53 CURVE SMOOTH",
"780 170 LINE",
"703 54 OFFCURVE",
"585 -8 OFFCURVE",
"438 -8 CURVE SMOOTH",
"233 -8 OFFCURVE",
"102 146 OFFCURVE",
"102 391 CURVE SMOOTH",
"102 576 OFFCURVE",
"158 770 OFFCURVE",
"254 911 CURVE SMOOTH",
"353 1060 OFFCURVE",
"499 1147 OFFCURVE",
"647 1147 CURVE SMOOTH",
"782 1147 OFFCURVE",
"889 1078 OFFCURVE",
"934 965 CURVE",
"961 1116 LINE",
"1145 1116 LINE"
);
},
{
closed = 1;
nodes = (
"672 1552 LINE",
"877 1552 LINE",
"836 1348 LINE",
"631 1348 LINE"
);
}
);
width = 1233;
}
);
note = gdotaccent;
unicode = 0121;
},
{
glyphname = h;
layers = (
{
layerId = "74927890-37A3-4F23-AAA5-AC99B6EBF53D";
name = "Regular Italic";
paths = (
{
closed = 1;
nodes = (
"1075 694 LINE SMOOTH",
"1083 734 OFFCURVE",
"1089 775 OFFCURVE",
"1091 793 CURVE SMOOTH",
"1094 820 OFFCURVE",
"1096 855 OFFCURVE",
"1096 877 CURVE SMOOTH",
"1096 957 OFFCURVE",
"1069 1028 OFFCURVE",
"1019 1075 CURVE SMOOTH",
"968 1123 OFFCURVE",
"894 1147 OFFCURVE",
"807 1147 CURVE SMOOTH",
"733 1147 OFFCURVE",
"675 1130 OFFCURVE",
"618 1098 CURVE SMOOTH",
"559 1065 OFFCURVE",
"505 1017 OFFCURVE",
"455 952 CURVE",
"571 1556 LINE",
"387 1556 LINE",
"84 0 LINE",
"268 0 LINE",
"391 633 LINE SMOOTH",
"413 745 OFFCURVE",
"454 832 OFFCURVE",
"513 894 CURVE SMOOTH",
"572 956 OFFCURVE",
"644 987 OFFCURVE",
"729 987 CURVE SMOOTH",
"787 987 OFFCURVE",
"832 973 OFFCURVE",
"863 944 CURVE SMOOTH",
"894 915 OFFCURVE",
"909 874 OFFCURVE",
"909 816 CURVE SMOOTH",
"909 782 OFFCURVE",
"904 764 OFFCURVE",
"894 709 CURVE SMOOTH",
"892 701 OFFCURVE",
"895 707 OFFCURVE",
"891 695 CURVE",
"756 0 LINE",
"940 0 LINE"
);
}
);
width = 1233;
}
);
note = "\012\011h\012  ";
unicode = 0068;
},
{
glyphname = hbar;
lastChange = "2015-07-22 00:36:11 +0000";
layers = (
{
layerId = "74927890-37A3-4F23-AAA5-AC99B6EBF53D";
name = "Regular Italic";
paths = (
{
closed = 1;
nodes = (
"900 0 LINE",
"715 0 LINE",
"850 695 LINE SMOOTH",
"858 738 OFFCURVE",
"862 776 OFFCURVE",
"862 809 CURVE SMOOTH",
"862 897 OFFCURVE",
"837 987 OFFCURVE",
"688 987 CURVE SMOOTH",
"520 987 OFFCURVE",
"395 866 OFFCURVE",
"351 633 CURVE SMOOTH",
"228 0 LINE",
"44 0 LINE",
"291 1270 LINE",
"166 1270 LINE",
"198 1434 LINE",
"323 1434 LINE",
"346 1556 LINE",
"530 1556 LINE",
"507 1434 LINE",
"860 1434 LINE",
"828 1270 LINE",
"475 1270 LINE",
"413 952 LINE",
"502 1080 OFFCURVE",
"630 1147 OFFCURVE",
"782 1147 CURVE SMOOTH",
"1011 1147 OFFCURVE",
"1053 1003 OFFCURVE",
"1053 863 CURVE SMOOTH",
"1053 813 OFFCURVE",
"1047 757 OFFCURVE",
"1034 694 CURVE SMOOTH"
);
}
);
width = 1233;
}
);
note = hbar;
unicode = 0127;
},
{
glyphname = i;
layers = (
{
layerId = "74927890-37A3-4F23-AAA5-AC99B6EBF53D";
name = "Regular Italic";
paths = (
{
closed = 1;
nodes = (
"706 1556 LINE SMOOTH",
"688 1556 OFFCURVE",
"677 1547 OFFCURVE",
"674 1529 CURVE SMOOTH",
"640 1356 LINE SMOOTH",
"636 1336 OFFCURVE",
"647 1323 OFFCURVE",
"667 1323 CURVE SMOOTH",
"791 1323 LINE SMOOTH",
"809 1323 OFFCURVE",
"820 1332 OFFCURVE",
"823 1350 CURVE SMOOTH",
"857 1523 LINE SMOOTH",
"861 1543 OFFCURVE",
"850 1556 OFFCURVE",
"830 1556 CURVE SMOOTH"
);
},
{
closed = 1;
nodes = (
"772 1120 LINE",
"272 1120 LINE",
"243 976 LINE",
"559 976 LINE",
"426 412 LINE SMOOTH",
"420 386 OFFCURVE",
"416 361 OFFCURVE",
"412 326 CURVE SMOOTH",
"409 299 OFFCURVE",
"407 279 OFFCURVE",
"407 256 CURVE SMOOTH",
"407 171 OFFCURVE",
"435 107 OFFCURVE",
"492 64 CURVE SMOOTH",
"548 21 OFFCURVE",
"634 0 OFFCURVE",
"749 0 CURVE SMOOTH",
"956 0 LINE",
"987 156 LINE",
"776 156 LINE SMOOTH",
"715 156 OFFCURVE",
"670 168 OFFCURVE",
"641 192 CURVE SMOOTH",
"611 216 OFFCURVE",
"596 250 OFFCURVE",
"596 302 CURVE SMOOTH",
"596 316 OFFCURVE",
"597 325 OFFCURVE",
"600 346 CURVE SMOOTH",
"602 362 OFFCURVE",
"605 385 OFFCURVE",
"610 408 CURVE SMOOTH"
);
}
);
width = 1233;
}
);
note = "\012\011i\012  ";
unicode = 0069;
},
{
glyphname = dotlessi;
layers = (
{
layerId = "74927890-37A3-4F23-AAA5-AC99B6EBF53D";
name = "Regular Italic";
paths = (
{
closed = 1;
nodes = (
"358 1120 LINE",
"330 977 LINE",
"616 977 LINE",
"455 143 LINE",
"90 143 LINE",
"61 0 LINE",
"975 0 LINE",
"1004 143 LINE",
"639 143 LINE",
"829 1120 LINE"
);
}
);
width = 1233;
}
);
note = "\012\011dotlessi\012  ";
unicode = 0131;
},
{
glyphname = iacute;
layers = (
{
layerId = "74927890-37A3-4F23-AAA5-AC99B6EBF53D";
name = "Regular Italic";
paths = (
{
closed = 1;
nodes = (
"358 1120 LINE",
"330 977 LINE",
"616 977 LINE",
"455 143 LINE",
"90 143 LINE",
"61 0 LINE",
"975 0 LINE",
"1004 143 LINE",
"639 143 LINE",
"829 1120 LINE"
);
},
{
closed = 1;
nodes = (
"878 1638 LINE",
"546 1262 LINE",
"702 1262 LINE",
"1097 1638 LINE"
);
}
);
width = 1233;
}
);
note = "\012\011iacute\012  ";
unicode = 00ED;
},
{
glyphname = icircumflex;
layers = (
{
layerId = "74927890-37A3-4F23-AAA5-AC99B6EBF53D";
name = "Regular Italic";
paths = (
{
closed = 1;
nodes = (
"358 1120 LINE",
"330 977 LINE",
"616 977 LINE",
"455 143 LINE",
"90 143 LINE",
"61 0 LINE",
"975 0 LINE",
"1004 143 LINE",
"639 143 LINE",
"829 1120 LINE"
);
},
{
closed = 1;
nodes = (
"688 1638 LINE",
"368 1262 LINE",
"524 1262 LINE",
"749 1503 LINE",
"866 1262 LINE",
"999 1262 LINE",
"835 1638 LINE"
);
}
);
width = 1233;
}
);
note = "\012\011icircumflex\012  ";
unicode = 00EE;
},
{
glyphname = idieresis;
layers = (
{
layerId = "74927890-37A3-4F23-AAA5-AC99B6EBF53D";
name = "Regular Italic";
paths = (
{
closed = 1;
nodes = (
"358 1120 LINE",
"330 977 LINE",
"616 977 LINE",
"455 143 LINE",
"90 143 LINE",
"61 0 LINE",
"975 0 LINE",
"1004 143 LINE",
"639 143 LINE",
"829 1120 LINE"
);
},
{
closed = 1;
nodes = (
"473 1552 LINE SMOOTH",
"455 1552 OFFCURVE",
"444 1543 OFFCURVE",
"441 1525 CURVE SMOOTH",
"413 1383 LINE SMOOTH",
"409 1363 OFFCURVE",
"420 1350 OFFCURVE",
"440 1350 CURVE SMOOTH",
"583 1350 LINE SMOOTH",
"601 1350 OFFCURVE",
"612 1359 OFFCURVE",
"615 1377 CURVE SMOOTH",
"643 1519 LINE SMOOTH",
"647 1539 OFFCURVE",
"636 1552 OFFCURVE",
"616 1552 CURVE SMOOTH"
);
},
{
closed = 1;
nodes = (
"864 1552 LINE SMOOTH",
"846 1552 OFFCURVE",
"835 1543 OFFCURVE",
"832 1525 CURVE SMOOTH",
"804 1383 LINE SMOOTH",
"800 1363 OFFCURVE",
"811 1350 OFFCURVE",
"831 1350 CURVE SMOOTH",
"974 1350 LINE SMOOTH",
"992 1350 OFFCURVE",
"1003 1359 OFFCURVE",
"1006 1377 CURVE SMOOTH",
"1034 1519 LINE SMOOTH",
"1038 1539 OFFCURVE",
"1027 1552 OFFCURVE",
"1007 1552 CURVE SMOOTH"
);
}
);
width = 1233;
}
);
note = "\012\011idieresis\012  ";
unicode = 00EF;
},
{
glyphname = igrave;
layers = (
{
layerId = "74927890-37A3-4F23-AAA5-AC99B6EBF53D";
name = "Regular Italic";
paths = (
{
closed = 1;
nodes = (
"358 1120 LINE",
"330 977 LINE",
"616 977 LINE",
"455 143 LINE",
"90 143 LINE",
"61 0 LINE",
"975 0 LINE",
"1004 143 LINE",
"639 143 LINE",
"829 1120 LINE"
);
},
{
closed = 1;
nodes = (
"622 1638 LINE",
"424 1638 LINE",
"676 1262 LINE",
"819 1262 LINE"
);
}
);
width = 1233;
}
);
note = "\012\011igrave\012  ";
unicode = 00EC;
},
{
glyphname = imacron;
lastChange = "2015-07-22 00:34:01 +0000";
layers = (
{
layerId = "74927890-37A3-4F23-AAA5-AC99B6EBF53D";
name = "Regular Italic";
paths = (
{
closed = 1;
nodes = (
"358 1120 LINE",
"829 1120 LINE",
"639 143 LINE",
"1004 143 LINE",
"975 0 LINE",
"61 0 LINE",
"90 143 LINE",
"455 143 LINE",
"616 977 LINE",
"330 977 LINE"
);
},
{
closed = 1;
nodes = (
"469 1526 LINE",
"1067 1526 LINE",
"1038 1378 LINE",
"440 1378 LINE"
);
}
);
width = 1233;
}
);
note = imacron;
unicode = 012B;
},
{
glyphname = iogonek;
lastChange = "2015-07-22 00:34:01 +0000";
layers = (
{
layerId = "74927890-37A3-4F23-AAA5-AC99B6EBF53D";
name = "Regular Italic";
paths = (
{
closed = 1;
nodes = (
"362 1120 LINE",
"833 1120 LINE",
"643 143 LINE",
"1008 143 LINE",
"979 0 LINE",
"65 0 LINE",
"94 143 LINE",
"459 143 LINE",
"620 977 LINE",
"334 977 LINE"
);
},
{
closed = 1;
nodes = (
"733 1556 LINE",
"917 1556 LINE",
"872 1323 LINE",
"688 1323 LINE"
);
},
{
closed = 1;
nodes = (
"614 0 LINE",
"533 -77 OFFCURVE",
"489 -146 OFFCURVE",
"489 -197 CURVE SMOOTH",
"489 -246 OFFCURVE",
"521 -272 OFFCURVE",
"581 -272 CURVE SMOOTH",
"625 -272 OFFCURVE",
"669 -262 OFFCURVE",
"712 -242 CURVE",
"687 -375 LINE",
"642 -388 OFFCURVE",
"593 -395 OFFCURVE",
"548 -395 CURVE SMOOTH",
"419 -395 OFFCURVE",
"343 -339 OFFCURVE",
"343 -244 CURVE SMOOTH",
"343 -171 OFFCURVE",
"392 -92 OFFCURVE",
"495 0 CURVE"
);
}
);
width = 1233;
}
);
note = iogonek;
unicode = 012F;
},
{
glyphname = itilde;
lastChange = "2015-07-22 00:38:00 +0000";
layers = (
{
layerId = "74927890-37A3-4F23-AAA5-AC99B6EBF53D";
name = "Regular Italic";
paths = (
{
closed = 1;
nodes = (
"665 1425 LINE SMOOTH",
"640 1450 OFFCURVE",
"617 1462 OFFCURVE",
"594 1462 CURVE SMOOTH",
"538 1462 OFFCURVE",
"508 1413 OFFCURVE",
"497 1309 CURVE",
"372 1309 LINE",
"395 1490 OFFCURVE",
"473 1591 OFFCURVE",
"592 1591 CURVE SMOOTH",
"649 1591 OFFCURVE",
"690 1573 OFFCURVE",
"741 1522 CURVE SMOOTH",
"788 1475 LINE SMOOTH",
"816 1446 OFFCURVE",
"835 1436 OFFCURVE",
"858 1436 CURVE SMOOTH",
"913 1436 OFFCURVE",
"945 1488 OFFCURVE",
"956 1591 CURVE",
"1081 1591 LINE",
"1058 1408 OFFCURVE",
"981 1307 OFFCURVE",
"862 1307 CURVE SMOOTH",
"803 1307 OFFCURVE",
"765 1323 OFFCURVE",
"712 1376 CURVE SMOOTH"
);
},
{
closed = 1;
nodes = (
"358 1120 LINE",
"829 1120 LINE",
"639 143 LINE",
"1004 143 LINE",
"975 0 LINE",
"61 0 LINE",
"90 143 LINE",
"455 143 LINE",
"616 977 LINE",
"330 977 LINE"
);
}
);
width = 1233;
}
);
note = itilde;
unicode = 0129;
},
